<?xml version="1.0" encoding="UTF-8" standalone="no"?>
<svg xmlns="http://www.w3.org/2000/svg" version="1.2" baseProfile="tiny" viewBox="0.00 0.00 1773.00 1773.00">
<path stroke="#92823c" stroke-width="2.00" fill="none" stroke-linecap="butt" vector-effect="non-scaling-stroke" d="
  M 802.23 234.11
  L 801.46 234.13"
/>
<path fill="#fabc03" d="
  M 983.08 1073.08
  Q 943.22 1088.69 904.82 1096.08
  C 813.06 1113.75 717.71 1105.49 631.01 1070.74
  C 577.80 1049.42 529.45 1018.80 486.64 980.15
  C 412.42 913.12 362.10 824.60 341.87 726.70
  C 320.94 625.46 334.98 519.18 381.24 426.70
  C 419.20 350.80 476.75 285.32 548.15 239.63
  Q 599.55 206.74 658.92 186.95
  Q 750.74 156.34 848.66 164.34
  A 0.02 0.01 33.9 0 1 848.67 164.37
  Q 848.64 164.38 848.59 164.39
  A 0.25 0.03 -24.7 0 1 848.41 164.45
  Q 847.03 164.61 829.54 165.93
  Q 786.27 169.19 744.73 179.44
  Q 649.78 202.88 573.69 261.70
  Q 540.39 287.43 510.30 320.31
  Q 450.48 385.67 420.07 468.80
  Q 398.08 528.93 393.00 591.49
  C 387.72 656.59 397.76 721.77 419.90 783.36
  Q 463.31 904.12 562.64 983.10
  C 605.30 1017.01 654.79 1044.89 705.95 1062.91
  Q 805.60 1098.00 914.26 1085.20
  Q 950.52 1080.93 982.93 1072.53
  A 0.27 0.27 0.0 0 1 983.25 1072.71
  L 983.25 1072.72
  A 0.29 0.28 -20.1 0 1 983.08 1073.08
  Z"
/>
<path fill="#294775" d="
  M 802.23 234.11
  L 801.46 234.13
  L 802.23 234.11
  Z"
/>
<path fill="#fabc03" d="
  M 801.46 234.13
  L 802.23 234.11
  C 816.40 233.03 818.66 249.22 816.24 259.49
  C 813.51 271.12 807.01 281.07 798.54 289.56
  C 790.40 297.73 778.02 304.30 766.69 302.85
  C 753.54 301.16 749.17 290.05 752.78 278.29
  Q 763.26 244.11 797.90 234.67
  Q 799.63 234.20 801.46 234.13
  Z"
/>
<path fill="#fabc03" d="
  M 747.68 240.90
  C 751.73 244.75 750.31 253.22 748.56 257.94
  C 742.14 275.31 728.68 291.43 711.54 298.77
  C 706.39 300.97 698.15 301.93 693.72 297.72
  C 689.29 293.51 689.81 285.23 691.75 279.98
  C 698.20 262.48 713.60 248.21 730.62 240.90
  C 735.24 238.91 743.63 237.06 747.68 240.90
  Z"
/>
<path fill="#fabc03" d="
  M 682.99 248.77
  C 691.97 250.07 688.78 259.84 686.17 264.90
  Q 676.20 284.25 659.22 296.47
  C 654.43 299.92 650.18 302.43 644.74 303.79
  C 636.70 305.80 632.83 300.63 634.66 293.08
  Q 636.21 286.69 640.57 279.85
  Q 651.16 263.24 669.01 253.49
  Q 675.82 249.77 682.06 248.78
  A 3.46 3.24 42.5 0 1 682.99 248.77
  Z"
/>
<path fill="#fabc03" d="
  M 630.52 261.30
  Q 630.88 264.48 628.98 268.02
  Q 616.62 291.15 594.30 304.57
  Q 592.42 305.71 588.07 307.00
  Q 583.63 308.31 582.39 304.35
  C 581.15 300.39 584.67 294.19 586.77 290.90
  Q 596.99 274.91 612.51 264.98
  C 617.72 261.66 621.98 259.02 627.67 258.82
  A 2.79 2.78 -4.0 0 1 630.52 261.30
  Z"
/>
<path fill="#fabc03" d="
  M 927.20 304.75
  C 942.17 317.82 949.65 334.73 948.89 354.38
  C 948.43 366.20 942.57 376.06 931.97 381.28
  C 922.03 386.17 909.38 384.21 900.61 377.57
  Q 883.88 364.90 882.13 343.45
  C 880.92 328.58 884.48 312.73 895.53 302.55
  C 905.19 293.66 918.08 296.80 927.20 304.75
  Z"
/>
<path fill="#fabc03" d="
  M 833.98 314.36
  C 843.94 309.39 854.29 312.95 861.12 321.50
  C 874.90 338.75 875.22 366.83 860.34 383.55
  C 854.81 389.76 846.81 394.65 838.27 395.13
  C 827.32 395.74 815.98 390.48 810.44 381.00
  Q 804.77 371.32 805.69 359.49
  C 807.20 339.89 816.14 323.25 833.98 314.36
  Z"
/>
<path fill="#fabc03" d="
  M 756.62 399.53
  C 743.48 401.07 731.38 394.57 728.54 381.25
  C 724.06 360.28 740.53 336.33 757.80 326.81
  C 772.65 318.63 789.28 320.84 793.17 339.82
  Q 794.47 346.14 794.38 349.49
  C 793.90 366.60 787.25 381.82 773.39 392.35
  Q 765.28 398.52 756.62 399.53
  Z"
/>
<path fill="#fabc03" d="
  M 536.23 374.04
  Q 536.22 374.04 534.92 373.65
  Q 530.36 372.27 531.34 367.86
  C 532.01 364.85 533.10 361.20 534.84 357.82
  Q 545.96 336.17 567.03 324.03
  Q 568.02 323.46 571.16 322.71
  C 580.27 320.53 575.79 331.41 573.96 334.97
  Q 563.94 354.44 546.90 368.16
  Q 544.72 369.92 537.16 373.87
  A 1.60 1.58 -55.1 0 1 536.23 374.04
  Z"
/>
<path fill="#fabc03" d="
  M 596.81 328.83
  C 600.12 327.02 609.14 323.94 611.42 328.39
  Q 611.93 329.40 612.02 331.36
  Q 612.28 337.55 608.48 345.47
  Q 599.19 364.86 581.65 378.39
  C 576.64 382.25 570.51 385.55 564.09 383.03
  C 562.54 382.43 561.14 380.35 561.16 378.45
  Q 561.28 370.38 562.78 366.73
  Q 573.05 341.82 596.81 328.83
  Z"
/>
<path fill="#fabc03" d="
  M 716.57 330.45
  C 723.16 336.39 722.03 349.50 719.96 356.74
  C 715.64 371.87 705.45 386.89 690.87 394.34
  C 679.91 399.94 663.60 401.01 659.69 385.79
  C 657.76 378.30 658.99 370.95 662.40 363.78
  Q 668.55 350.83 679.30 340.53
  C 687.16 332.99 705.99 320.91 716.57 330.45
  Z"
/>
<path fill="#fabc03" d="
  M 607.21 390.24
  C 602.48 386.37 602.40 378.07 603.94 372.69
  C 609.09 354.77 623.40 339.41 639.83 330.87
  C 644.29 328.55 652.51 326.09 656.83 329.63
  C 661.15 333.16 660.36 341.71 658.97 346.54
  C 653.84 364.34 641.60 381.40 625.05 389.97
  C 620.08 392.55 611.93 394.10 607.21 390.24
  Z"
/>
<path fill="#fabc03" d="
  M 1067.81 472.98
  C 1048.45 487.95 1022.16 477.17 1008.55 459.70
  Q 989.46 435.19 993.53 404.26
  Q 994.72 395.22 1000.44 386.96
  C 1009.22 374.26 1022.66 372.45 1036.62 377.90
  C 1059.34 386.77 1074.40 407.32 1080.04 430.43
  C 1083.58 444.95 1080.25 463.36 1067.81 472.98
  Z"
/>
<path fill="#fabc03" d="
  M 979.07 485.09
  C 969.65 499.45 953.89 504.88 937.06 501.61
  C 917.32 497.77 905.51 482.55 900.42 463.61
  C 899.52 460.27 898.48 452.91 898.78 448.43
  C 899.66 435.06 902.99 423.26 911.88 413.42
  C 925.86 397.95 945.26 397.48 961.46 409.94
  C 982.23 425.90 991.32 449.10 983.96 474.99
  Q 982.63 479.68 979.07 485.09
  Z"
/>
<path fill="#fabc03" d="
  M 850.66 420.86
  C 874.05 424.61 886.71 450.29 885.09 472.94
  C 883.76 491.60 873.16 507.59 855.74 514.22
  Q 846.03 517.92 835.37 516.21
  Q 824.72 514.51 816.66 507.96
  C 802.18 496.21 797.11 477.71 801.67 459.57
  C 807.22 437.54 827.27 417.11 850.66 420.86
  Z"
/>
<path fill="#fabc03" d="
  M 499.98 465.47
  C 495.91 474.81 489.65 485.14 480.26 490.38
  C 473.16 494.34 470.83 483.93 470.96 479.01
  Q 471.26 467.32 476.52 455.25
  Q 481.78 443.17 490.14 435.00
  C 493.66 431.56 502.87 426.18 504.80 434.07
  C 507.36 444.52 504.05 456.14 499.98 465.47
  Z"
/>
<path fill="#fabc03" d="
  M 785.57 477.51
  C 783.18 495.00 772.91 510.87 756.93 518.46
  C 730.93 530.81 703.26 512.37 704.17 483.88
  C 704.88 461.66 719.06 440.63 740.83 434.10
  C 759.45 428.51 776.57 437.78 782.54 456.28
  Q 783.41 458.98 785.01 466.81
  Q 786.22 472.76 785.57 477.51
  Z"
/>
<ellipse fill="#fabc03" cx="0.00" cy="0.00" transform="translate(527.27,469.08) rotate(-65.7)" rx="36.54" ry="18.63"/>
<path fill="#fabc03" d="
  M 625.79 509.24
  C 618.51 499.25 619.08 486.96 622.36 474.62
  C 625.81 461.64 633.46 451.05 644.90 443.82
  Q 655.94 436.83 666.18 437.64
  C 682.98 438.97 690.98 457.02 690.21 472.62
  Q 689.02 496.54 670.51 511.77
  C 657.03 522.86 636.85 524.42 625.79 509.24
  Z"
/>
<ellipse fill="#fabc03" cx="0.00" cy="0.00" transform="translate(582.40,475.79) rotate(-64.9)" rx="40.12" ry="25.21"/>
<path fill="#fabc03" d="
  M 1198.80 567.41
  Q 1187.35 571.75 1174.32 566.55
  C 1142.59 553.87 1127.64 511.96 1133.68 480.33
  C 1135.98 468.29 1142.78 455.46 1154.73 450.94
  C 1166.67 446.42 1180.26 451.53 1189.95 459.03
  C 1215.42 478.74 1231.97 520.05 1216.58 550.56
  Q 1210.26 563.08 1198.80 567.41
  Z"
/>
<path fill="#fabc03" d="
  M 1097.09 603.99
  C 1076.83 609.93 1055.32 598.93 1043.91 582.02
  C 1032.26 564.74 1028.71 542.75 1034.75 522.53
  C 1039.04 508.18 1049.55 495.66 1064.10 491.39
  C 1078.65 487.13 1094.27 492.00 1105.62 501.77
  C 1121.61 515.54 1130.49 535.97 1130.00 556.80
  C 1129.52 577.20 1117.35 598.06 1097.09 603.99
  Z"
/>
<ellipse fill="#fabc03" cx="0.00" cy="0.00" transform="translate(970.23,576.80) rotate(-100.0)" rx="55.03" ry="50.46"/>
<ellipse fill="#fabc03" cx="0.00" cy="0.00" transform="translate(855.25,596.04) rotate(-86.7)" rx="51.62" ry="49.36"/>
<ellipse fill="#fabc03" cx="0.00" cy="0.00" transform="translate(455.09,588.50) rotate(-85.0)" rx="33.60" ry="13.73"/>
<path fill="#fabc03" d="
  M 788.44 610.92
  C 786.09 634.25 767.25 655.07 742.71 654.38
  C 714.82 653.59 694.79 629.44 697.58 601.75
  C 700.38 574.05 724.83 554.40 752.32 559.19
  C 776.50 563.41 790.80 587.58 788.44 610.92
  Z"
/>
<ellipse fill="#fabc03" cx="0.00" cy="0.00" transform="translate(497.71,597.85) rotate(-85.7)" rx="37.29" ry="20.86"/>
<ellipse fill="#fabc03" cx="0.00" cy="0.00" transform="translate(559.17,605.13) rotate(-86.2)" rx="41.08" ry="29.27"/>
<ellipse fill="#fabc03" cx="0.00" cy="0.00" transform="translate(641.50,608.74) rotate(-86.1)" rx="44.68" ry="38.74"/>
<ellipse fill="#294775" cx="0.00" cy="0.00" transform="translate(1112.25,676.27) rotate(-80.0)" rx="60.62" ry="50.25"/>
<ellipse fill="#294775" cx="0.00" cy="0.00" transform="translate(993.80,707.68) rotate(-70.5)" rx="56.76" ry="52.85"/>
<circle fill="#294775" cx="872.14" cy="728.78" r="52.15"/>
<ellipse fill="#294775" cx="0.00" cy="0.00" transform="translate(457.80,723.73) rotate(-103.5)" rx="34.03" ry="12.39"/>
<path fill="#294775" d="
  M 716.17 765.37
  C 702.39 745.81 703.91 717.73 723.19 701.92
  C 735.92 691.49 753.88 689.50 769.10 695.20
  Q 791.53 703.61 800.11 726.15
  C 807.49 745.54 801.02 767.40 785.29 780.20
  C 771.76 791.22 753.75 790.02 738.05 783.18
  Q 724.58 777.31 716.17 765.37
  Z"
/>
<ellipse fill="#294775" cx="0.00" cy="0.00" transform="translate(501.17,732.88) rotate(-105.9)" rx="38.02" ry="20.04"/>
<ellipse fill="#294775" cx="0.00" cy="0.00" transform="translate(649.50,743.19) rotate(-120.3)" rx="46.45" ry="38.78"/>
<ellipse fill="#294775" cx="0.00" cy="0.00" transform="translate(564.02,739.90) rotate(-110.0)" rx="42.10" ry="28.77"/>
<path fill="#294775" d="
  M 1296.96 1013.02
  A 0.31 0.31 0.0 0 0 1296.66 1013.33
  L 1296.66 1152.81
  A 0.72 0.72 0.0 0 1 1295.94 1153.53
  L 1194.79 1153.53
  A 0.39 0.38 -90.0 0 1 1194.41 1153.14
  L 1194.41 707.00
  A 0.42 0.42 0.0 0 1 1194.83 706.58
  Q 1289.31 706.58 1342.38 706.51
  Q 1374.86 706.47 1386.10 707.93
  Q 1446.94 715.81 1487.35 765.23
  Q 1510.89 794.02 1517.46 830.54
  C 1520.96 849.94 1520.98 871.40 1517.25 890.51
  Q 1508.65 934.57 1475.53 967.58
  Q 1439.19 1003.81 1389.61 1011.26
  Q 1376.26 1013.27 1346.40 1013.14
  Q 1305.43 1012.97 1296.96 1013.02
  Z
  M 1296.66 859.84
  Q 1296.66 909.33 1296.69 916.72
  A 0.60 0.59 0.0 0 0 1297.29 917.31
  Q 1349.99 917.24 1354.75 917.33
  Q 1370.05 917.60 1377.16 915.82
  Q 1395.61 911.20 1407.21 894.97
  C 1414.64 884.58 1417.91 872.45 1417.91 859.84
  C 1417.91 847.23 1414.64 835.10 1407.21 824.71
  Q 1395.61 808.48 1377.16 803.86
  Q 1370.05 802.08 1354.75 802.35
  Q 1349.99 802.44 1297.29 802.38
  A 0.60 0.59 -0.0 0 0 1296.69 802.97
  Q 1296.66 810.36 1296.66 859.84
  Z"
/>
<path fill="#294775" d="
  M 1158.78 794.22
  L 1158.78 889.20
  A 0.38 0.37 -0.0 0 1 1158.40 889.57
  L 996.59 889.57
  A 0.66 0.66 0.0 0 0 995.93 890.18
  L 991.60 950.30
  A 0.56 0.56 0.0 0 0 992.17 950.91
  Q 1018.90 950.64 1035.43 951.01
  Q 1065.66 951.67 1093.87 962.80
  C 1120.62 973.35 1146.35 993.70 1161.18 1018.91
  Q 1173.71 1040.22 1178.12 1065.16
  C 1183.13 1093.54 1182.32 1123.92 1173.60 1151.31
  Q 1163.36 1183.48 1138.07 1206.28
  C 1106.33 1234.90 1066.96 1248.41 1024.50 1249.52
  C 993.23 1250.33 962.69 1245.43 934.34 1232.65
  Q 881.37 1208.75 859.01 1154.38
  A 0.82 0.82 0.0 0 1 859.36 1153.35
  L 946.38 1103.11
  A 0.41 0.40 63.5 0 1 946.96 1103.31
  Q 948.30 1106.68 949.84 1110.14
  C 960.85 1134.87 982.66 1147.86 1009.17 1149.62
  C 1026.29 1150.75 1046.55 1149.44 1060.72 1138.37
  Q 1079.52 1123.68 1078.95 1098.54
  Q 1078.49 1078.42 1064.56 1064.74
  C 1053.67 1054.05 1037.57 1050.45 1022.75 1050.44
  Q 955.71 1050.37 882.03 1050.44
  A 0.31 0.31 0.0 0 1 881.72 1050.11
  L 900.19 794.26
  A 0.58 0.58 0.0 0 1 900.77 793.72
  L 1158.28 793.72
  A 0.50 0.50 0.0 0 1 1158.78 794.22
  Z"
/>
<ellipse fill="#294775" cx="0.00" cy="0.00" transform="translate(496.04,846.77) rotate(-120.7)" rx="32.31" ry="9.17"/>
<path fill="#294775" d="
  M 813.06 893.99
  Q 799.85 906.43 780.68 904.88
  Q 757.37 902.98 743.34 887.31
  Q 733.34 876.13 731.29 863.81
  C 728.96 849.77 735.99 834.60 749.43 828.19
  Q 760.03 823.15 771.02 823.04
  Q 776.42 822.98 785.43 825.21
  C 798.52 828.46 809.30 835.62 816.45 847.05
  C 826.03 862.36 826.51 881.33 813.06 893.99
  Z"
/>
<ellipse fill="#294775" cx="0.00" cy="0.00" transform="translate(536.28,855.86) rotate(-124.0)" rx="36.13" ry="15.73"/>
<ellipse fill="#294775" cx="0.00" cy="0.00" transform="translate(595.45,862.90) rotate(-129.8)" rx="39.97" ry="23.58"/>
<path fill="#294775" d="
  M 696.60 841.06
  C 708.74 850.58 717.06 863.48 716.96 879.31
  C 716.90 890.61 709.36 899.81 698.50 902.73
  Q 693.01 904.20 685.81 903.36
  Q 668.68 901.36 656.68 891.95
  Q 644.69 882.54 638.66 866.37
  Q 636.14 859.58 636.26 853.90
  C 636.51 842.66 643.65 833.14 654.61 830.39
  C 669.96 826.53 684.47 831.54 696.60 841.06
  Z"
/>
<path fill="#294775" d="
  M 584.44 969.67
  Q 582.03 969.65 580.41 968.58
  Q 561.82 956.27 548.24 939.51
  Q 544.48 934.86 541.89 930.08
  Q 540.67 927.83 541.94 925.66
  A 0.56 0.55 -61.9 0 1 542.65 925.44
  Q 548.30 928.08 553.79 932.53
  Q 570.71 946.21 583.51 965.31
  Q 584.90 967.39 584.99 969.10
  A 0.55 0.54 89.5 0 1 584.44 969.67
  Z"
/>
<path fill="#294775" d="
  M 619.57 980.08
  Q 616.31 980.56 612.60 978.74
  Q 588.37 966.88 573.76 944.43
  Q 572.52 942.54 571.03 938.11
  Q 569.52 933.60 573.55 932.18
  C 577.58 930.76 584.08 934.15 587.54 936.19
  Q 604.35 946.11 615.12 961.70
  C 618.73 966.93 621.60 971.21 622.01 977.05
  A 2.87 2.86 83.9 0 1 619.57 980.08
  Z"
/>
<path fill="#294775" d="
  M 844.93 975.46
  C 842.58 983.24 836.78 989.09 829.10 991.91
  C 811.49 998.38 791.21 993.53 777.49 981.77
  Q 760.06 966.82 764.77 951.22
  Q 769.49 935.62 792.29 932.84
  C 810.23 930.65 829.80 937.85 840.87 952.99
  C 845.70 959.60 847.28 967.69 844.93 975.46
  Z"
/>
<ellipse fill="#294775" cx="0.00" cy="0.00" transform="translate(647.01,962.05) rotate(-141.5)" rx="36.82" ry="16.34"/>
<path fill="#294775" d="
  M 710.83 938.01
  C 728.15 941.84 743.80 951.16 751.68 966.80
  C 756.18 975.73 755.03 986.90 745.20 991.70
  Q 738.47 994.99 729.45 993.56
  C 708.67 990.26 692.14 980.49 682.55 961.45
  C 680.72 957.81 679.97 952.05 681.30 948.11
  C 685.23 936.55 700.73 935.78 710.83 938.01
  Z"
/>
<path fill="#294775" d="
  M 678.86 1032.34
  C 674.07 1034.54 662.92 1030.28 658.46 1028.58
  Q 645.19 1023.52 632.56 1014.22
  C 628.56 1011.27 624.66 1007.98 623.98 1002.92
  A 2.17 2.17 0.0 0 1 625.46 1000.57
  L 629.64 999.21
  A 1.00 0.96 -46.0 0 1 630.22 999.19
  Q 643.99 1002.93 651.14 1006.35
  Q 664.40 1012.70 674.90 1022.85
  C 677.43 1025.30 679.53 1027.82 679.42 1031.50
  A 0.97 0.96 -11.6 0 1 678.86 1032.34
  Z"
/>
<path fill="#294775" d="
  M 740.23 1047.68
  Q 739.56 1048.94 736.99 1048.90
  C 729.15 1048.80 721.46 1046.06 714.58 1043.14
  Q 698.89 1036.47 686.35 1024.42
  A 3.46 3.36 -84.2 0 1 685.80 1023.73
  C 685.01 1022.42 683.74 1019.21 684.54 1017.72
  C 685.33 1016.24 688.71 1015.53 690.24 1015.47
  A 3.46 3.36 -39.2 0 1 691.12 1015.54
  Q 708.09 1019.36 722.30 1028.78
  C 728.53 1032.91 735.06 1037.81 739.47 1044.30
  Q 740.91 1046.42 740.23 1047.68
  Z"
/>
<path fill="#294775" d="
  M 771.11 1022.56
  Q 781.18 1026.88 789.29 1034.45
  C 794.41 1039.22 801.40 1050.59 789.20 1052.99
  C 779.64 1054.87 769.00 1051.87 760.16 1048.08
  C 751.32 1044.29 741.82 1038.64 736.60 1030.42
  C 729.93 1019.93 742.98 1017.16 749.97 1017.58
  Q 761.04 1018.24 771.11 1022.56
  Z"
/>
<rect fill="#294775" x="371.65" y="1279.83" width="25.86" height="124.00" rx="0.49"/>
<path fill="#294775" d="
  M 597.07 1363.02
  C 603.36 1352.27 616.52 1348.38 628.30 1348.32
  Q 642.93 1348.24 651.67 1351.91
  A 0.49 0.48 -78.0 0 0 652.34 1351.47
  Q 652.67 1341.66 646.30 1337.19
  C 638.74 1331.88 623.49 1333.67 614.34 1336.61
  Q 613.30 1336.95 608.29 1338.60
  A 0.61 0.61 0.0 0 1 607.53 1338.21
  L 601.48 1319.71
  A 0.65 0.65 0.0 0 1 601.82 1318.93
  Q 617.03 1311.83 635.96 1311.75
  C 656.34 1311.66 673.03 1319.18 676.42 1341.31
  C 677.35 1347.38 677.19 1352.94 677.20 1358.77
  Q 677.25 1385.98 677.20 1403.20
  A 0.65 0.64 -89.5 0 1 676.56 1403.84
  L 652.99 1403.84
  A 0.74 0.73 -0.0 0 1 652.25 1403.11
  L 652.25 1394.62
  A 0.31 0.30 66.4 0 0 651.72 1394.41
  C 643.14 1403.83 630.57 1406.93 617.99 1405.05
  C 605.39 1403.16 594.88 1394.42 593.67 1381.59
  Q 593.50 1379.78 593.36 1379.03
  A 0.19 0.19 0.0 0 0 593.00 1378.99
  C 585.88 1395.72 572.94 1405.61 554.47 1405.49
  C 543.27 1405.42 534.06 1400.60 527.29 1392.43
  A 0.27 0.26 25.7 0 0 526.82 1392.59
  L 526.82 1403.13
  A 0.71 0.70 90.0 0 1 526.12 1403.84
  L 501.72 1403.84
  A 0.76 0.76 0.0 0 1 500.96 1403.08
  L 500.96 1280.23
  A 0.40 0.40 0.0 0 1 501.36 1279.83
  L 526.43 1279.83
  A 0.39 0.39 0.0 0 1 526.82 1280.22
  L 526.83 1325.15
  A 0.26 0.26 0.0 0 0 527.22 1325.38
  C 527.64 1325.14 529.63 1322.29 530.80 1321.11
  Q 543.38 1308.45 562.08 1311.77
  C 584.17 1315.69 596.80 1335.54 596.63 1357.09
  Q 596.59 1362.14 596.67 1362.93
  A 0.22 0.22 0.0 0 0 597.07 1363.02
  Z
  M 548.6500 1332.8700
  A 25.47 22.32 -90.0 0 0 526.3300 1358.3400
  A 25.47 22.32 -90.0 0 0 548.6500 1383.8100
  A 25.47 22.32 -90.0 0 0 570.9700 1358.3400
  A 25.47 22.32 -90.0 0 0 548.6500 1332.8700
  Z
  M 652.05 1366.84
  Q 643.51 1363.47 634.45 1363.87
  C 627.72 1364.18 620.09 1366.42 618.73 1373.79
  C 616.16 1387.75 631.80 1389.42 641.02 1386.48
  Q 654.24 1382.27 652.62 1367.58
  A 0.91 0.90 7.7 0 0 652.05 1366.84
  Z"
/>
<rect fill="#294775" x="683.84" y="1279.81" width="25.84" height="124.02" rx="0.43"/>
<path fill="#294775" d="
  M 343.59 1318.58
  Q 338.02 1314.20 333.68 1311.84
  C 325.82 1307.55 314.05 1305.71 305.27 1308.00
  C 289.48 1312.11 279.85 1326.25 278.95 1342.26
  C 277.85 1361.84 289.75 1378.91 309.70 1381.87
  Q 313.87 1382.49 322.50 1381.49
  Q 331.11 1380.48 339.10 1375.24
  A 1.02 1.02 0.0 0 0 339.57 1374.38
  L 339.57 1358.36
  A 0.37 0.37 0.0 0 0 339.20 1357.99
  L 313.81 1357.99
  A 0.63 0.62 -90.0 0 1 313.19 1357.36
  L 313.19 1335.96
  A 0.57 0.57 0.0 0 1 313.76 1335.39
  L 364.52 1335.39
  A 0.35 0.35 0.0 0 1 364.87 1335.74
  L 364.87 1386.40
  A 1.10 1.06 71.0 0 1 364.48 1387.24
  Q 348.47 1400.53 329.18 1404.57
  Q 322.96 1405.87 313.51 1405.84
  C 290.84 1405.76 270.33 1395.54 259.28 1375.72
  C 250.28 1359.57 248.85 1337.98 256.09 1320.84
  Q 265.86 1297.73 288.81 1287.83
  C 300.20 1282.91 311.93 1282.21 324.32 1283.40
  Q 344.64 1285.36 360.40 1299.05
  A 0.26 0.25 -50.6 0 1 360.43 1299.41
  L 344.54 1318.48
  A 0.69 0.68 38.6 0 1 343.59 1318.58
  Z"
/>
<path fill="#294775" d="
  M 779.34 1403.84
  L 754.36 1403.84
  A 0.34 0.34 0.0 0 1 754.02 1403.50
  L 754.02 1285.18
  A 0.34 0.34 0.0 0 1 754.36 1284.84
  L 782.06 1284.84
  A 0.34 0.34 0.0 0 1 782.35 1285.00
  L 813.24 1334.69
  A 0.34 0.34 0.0 0 0 813.82 1334.69
  L 844.67 1285.00
  A 0.34 0.34 0.0 0 1 844.96 1284.84
  L 872.65 1284.84
  A 0.34 0.34 0.0 0 1 872.99 1285.18
  L 872.99 1403.50
  A 0.34 0.34 0.0 0 1 872.65 1403.84
  L 847.34 1403.84
  A 0.34 0.34 0.0 0 1 847.00 1403.50
  L 847.00 1327.31
  A 0.34 0.34 0.0 0 0 846.38 1327.13
  L 813.45 1377.14
  A 0.34 0.34 0.0 0 1 812.89 1377.14
  L 780.30 1327.61
  A 0.34 0.34 0.0 0 0 779.68 1327.80
  L 779.68 1403.50
  A 0.34 0.34 0.0 0 1 779.34 1403.84
  Z"
/>
<path fill="#294775" d="
  M 1464.90 1333.01
  L 1464.90 1313.21
  A 0.39 0.39 0.0 0 1 1465.29 1312.82
  L 1475.40 1312.82
  A 0.37 0.36 90.0 0 0 1475.76 1312.45
  L 1475.76 1290.04
  A 0.61 0.60 0.0 0 1 1476.37 1289.44
  L 1501.08 1289.44
  A 0.55 0.55 0.0 0 1 1501.63 1289.99
  L 1501.63 1312.24
  A 0.58 0.58 0.0 0 0 1502.21 1312.82
  L 1522.44 1312.82
  A 0.63 0.63 0.0 0 1 1523.07 1313.45
  L 1523.07 1334.24
  A 0.63 0.62 -90.0 0 1 1522.45 1334.87
  L 1502.11 1334.87
  A 0.50 0.49 -90.0 0 0 1501.62 1335.37
  Q 1501.66 1356.05 1501.60 1368.31
  Q 1501.56 1376.35 1502.28 1378.07
  C 1505.33 1385.34 1516.14 1382.27 1521.99 1379.73
  A 0.49 0.49 0.0 0 1 1522.67 1380.18
  L 1522.67 1399.58
  A 1.00 0.99 -13.9 0 1 1522.13 1400.46
  Q 1506.76 1408.46 1490.13 1403.56
  C 1481.47 1401.01 1477.00 1392.62 1476.07 1383.88
  Q 1475.75 1380.80 1475.76 1372.59
  Q 1475.79 1356.28 1475.77 1335.49
  A 0.63 0.63 0.0 0 0 1475.14 1334.86
  L 1465.41 1334.86
  A 0.43 0.43 0.0 0 0 1464.99 1335.37
  Q 1465.87 1339.77 1465.88 1342.00
  Q 1465.94 1355.41 1465.91 1403.36
  A 0.48 0.48 0.0 0 1 1465.43 1403.84
  L 1440.62 1403.84
  A 0.52 0.52 0.0 0 1 1440.10 1403.32
  Q 1440.09 1402.94 1440.09 1353.75
  C 1440.09 1348.03 1439.15 1342.21 1434.90 1338.20
  C 1430.65 1334.18 1423.14 1333.59 1418.06 1335.61
  C 1410.36 1338.68 1408.33 1345.83 1408.33 1353.50
  Q 1408.34 1381.81 1408.33 1403.34
  A 0.50 0.50 0.0 0 1 1407.83 1403.84
  L 1383.03 1403.84
  A 0.54 0.53 -0.0 0 1 1382.49 1403.31
  L 1382.49 1313.40
  A 0.59 0.58 -0.0 0 1 1383.08 1312.82
  L 1407.71 1312.82
  A 0.62 0.62 0.0 0 1 1408.33 1313.44
  L 1408.33 1324.98
  A 0.26 0.25 -26.7 0 0 1408.79 1325.13
  Q 1421.96 1307.58 1443.14 1311.92
  C 1454.96 1314.34 1461.17 1322.12 1464.68 1333.05
  A 0.11 0.11 0.0 0 0 1464.90 1333.01
  Z"
/>
<path fill="#294775" d="
  M 499.1780 1355.6435
  A 49.45 47.54 -3.3 0 1 452.5466 1405.9512
  A 49.45 47.54 -3.3 0 1 400.4420 1361.3365
  A 49.45 47.54 -3.3 0 1 447.0734 1311.0288
  A 49.45 47.54 -3.3 0 1 499.1780 1355.6435
  Z
  M 446.3217 1333.3409
  A 25.38 23.90 -97.9 0 0 426.1368 1361.7649
  A 25.38 23.90 -97.9 0 0 453.2983 1383.6191
  A 25.38 23.90 -97.9 0 0 473.4832 1355.1951
  A 25.38 23.90 -97.9 0 0 446.3217 1333.3409
  Z"
/>
<path fill="#294775" d="
  M 976.2176 1355.8058
  A 49.45 47.54 -3.1 0 1 929.4109 1405.9504
  A 49.45 47.54 -3.1 0 1 877.4624 1361.1542
  A 49.45 47.54 -3.1 0 1 924.2691 1311.0096
  A 49.45 47.54 -3.1 0 1 976.2176 1355.8058
  Z
  M 923.3517 1333.3509
  A 25.38 23.91 -97.9 0 0 903.1569 1361.7763
  A 25.38 23.91 -97.9 0 0 930.3283 1383.6291
  A 25.38 23.91 -97.9 0 0 950.5231 1355.2037
  A 25.38 23.91 -97.9 0 0 923.3517 1333.3509
  Z"
/>
<path fill="#294775" d="
  M 1129.28 1376.29
  L 1143.08 1388.58
  A 0.59 0.58 41.0 0 1 1143.14 1389.39
  Q 1129.18 1406.08 1106.00 1405.88
  C 1082.80 1405.67 1063.86 1391.62 1059.62 1368.48
  C 1054.41 1340.01 1072.66 1311.00 1103.55 1311.14
  Q 1130.22 1311.25 1142.09 1333.50
  C 1147.17 1343.02 1148.94 1356.04 1147.83 1366.96
  A 0.41 0.40 2.3 0 1 1147.42 1367.33
  L 1085.13 1367.33
  A 0.51 0.50 84.3 0 0 1084.64 1367.94
  C 1087.29 1380.35 1097.05 1385.98 1109.47 1385.01
  Q 1119.63 1384.22 1128.14 1376.31
  A 0.85 0.85 0.0 0 1 1129.28 1376.29
  Z
  M 1103.65 1351.15
  Q 1121.44 1351.15 1122.40 1351.10
  A 0.54 0.54 0.0 0 0 1122.91 1350.48
  C 1121.42 1340.23 1114.84 1331.79 1103.64 1331.80
  C 1092.44 1331.80 1085.87 1340.24 1084.39 1350.50
  A 0.54 0.54 0.0 0 0 1084.90 1351.12
  Q 1085.86 1351.16 1103.65 1351.15
  Z"
/>
<path fill="#294775" d="
  M 1288.78 1403.84
  L 1264.06 1403.84
  A 0.38 0.38 0.0 0 1 1263.68 1403.46
  Q 1263.67 1389.36 1263.68 1353.75
  C 1263.68 1345.42 1261.42 1336.51 1252.07 1334.93
  Q 1238.05 1332.55 1233.76 1345.72
  Q 1232.96 1348.20 1232.95 1354.50
  Q 1232.91 1377.93 1232.92 1403.36
  A 0.48 0.48 0.0 0 1 1232.44 1403.84
  L 1207.67 1403.84
  A 0.59 0.59 0.0 0 1 1207.08 1403.24
  Q 1207.13 1370.95 1207.05 1353.01
  C 1207.01 1344.73 1204.21 1335.89 1194.65 1334.73
  C 1183.19 1333.34 1176.45 1340.62 1176.40 1351.76
  Q 1176.27 1381.47 1176.37 1403.20
  A 0.63 0.63 0.0 0 1 1175.74 1403.84
  L 1151.02 1403.84
  A 0.48 0.48 0.0 0 1 1150.54 1403.36
  L 1150.54 1313.41
  A 0.59 0.59 0.0 0 1 1151.13 1312.82
  L 1175.72 1312.82
  A 0.62 0.61 -0.0 0 1 1176.34 1313.43
  L 1176.34 1324.87
  A 0.31 0.31 0.0 0 0 1176.90 1325.06
  Q 1189.31 1308.48 1208.97 1311.59
  C 1217.86 1313.00 1224.50 1317.42 1228.58 1325.07
  A 0.49 0.49 0.0 0 0 1229.40 1325.15
  Q 1242.53 1309.08 1263.76 1311.45
  C 1281.48 1313.43 1289.44 1326.83 1289.49 1343.55
  Q 1289.61 1379.44 1289.52 1403.10
  A 0.74 0.74 0.0 0 1 1288.78 1403.84
  Z"
/>
<path fill="#294775" d="
  M 1360.12 1376.30
  A 0.85 0.85 0.0 0 1 1361.26 1376.28
  L 1375.06 1388.57
  A 0.59 0.58 41.0 0 1 1375.12 1389.38
  Q 1361.17 1406.07 1337.99 1405.88
  C 1314.79 1405.68 1295.85 1391.63 1291.60 1368.50
  C 1286.38 1340.03 1304.62 1311.01 1335.51 1311.14
  Q 1362.18 1311.24 1374.05 1333.49
  C 1379.14 1343.01 1380.91 1356.03 1379.81 1366.95
  A 0.41 0.40 2.2 0 1 1379.40 1367.32
  L 1317.11 1367.34
  A 0.51 0.50 84.3 0 0 1316.62 1367.95
  C 1319.27 1380.36 1329.03 1385.98 1341.45 1385.01
  Q 1351.61 1384.21 1360.12 1376.30
  Z
  M 1316.68 1351.16
  L 1354.58 1351.16
  A 0.04 0.04 0.0 0 0 1354.62 1351.12
  L 1354.62 1351.04
  A 19.26 18.99 -90.0 0 0 1335.63 1331.78
  A 19.26 18.99 -90.0 0 0 1316.64 1351.04
  L 1316.64 1351.12
  A 0.04 0.04 0.0 0 0 1316.68 1351.16
  Z"
/>
<path fill="#294775" d="
  M 1017.50 1373.37
  Q 1017.54 1373.37 1017.56 1373.35
  A 0.23 0.11 -19.8 0 0 1017.66 1373.26
  L 1037.94 1313.14
  A 0.44 0.44 0.0 0 1 1038.36 1312.84
  L 1064.80 1312.84
  A 0.24 0.24 0.0 0 1 1065.02 1313.16
  L 1029.32 1404.17
  A 0.48 0.47 -78.9 0 1 1028.89 1404.47
  Q 1023.02 1404.47 1017.47 1404.46
  Q 1011.93 1404.46 1006.06 1404.45
  A 0.48 0.47 79.0 0 1 1005.63 1404.15
  L 970.07 1313.09
  A 0.24 0.24 0.0 0 1 970.29 1312.77
  L 996.73 1312.81
  A 0.44 0.44 0.0 0 1 997.15 1313.11
  L 1017.34 1373.26
  A 0.23 0.11 19.8 0 0 1017.43 1373.35
  Q 1017.46 1373.37 1017.50 1373.37
  Z"
/>
</svg>
