<?xml version="1.0" encoding="UTF-8"?> <svg xmlns="http://www.w3.org/2000/svg" version="1.1" viewBox="56.55 1017.51 3262.45 1341.34"><path d="M 1689.246 1506.750 L 1689.500 1642.500 1718.250 1642.765 C 1734.063 1642.911, 1747.002 1642.686, 1747.004 1642.265 C 1747.006 1641.844, 1747.118 1580.637, 1747.254 1506.250 L 1747.500 1371 1718.246 1371 L 1688.993 1371 1689.246 1506.750 M 1972.015 1505.750 C 1972.024 1579.862, 1972.392 1641.070, 1972.834 1641.766 C 1973.458 1642.749, 1979.990 1642.972, 2002.069 1642.766 L 2030.500 1642.500 2030.782 1630.691 L 2031.064 1618.882 2037.782 1625.087 C 2054.142 1640.197, 2071.632 1647, 2094.117 1647 C 2100.622 1647, 2112.807 1644.695, 2121.399 1641.839 C 2142.247 1634.909, 2159.678 1619.593, 2170.665 1598.550 L 2174.829 1590.573 2175.455 1594.537 C 2177.247 1605.884, 2182.322 1616.596, 2189.972 1625.180 C 2214.893 1653.140, 2267.466 1654.444, 2298.213 1627.865 L 2303.927 1622.926 2304.213 1632.713 L 2304.500 1642.500 2332.250 1642.766 L 2360 1643.032 2360 1577.647 C 2360 1507.931, 2359.717 1503.002, 2354.893 1488.682 C 2349.591 1472.944, 2336.633 1457.638, 2322.419 1450.324 C 2313.541 1445.755, 2308.155 1443.877, 2296.500 1441.287 C 2284.375 1438.592, 2252.722 1438.900, 2236.500 1441.870 C 2224.621 1444.046, 2195.564 1453.121, 2193.355 1455.346 C 2192.493 1456.214, 2193.970 1461.891, 2199.315 1478.250 C 2206.790 1501.131, 2207.091 1501.627, 2211.940 1499.032 C 2215.284 1497.243, 2231.425 1492.882, 2240 1491.452 C 2244.675 1490.673, 2253.675 1490.043, 2260 1490.053 C 2288.552 1490.096, 2300.018 1497.615, 2303.360 1518.486 L 2304.750 1527.168 2302.625 1526.536 C 2276.088 1518.648, 2247.315 1517.314, 2225.500 1522.961 C 2209.982 1526.978, 2194.912 1535.996, 2187.503 1545.700 L 2184 1550.288 2183.994 1540.394 C 2183.976 1509.436, 2173.046 1481.822, 2153.340 1462.949 C 2141.945 1452.036, 2134.028 1447.139, 2120.354 1442.546 C 2108.936 1438.711, 2101.060 1437.682, 2087.598 1438.267 C 2066.729 1439.174, 2051.474 1446.186, 2037.219 1461.425 L 2031 1468.073 2031 1419.537 L 2031 1371 2001.500 1371 L 1972 1371 1972.015 1505.750 M 2373.246 1506.750 L 2373.500 1642.500 2402.500 1642.500 L 2431.500 1642.500 2431.754 1506.750 L 2432.007 1371 2402.500 1371 L 2372.993 1371 2373.246 1506.750 M 1545.500 1376.613 C 1517.655 1380.657, 1491.467 1392.285, 1472.404 1409.069 C 1449.193 1429.504, 1434.093 1455.562, 1428.002 1485.688 C 1425.736 1496.897, 1425.195 1525.874, 1427.079 1535.174 C 1433.162 1565.212, 1442.259 1584.580, 1459.407 1604 C 1472.881 1619.260, 1494.326 1633.173, 1514 1639.418 C 1527.347 1643.655, 1528.010 1643.832, 1537 1645.570 C 1566.156 1651.205, 1604.892 1646.086, 1632.580 1632.939 C 1646.344 1626.404, 1661.960 1616.672, 1673.758 1607.277 L 1676.017 1605.479 1675.758 1548.489 L 1675.500 1491.500 1618.250 1491.242 L 1561 1490.984 1561 1516.492 L 1561 1542 1589.522 1542 L 1618.044 1542 1617.772 1560.737 L 1617.500 1579.474 1608.812 1583.762 C 1583.839 1596.088, 1551.466 1596.693, 1529.624 1585.242 C 1508.103 1573.959, 1494.299 1555.040, 1489.435 1530.162 C 1486.473 1515.014, 1487.889 1495.179, 1492.979 1480.510 C 1498.175 1465.536, 1513.478 1447.333, 1527.119 1439.899 C 1536.920 1434.558, 1550.583 1430.985, 1561.178 1430.993 C 1584.796 1431.011, 1602.623 1436.997, 1621.983 1451.408 C 1629.073 1456.687, 1629.555 1456.888, 1631.167 1455.239 C 1635.453 1450.858, 1665.971 1413.389, 1665.977 1412.500 C 1665.993 1410.362, 1645.900 1396.694, 1634.500 1391.088 C 1612.369 1380.204, 1597.553 1376.951, 1568 1376.485 C 1557.275 1376.315, 1547.150 1376.373, 1545.500 1376.613 M 1843.500 1439.018 C 1814.285 1443.509, 1784.882 1462.057, 1769.739 1485.549 C 1759.977 1500.694, 1755.813 1511.699, 1753.327 1528.931 C 1748.662 1561.254, 1760.067 1594.411, 1783.636 1617.054 C 1799.999 1632.774, 1816.144 1640.834, 1841.558 1645.971 C 1854.479 1648.583, 1867.373 1648.572, 1880.343 1645.936 C 1921.834 1637.504, 1948.936 1615.175, 1964.695 1576.437 C 1967.517 1569.501, 1969.272 1558.688, 1969.717 1545.500 C 1970.254 1529.594, 1968.138 1516.107, 1963.427 1505.401 C 1958.423 1494.031, 1957.613 1492.449, 1953.425 1485.878 C 1938.059 1461.764, 1908.732 1443.283, 1879.004 1438.981 C 1871.427 1437.884, 1850.735 1437.906, 1843.500 1439.018 M 1854 1489.151 C 1850.425 1489.508, 1846.150 1490.236, 1844.500 1490.768 C 1828.222 1496.014, 1816.150 1509.434, 1811.906 1527 C 1809.960 1535.056, 1810.203 1552.186, 1812.367 1559.500 C 1818.865 1581.461, 1839.414 1597.043, 1861.799 1596.985 C 1880.835 1596.936, 1897.400 1587.072, 1905.535 1570.941 C 1910.401 1561.292, 1911.921 1554.679, 1911.964 1542.960 C 1912.006 1531.874, 1910.249 1524.123, 1905.806 1515.787 C 1895.595 1496.630, 1876.641 1486.884, 1854 1489.151 M 2064 1490.002 C 2046.786 1495.237, 2034.642 1510.726, 2031.168 1531.878 C 2026.544 1560.026, 2040.668 1587.544, 2063.351 1594.580 C 2080.232 1599.816, 2097.939 1595.443, 2109.989 1583.061 C 2120.078 1572.694, 2125.083 1559.309, 2125.083 1542.696 C 2125.083 1517.380, 2113.657 1498.392, 2093.908 1490.888 C 2085.922 1487.854, 2072.382 1487.453, 2064 1490.002 M 2262.500 1555.645 C 2251.111 1556.958, 2243.851 1559.828, 2238.229 1565.240 C 2233.650 1569.649, 2232 1574.014, 2232 1581.721 C 2232 1599.171, 2246.108 1607.907, 2269.582 1604.990 C 2279.708 1603.731, 2286.899 1601.094, 2292.901 1596.436 C 2301.102 1590.071, 2305 1581.213, 2305 1568.940 C 2305 1562.562, 2304.869 1562.191, 2302.250 1561.165 C 2290.267 1556.470, 2274.428 1554.271, 2262.500 1555.645 M 1011.131 1577.483 C 989.036 1582.479, 968.925 1601.693, 960.475 1625.877 C 957.465 1634.493, 955 1648.233, 955.001 1656.381 C 955.003 1663.628, 957.155 1676.497, 959.535 1683.500 C 966.573 1704.202, 984.277 1721.217, 1002.776 1725.057 C 1011.109 1726.787, 1026.111 1725.774, 1033.500 1722.982 C 1055.602 1714.631, 1073.928 1691.404, 1079.412 1664.792 C 1085.088 1637.243, 1076.906 1608.615, 1058.277 1590.846 C 1045.903 1579.043, 1027.411 1573.801, 1011.131 1577.483 M 859.088 1622.051 C 840.798 1626.841, 822.485 1642.272, 813.459 1660.500 C 806.953 1673.638, 805.648 1679.901, 806.268 1695 C 807.119 1715.715, 812.601 1728.792, 826.034 1742.146 C 852.202 1768.161, 893.027 1765.695, 919.794 1736.483 C 943.875 1710.203, 944.314 1666.200, 920.752 1640.419 C 904.865 1623.036, 881.689 1616.133, 859.088 1622.051 M 711 1651.955 C 686.845 1656.526, 666.457 1674.931, 659.439 1698.500 C 656.968 1706.802, 656.945 1725.256, 659.396 1733.500 C 662.599 1744.275, 667.856 1752.902, 676.543 1761.639 C 683.275 1768.410, 686.221 1770.539, 694.067 1774.305 C 705.221 1779.658, 711.066 1781.012, 722.799 1780.964 C 751.707 1780.846, 774.392 1763.640, 784.188 1734.402 C 787.472 1724.599, 787.447 1707.565, 784.134 1697.500 C 780.289 1685.819, 776.156 1679.084, 767.537 1670.453 C 758.611 1661.516, 749.819 1656.285, 739.057 1653.508 C 731.426 1651.539, 717.323 1650.758, 711 1651.955 M 198.175 1670.506 C 194.244 1673.814, 192.582 1680.679, 192.608 1693.500 C 192.631 1704.625, 194.841 1714.303, 200.678 1728.839 C 207.737 1746.418, 217.599 1755.544, 223.523 1749.979 C 227.867 1745.897, 229.294 1739.246, 228.742 1725.640 C 227.850 1703.649, 220.306 1682.236, 210.079 1672.671 C 204.385 1667.344, 202.369 1666.978, 198.175 1670.506 M 561 1671.515 C 544.472 1675.566, 531.948 1685.239, 524.055 1700.048 C 519.888 1707.866, 518 1715.959, 518 1726 C 518 1743.139, 523.815 1756.839, 536.481 1769.543 C 544.681 1777.768, 549.312 1780.899, 559 1784.768 C 572.934 1790.333, 589.322 1791.597, 600.168 1787.943 C 616.160 1782.556, 628.987 1769.005, 634.665 1751.500 C 639.768 1735.765, 637.852 1718.597, 629.253 1703 C 624.023 1693.512, 612.372 1682.312, 602.942 1677.707 C 588.476 1670.643, 573.548 1668.439, 561 1671.515 M 250.001 1676.123 C 241.505 1679.511, 237.033 1690.191, 237.012 1707.138 C 236.979 1734.019, 253.985 1763.625, 271.646 1767.435 C 280.977 1769.447, 289.674 1759.059, 291.832 1743.324 C 293.532 1730.925, 289.146 1710.559, 281.814 1696.802 C 273.520 1681.241, 259.698 1672.257, 250.001 1676.123 M 430.270 1678.992 C 423.059 1680.521, 417.694 1683.463, 411.264 1689.416 C 401.321 1698.622, 397.033 1709.586, 397.012 1725.856 C 396.989 1743.661, 402.572 1757.435, 415.102 1770.486 C 424.405 1780.176, 434.212 1785.797, 446.652 1788.568 C 453.119 1790.009, 455.603 1790.128, 460.765 1789.245 C 478.585 1786.199, 491.925 1774.076, 496.619 1756.664 C 498.542 1749.528, 498.475 1734.639, 496.485 1726.868 C 491.383 1706.946, 474.702 1687.999, 456.421 1681.364 C 449.233 1678.755, 436.737 1677.622, 430.270 1678.992 M 324.215 1680.257 C 319.805 1681.670, 312.558 1688.192, 309.389 1693.599 C 297.675 1713.587, 304.197 1747.186, 323.587 1766.749 C 333.155 1776.402, 341.464 1780.495, 351.500 1780.498 C 357.334 1780.500, 359.277 1780.043, 363.166 1777.757 C 379.469 1768.173, 384.518 1746.067, 376.472 1719.500 C 371.351 1702.591, 356.178 1685.107, 342.715 1680.601 C 337.372 1678.813, 329.195 1678.661, 324.215 1680.257 M 1119.248 1964.250 L 1119.500 2240.500 1182.500 2240.500 L 1245.500 2240.500 1245.756 2153.818 L 1246.011 2067.136 1301.256 2066.713 C 1361.511 2066.252, 1362.113 2066.202, 1384 2059.896 C 1406.668 2053.364, 1426.417 2043.698, 1444.540 2030.264 C 1455.404 2022.211, 1477.469 2000.321, 1485.232 1989.895 C 1511.300 1954.882, 1523.437 1915.187, 1521.704 1870.607 C 1519.838 1822.613, 1503.687 1784.019, 1470.433 1748.090 C 1458.357 1735.043, 1434.130 1716.655, 1418.810 1708.909 C 1403.247 1701.040, 1383.271 1694.369, 1367 1691.607 C 1347.753 1688.340, 1336.589 1688.051, 1228.248 1688.026 L 1118.996 1688 1119.248 1964.250 M 1633 1825.016 L 1633 1956.031 1661.250 1955.766 L 1689.500 1955.500 1689.756 1872.602 L 1690.012 1789.703 1702.776 1809.102 C 1709.796 1819.771, 1725.656 1843.901, 1738.020 1862.725 C 1751.933 1883.907, 1761.112 1896.959, 1762.107 1896.975 C 1763.092 1896.990, 1767.714 1890.897, 1774.035 1881.250 C 1779.711 1872.588, 1794.760 1849.750, 1807.477 1830.500 C 1820.194 1811.250, 1831.476 1794.011, 1832.549 1792.191 C 1834.497 1788.888, 1834.501 1789.008, 1835 1872.191 L 1835.500 1955.500 1864.750 1955.765 L 1894 1956.030 1894 1825.015 L 1894 1694 1862.250 1694.041 L 1830.500 1694.081 1822.370 1707.291 C 1809.204 1728.681, 1786.221 1765.736, 1779.620 1776.216 C 1776.254 1781.560, 1771.097 1789.785, 1768.159 1794.495 L 1762.818 1803.058 1754.293 1789.279 C 1749.604 1781.701, 1735.540 1759.075, 1723.039 1739 C 1710.538 1718.925, 1699.228 1700.591, 1697.905 1698.258 L 1695.500 1694.015 1664.250 1694.008 L 1633 1694 1633 1825.016 M 3213.561 1705.703 C 3213.201 1706.639, 3212.975 1718.001, 3213.059 1730.953 L 3213.210 1754.500 3201.605 1754.782 L 3190 1755.063 3189.968 1775.282 L 3189.936 1795.500 3185.546 1786.500 C 3174.256 1763.357, 3153.167 1751, 3124.959 1751 C 3111.480 1751, 3097.686 1755.304, 3086.504 1762.998 C 3081.669 1766.324, 3069 1778.721, 3069 1780.125 C 3069 1780.606, 3068.662 1781, 3068.250 1781.001 C 3067.838 1781.002, 3067.500 1775.264, 3067.500 1768.251 L 3067.500 1755.500 3038.500 1755.500 L 3009.500 1755.500 3009.245 1855.765 L 3008.990 1956.030 3038.245 1955.765 L 3067.500 1955.500 3068 1892.500 C 3068.471 1833.168, 3068.612 1829.238, 3070.426 1825 C 3076.482 1810.846, 3085.902 1804.833, 3102.190 1804.724 C 3110.024 1804.672, 3111.527 1804.985, 3117.435 1807.894 C 3124.653 1811.447, 3127.516 1814.585, 3131.710 1823.542 L 3134.500 1829.500 3135 1892.500 L 3135.500 1955.500 3164.500 1955.500 L 3193.500 1955.500 3193.500 1885.500 C 3193.500 1847, 3193.182 1813.122, 3192.793 1810.217 L 3192.086 1804.933 3202.585 1805.217 L 3213.084 1805.500 3213.034 1850 C 3212.974 1904.456, 3213.780 1917.119, 3217.974 1927.594 C 3226.282 1948.342, 3238.192 1956.544, 3263.508 1958.951 C 3281.518 1960.663, 3298.621 1957.707, 3313.250 1950.354 L 3318 1947.966 3318 1924.483 C 3318 1900.755, 3317.719 1898.962, 3314.450 1901.835 C 3312.508 1903.541, 3304.270 1905.987, 3297 1907.016 C 3284.512 1908.784, 3277.579 1906.723, 3274.385 1900.294 C 3272.635 1896.771, 3272.480 1893.234, 3272.221 1850.750 L 3271.942 1805 3295.471 1805 L 3319 1805 3319 1780 L 3319 1755 3295.500 1755 L 3272 1755 3272 1729.500 L 3272 1704 3243.107 1704 C 3216.819 1704, 3214.155 1704.154, 3213.561 1705.703 M 1990.820 1752.932 C 1981.135 1754.800, 1975.255 1756.353, 1971.500 1758.036 C 1970.400 1758.529, 1966.927 1760.041, 1963.782 1761.397 C 1960.637 1762.752, 1955.012 1765.839, 1951.282 1768.257 C 1917.128 1790.392, 1898.889 1827.297, 1902.894 1866.162 C 1907.280 1908.719, 1934.959 1942.475, 1976.134 1955.482 C 1986.668 1958.810, 1994.991 1960.161, 2008.452 1960.727 C 2018.936 1961.168, 2022.091 1960.819, 2038.029 1957.455 C 2075.265 1949.595, 2106.626 1919.505, 2117.162 1881.528 C 2119.675 1872.472, 2120.710 1849.487, 2119.078 1839 C 2116.639 1823.327, 2108.793 1805.436, 2098.438 1791.936 C 2084.543 1773.822, 2060.668 1758.951, 2037.500 1753.981 C 2023.252 1750.924, 2003.537 1750.481, 1990.820 1752.932 M 2382.215 1752.547 C 2345.802 1759.200, 2318.591 1782.667, 2305.739 1818.500 C 2297.815 1840.594, 2297.470 1870.612, 2304.891 1892.182 C 2319.450 1934.501, 2358.280 1961.072, 2405.426 1960.980 C 2427.733 1960.937, 2449.402 1954.386, 2465.954 1942.682 C 2472.088 1938.344, 2487 1924.359, 2487 1922.944 C 2487 1922.578, 2479.556 1915.685, 2470.458 1907.627 L 2453.916 1892.977 2447.780 1897.942 C 2440.245 1904.038, 2429.635 1909.458, 2421 1911.620 C 2410.837 1914.165, 2392.455 1913.140, 2384.500 1909.586 C 2375.899 1905.743, 2371.636 1902.524, 2366.979 1896.357 C 2363.441 1891.670, 2358 1879.927, 2358 1876.977 C 2358 1876.350, 2382.721 1876, 2426.941 1876 C 2474.452 1876, 2496.086 1875.670, 2496.537 1874.939 C 2497.773 1872.941, 2497.087 1846.505, 2495.579 1837.987 C 2488.944 1800.506, 2471.749 1775.104, 2443.412 1760.920 C 2426.001 1752.206, 2402.034 1748.926, 2382.215 1752.547 M 2598.500 1753.611 C 2586.455 1756.910, 2577.350 1762.446, 2567.250 1772.611 L 2559 1780.914 2559 1767.957 L 2559 1755 2530 1755 L 2501 1755 2501 1855.500 L 2501 1956 2530 1956 L 2559 1956 2559 1899.072 C 2559 1840.529, 2559.516 1830.627, 2562.992 1822.519 C 2568.535 1809.588, 2582.859 1802.454, 2598.253 1804.960 C 2609.111 1806.727, 2615.547 1811.533, 2620.575 1821.629 L 2623.500 1827.500 2623.750 1889.500 C 2623.888 1923.600, 2624.234 1952.513, 2624.519 1953.750 L 2625.038 1956 2654.019 1956 L 2683 1956 2683 1899.041 C 2683 1862.065, 2683.395 1839.348, 2684.127 1834.291 C 2686.939 1814.854, 2698.073 1804.667, 2716.500 1804.671 C 2731.491 1804.675, 2740.231 1810.576, 2745.867 1824.500 C 2747.280 1827.991, 2747.551 1836.577, 2747.993 1892 L 2748.500 1955.500 2777.750 1955.765 L 2807 1956.030 2807 1884.622 C 2807 1808.078, 2806.877 1805.891, 2801.766 1791.500 C 2796.981 1778.028, 2786.441 1765.706, 2774.062 1759.112 C 2753.793 1748.315, 2722.472 1748.558, 2701.500 1759.676 C 2693.249 1764.051, 2687.878 1768.006, 2680.374 1775.234 L 2673.247 1782.098 2670.679 1777.716 C 2667.006 1771.448, 2656.518 1762.042, 2648.971 1758.246 C 2634.614 1751.025, 2614.640 1749.191, 2598.500 1753.611 M 2890.215 1752.486 C 2866.194 1757.078, 2847.126 1768.123, 2832.629 1785.843 C 2822.077 1798.740, 2815.460 1812.043, 2810.912 1829.500 C 2808.867 1837.349, 2808.569 1840.803, 2808.587 1856.500 C 2808.604 1872.655, 2808.875 1875.536, 2811.232 1884.614 C 2819.877 1917.921, 2842.473 1942.676, 2875 1954.472 C 2908.116 1966.482, 2949.383 1961.294, 2975.767 1941.803 C 2983.139 1936.357, 2995.197 1924.190, 2994.813 1922.585 C 2994.552 1921.497, 2977.480 1905.900, 2965.453 1895.761 L 2962.203 1893.022 2956.852 1897.426 C 2949.274 1903.661, 2940.758 1908.211, 2931.594 1910.918 C 2924.579 1912.991, 2922.269 1913.198, 2911.094 1912.753 C 2899.718 1912.300, 2897.844 1911.952, 2891.720 1909.154 C 2879.758 1903.689, 2872.897 1895.644, 2867.922 1881.250 L 2866.108 1876 2935.474 1876 L 3004.841 1876 3005.556 1869.321 C 3007.595 1850.285, 3001.783 1819.346, 2992.848 1801.662 C 2988.462 1792.983, 2981.489 1783.788, 2973.598 1776.278 C 2961.260 1764.537, 2947.389 1757.123, 2931 1753.509 C 2920.747 1751.248, 2899.479 1750.715, 2890.215 1752.486 M 2105 1756.033 C 2105 1757.014, 2107.889 1764.552, 2123.960 1805.500 C 2127.197 1813.750, 2133.278 1829.275, 2137.473 1840 C 2141.667 1850.725, 2147.300 1865.125, 2149.989 1872 C 2152.678 1878.875, 2157.398 1891.025, 2160.478 1899 C 2163.557 1906.975, 2166.506 1914.400, 2167.032 1915.500 C 2167.558 1916.600, 2169.764 1922.225, 2171.934 1928 C 2174.105 1933.775, 2177.600 1942.775, 2179.701 1948 L 2183.521 1957.500 2209.010 1957.744 C 2223.030 1957.878, 2234.971 1957.653, 2235.547 1957.244 C 2236.123 1956.835, 2238.535 1951.550, 2240.908 1945.500 C 2243.280 1939.450, 2248.491 1926.175, 2252.489 1916 C 2260.146 1896.508, 2270.062 1871.183, 2279.507 1847 C 2286.687 1828.613, 2296.661 1803.191, 2306.949 1777.049 C 2311.375 1765.800, 2314.631 1756.231, 2314.183 1755.783 C 2313.735 1755.335, 2300.124 1755.089, 2283.935 1755.235 L 2254.500 1755.500 2250.943 1766 C 2226.411 1838.415, 2219.871 1857.787, 2215.500 1870.987 L 2210.372 1886.475 2208.621 1881.487 C 2207.659 1878.744, 2197.759 1849.275, 2186.623 1816 L 2166.375 1755.500 2135.687 1755.236 C 2114.537 1755.053, 2105 1755.301, 2105 1756.033 M 756.633 1795.785 C 756.364 1796.220, 755.416 1806.459, 754.525 1818.538 C 753.635 1830.617, 752.492 1845.675, 751.985 1852 C 750.767 1867.197, 748.545 1897.704, 746.014 1934 C 741.142 2003.843, 734.830 2090.476, 733.464 2106.250 L 732.879 2113 820.979 2113 C 876.926 2113, 912.623 2113.391, 918.789 2114.072 C 946.317 2117.109, 965.551 2130.899, 973.088 2153 C 976.097 2161.824, 976.849 2179.711, 974.612 2189.250 C 969.855 2209.534, 953.233 2225.813, 931.500 2231.472 C 911.084 2236.788, 882.055 2235.541, 863.524 2228.551 C 851.149 2223.883, 844.021 2219.244, 834.719 2209.804 C 826.862 2201.830, 825.337 2199.639, 820.219 2188.971 C 817.074 2182.414, 814.183 2177.038, 813.796 2177.025 C 813.155 2177.002, 807.367 2180.320, 772 2200.987 C 765.675 2204.683, 753.975 2211.467, 746 2216.064 C 722.902 2229.376, 708.651 2237.761, 706.575 2239.262 C 704.699 2240.617, 704.731 2240.827, 707.791 2247.367 C 724.562 2283.206, 748.500 2309.939, 780.416 2328.472 C 813.435 2347.646, 848.594 2357.078, 893 2358.673 C 925.751 2359.850, 957.471 2355.178, 984.680 2345.170 C 1016.816 2333.350, 1047.749 2311.811, 1067.051 2287.815 C 1085.959 2264.309, 1097.127 2237.793, 1102.144 2204.500 C 1104.148 2191.199, 1103.884 2153.527, 1101.687 2139.346 C 1099.503 2125.250, 1094.157 2105.657, 1089.227 2093.685 C 1074.664 2058.315, 1044.821 2027.588, 1007.500 2009.536 C 974.664 1993.654, 949.121 1989.029, 894.135 1989.009 L 869.770 1989 870.387 1983.750 C 871.018 1978.394, 873.407 1946.542, 874.532 1928.500 C 874.875 1923, 875.376 1917.713, 875.645 1916.750 C 876.107 1915.098, 881.747 1915, 976.075 1915 L 1076.016 1915 1075.758 1855.250 L 1075.500 1795.500 916.311 1795.247 C 828.757 1795.108, 756.902 1795.350, 756.633 1795.785 M 2391.186 1799.118 C 2374.579 1801.881, 2362.553 1815.180, 2357.607 1836.250 L 2356.962 1839 2398.418 1839 L 2439.874 1839 2439.296 1835.250 C 2437.868 1825.991, 2430.528 1812.146, 2424.243 1806.858 C 2419.565 1802.922, 2413.234 1800.214, 2406 1799.056 C 2398.715 1797.889, 2398.566 1797.890, 2391.186 1799.118 M 2898.389 1799.488 C 2890.362 1801.235, 2885.455 1803.835, 2880.167 1809.147 C 2874.891 1814.447, 2871.408 1820.193, 2868.329 1828.676 C 2864.171 1840.129, 2859.900 1839, 2907.372 1839 L 2948.744 1839 2946.841 1831.907 C 2944.238 1822.201, 2940.660 1815.395, 2935.149 1809.669 C 2929.483 1803.782, 2924.848 1801.288, 2916.144 1799.443 C 2908.186 1797.756, 2906.330 1797.761, 2898.389 1799.488 M 1997.221 1803.523 C 1984.838 1806.212, 1973.457 1815.036, 1967.178 1826.817 C 1963.101 1834.466, 1961.180 1841.691, 1960.405 1852.287 C 1958.118 1883.575, 1981.317 1910, 2011.074 1910 C 2041.755 1910, 2062 1888.695, 2062 1856.407 C 2062 1839.828, 2057.299 1827.464, 2046.979 1816.905 C 2034.650 1804.289, 2016.352 1799.368, 1997.221 1803.523 M 1246 1878.053 L 1246 1948.107 1293.750 1947.777 C 1340.466 1947.455, 1341.649 1947.398, 1348.361 1945.149 C 1369.964 1937.913, 1385.890 1920.552, 1392.127 1897.442 C 1394.950 1886.983, 1395.148 1869.597, 1392.559 1859.500 C 1385.942 1833.690, 1368.029 1814.993, 1344.634 1809.476 C 1339.751 1808.325, 1329.068 1808.027, 1292.250 1808.015 L 1246 1808 1246 1878.053 M 236.655 1827.829 C 231.420 1833.613, 240.155 1858.283, 254.052 1876.964 C 261.987 1887.629, 272.252 1897, 276.001 1897 C 289.959 1897, 273.749 1855.647, 251.208 1833.750 C 242.756 1825.539, 239.811 1824.341, 236.655 1827.829 M 587 1832.618 C 581.467 1833.686, 571.338 1837.304, 567.376 1839.626 C 558.688 1844.717, 551.206 1855.133, 548.414 1866.025 C 545.217 1878.496, 548.026 1890.891, 557.139 1904.515 C 563.555 1914.108, 571.529 1921.158, 581.500 1926.053 C 591.665 1931.043, 599.189 1933.029, 610.500 1933.707 C 621.609 1934.372, 628.780 1932.976, 638.038 1928.345 C 650.903 1921.909, 659.802 1910.025, 662.191 1896.089 C 663.252 1889.902, 663.192 1887.722, 661.766 1880.828 C 659.886 1871.737, 654.429 1861.243, 647.408 1853.216 C 636.644 1840.911, 618.894 1833.155, 600 1832.499 C 594.225 1832.299, 588.375 1832.352, 587 1832.618 M 283.314 1834.950 C 281.561 1836.019, 279.712 1837.705, 279.203 1838.696 C 272.993 1850.808, 283.953 1878.767, 302.033 1896.936 C 311.469 1906.420, 320.885 1912, 327.450 1912 C 335.514 1912, 339.467 1903.217, 337.037 1890.702 C 332.801 1868.896, 315.851 1845.692, 297.770 1836.948 C 288.406 1832.420, 287.638 1832.314, 283.314 1834.950 M 356.646 1839.096 C 350.792 1840.488, 347.003 1843.752, 344.242 1849.783 C 341.982 1854.720, 341.791 1856.127, 342.266 1864.373 C 342.630 1870.708, 343.498 1875.183, 345.103 1879 C 356.152 1905.284, 379.081 1924, 400.231 1924 C 407.043 1924, 410.495 1922.478, 414.797 1917.578 C 422.352 1908.974, 421.663 1894.240, 412.882 1876.643 C 408.269 1867.399, 406.927 1865.548, 398.962 1857.444 C 392.954 1851.331, 380.439 1843.116, 373.348 1840.632 C 367.731 1838.665, 361.045 1838.050, 356.646 1839.096 M 454.081 1840.588 C 441.139 1844.068, 433.453 1852.877, 430.527 1867.584 C 429.607 1872.211, 432.722 1885.499, 436.469 1892.929 C 448.963 1917.705, 471.337 1932, 497.622 1932 C 512.502 1932, 522.209 1926.415, 528.090 1914.470 C 530.838 1908.887, 531.263 1906.971, 531.263 1900.166 C 531.263 1885.441, 525.714 1873.683, 512.521 1860.453 C 505.212 1853.123, 501.742 1850.503, 494.233 1846.647 C 480.058 1839.368, 466.328 1837.296, 454.081 1840.588 M 313.518 1959.943 C 311.484 1966.352, 336.092 1994.454, 355.571 2007.967 C 370.460 2018.295, 372.267 2014.777, 360.283 1998.793 C 350.604 1985.883, 334.028 1969.446, 324.147 1962.959 C 315.798 1957.479, 314.424 1957.089, 313.518 1959.943 M 350.985 1968.015 C 348.702 1970.298, 348.990 1972.887, 352.264 1979.500 C 360.372 1995.877, 385.443 2018.507, 402.655 2024.985 C 410.419 2027.907, 413.371 2027.027, 413.815 2021.655 C 414.828 2009.404, 389.625 1980.996, 367.521 1969.475 C 359.694 1965.395, 354.099 1964.901, 350.985 1968.015 M 614 1968.814 C 591.426 1974.715, 581.927 1993.939, 592.125 2013.088 C 596.667 2021.618, 606.851 2031.637, 615.562 2036.146 C 628.191 2042.684, 644.994 2045.931, 656.754 2044.106 C 671.811 2041.770, 682.376 2035.062, 687.503 2024.583 C 690.489 2018.481, 691.150 2008.049, 688.975 2001.377 C 684.770 1988.481, 665.616 1973.015, 648.356 1968.579 C 640.094 1966.456, 622.563 1966.576, 614 1968.814 M 412.378 1972.437 C 405.252 1975.538, 403.904 1983.812, 408.957 1993.419 C 415.810 2006.446, 427.405 2018.228, 442.012 2027.007 C 453.653 2034.004, 460.075 2036.260, 468.725 2036.391 C 475.589 2036.495, 476.112 2036.339, 479.167 2033.289 C 483.721 2028.743, 483.573 2022.562, 478.676 2012.674 C 466.317 1987.720, 429.126 1965.148, 412.378 1972.437 M 504.500 1972.958 C 493.546 1975.299, 488.004 1979.559, 485.940 1987.224 C 484.449 1992.758, 485.498 1998.843, 489.133 2005.753 C 500.003 2026.418, 522.347 2040.564, 548.854 2043.563 C 555.845 2044.354, 564.776 2042.128, 569.759 2038.353 C 577.767 2032.287, 579.428 2020.179, 573.798 2008.912 C 569.915 2001.141, 557.228 1988.101, 548.659 1983.073 C 535.792 1975.523, 514.896 1970.737, 504.500 1972.958 M 418.836 2050.134 C 415.134 2051.489, 414.679 2053.486, 416.918 2058.547 C 420.631 2066.941, 443.812 2081.559, 464.432 2088.509 C 485.179 2095.502, 490.874 2091.059, 478.199 2077.769 C 468.106 2067.187, 451.832 2057.583, 434.738 2052.120 C 424.303 2048.785, 422.972 2048.619, 418.836 2050.134 M 493.829 2069.838 C 491.193 2071.154, 490.433 2072.203, 490.177 2074.873 C 489.895 2077.823, 490.529 2078.899, 495.228 2083.450 C 508.451 2096.258, 534.881 2109.467, 551.420 2111.533 C 560.931 2112.722, 562.471 2109.306, 556.073 2101.211 C 548.078 2091.098, 528.531 2078.531, 512.500 2073.199 C 496.347 2067.827, 497.456 2068.026, 493.829 2069.838 M 562.896 2072.511 C 550.804 2075.826, 549.099 2079.791, 555.572 2089.542 C 565.214 2104.069, 592.279 2117, 613.040 2117 C 619.363 2117, 621.297 2116.601, 624.089 2114.719 C 629.145 2111.312, 629.872 2108.133, 626.999 2101.997 C 620.687 2088.522, 600.799 2076.481, 578.372 2072.558 C 568.366 2070.808, 569.097 2070.810, 562.896 2072.511" stroke="none" fill="#2b4473" fill-rule="evenodd"></path><path d="M 627.500 1017.632 C 567.838 1019.542, 514.198 1029.043, 458.554 1047.556 C 396.570 1068.179, 337.860 1098.717, 287.927 1136.310 C 263.757 1154.508, 254.375 1162.629, 231.155 1185.451 C 189.988 1225.916, 159.356 1265.779, 129.926 1317.190 C 110.231 1351.595, 97.302 1381.514, 80.526 1431.500 C 75.053 1447.808, 65.952 1487.644, 62.522 1510.301 C 57.433 1543.919, 56.605 1556.016, 56.551 1597.500 C 56.499 1637.093, 56.964 1645.270, 61.059 1676.823 C 66.858 1721.500, 81.068 1774.200, 98.992 1817.500 C 135.586 1905.899, 191.606 1981.673, 266.500 2044.074 C 335.678 2101.713, 414.219 2141.250, 505.500 2164.386 C 524.389 2169.173, 569.939 2176.484, 597.500 2179.153 C 614.776 2180.825, 677.246 2180.842, 695.500 2179.179 C 733.904 2175.680, 776.400 2167.916, 808.609 2158.513 C 829.029 2152.552, 861 2141.143, 861 2139.817 C 861 2138.603, 860.148 2138.739, 847.818 2141.916 C 823.019 2148.305, 774.615 2155.576, 741.230 2157.925 C 700.090 2160.821, 651.224 2158.252, 607.500 2150.896 C 543.193 2140.077, 477.003 2115.762, 416.500 2080.733 C 342.349 2037.801, 280.622 1982.452, 234.457 1917.500 C 191.055 1856.437, 160.143 1784.799, 142.112 1703.500 C 126.986 1635.295, 126.416 1553.115, 140.582 1483 C 160.134 1386.230, 200.786 1301.488, 262.909 1228 C 282.806 1204.463, 317.256 1170.675, 341.500 1150.921 C 419.905 1087.033, 510.341 1046.625, 613.018 1029.602 C 631.633 1026.515, 660.228 1023.289, 676 1022.495 C 690.733 1021.753, 696.165 1021.075, 695.536 1020.058 C 694.751 1018.788, 645.846 1017.045, 627.500 1017.632 M 629.333 1106.524 C 607.419 1112.430, 589.634 1126.768, 579.718 1146.522 C 573.463 1158.984, 571.331 1172.069, 574.370 1179.343 C 576.141 1183.581, 582.922 1189.360, 587.858 1190.839 C 606.952 1196.560, 634.964 1178.825, 648.177 1152.650 C 651.531 1146.006, 655 1133.483, 655 1128.022 C 655 1117.549, 649.160 1108.033, 641.558 1106.119 C 636.171 1104.763, 635.827 1104.774, 629.333 1106.524 M 548.852 1113.370 C 527.086 1122.324, 510.469 1137.951, 500.843 1158.522 C 491.414 1178.671, 500.646 1192.524, 520.179 1187.539 C 536.645 1183.336, 555.116 1166.152, 565.904 1145 C 572.113 1132.827, 573.677 1126.491, 571.976 1120.415 C 569.364 1111.085, 560.772 1108.467, 548.852 1113.370 M 482.776 1124.479 C 473.753 1126.963, 457.985 1137.016, 449.305 1145.819 C 430.761 1164.627, 423.069 1184.928, 431.913 1191.718 C 432.786 1192.388, 435.525 1192.946, 438 1192.958 C 453.126 1193.032, 481.246 1168.501, 492.399 1145.500 C 498.284 1133.364, 498.031 1127.164, 491.538 1124.452 C 489.628 1123.653, 487.937 1123.040, 487.782 1123.089 C 487.627 1123.139, 485.374 1123.764, 482.776 1124.479 M 412.500 1137.797 C 393.549 1144.359, 364 1176.132, 364 1189.947 C 364 1197.404, 369.097 1198.820, 378.590 1193.999 C 397.903 1184.192, 424.935 1152.924, 424.994 1140.321 C 425.004 1138.402, 422.023 1135.998, 419.679 1136.033 C 418.480 1136.051, 415.250 1136.844, 412.500 1137.797 M 760.953 1183.883 C 752.657 1186.604, 744.699 1194.629, 739.516 1205.500 C 735.245 1214.461, 733.704 1222.020, 733.606 1234.500 C 733.466 1252.474, 738.682 1265.795, 750.452 1277.522 C 764.707 1291.724, 780.127 1295.341, 795.586 1288.107 C 818.771 1277.257, 824.469 1248.026, 809.385 1217.311 C 803.683 1205.701, 791.366 1192.073, 782.122 1187.146 C 775.715 1183.731, 765.988 1182.232, 760.953 1183.883 M 672.884 1205.692 C 663.879 1210.194, 652.986 1220.774, 648.310 1229.560 C 644.214 1237.258, 640.403 1250.453, 639.520 1260 C 637.400 1282.905, 651.035 1301.507, 672.505 1305.001 C 691.570 1308.104, 712.327 1292.806, 719.262 1270.542 C 722.147 1261.279, 722.328 1243.480, 719.628 1234.552 C 713.565 1214.505, 700.815 1202, 686.438 1202 C 681.326 1202, 679.003 1202.633, 672.884 1205.692 M 349.793 1214.988 C 333.527 1219.892, 307.760 1247.554, 302.453 1265.810 C 300.310 1273.182, 300.811 1276.002, 304.666 1278.244 L 307.831 1280.085 315.125 1275.793 C 328.996 1267.629, 345.802 1248.561, 354.115 1231.553 C 358.898 1221.770, 359.321 1216.453, 355.435 1214.975 C 354.024 1214.439, 352.787 1214.039, 352.685 1214.086 C 352.583 1214.133, 351.282 1214.539, 349.793 1214.988 M 594 1214.666 C 588.928 1215.698, 575.345 1222.815, 570.284 1227.092 C 560.019 1235.767, 549.693 1251.033, 545.776 1263.326 C 544.455 1267.469, 543.780 1272.514, 543.723 1278.662 C 543.645 1287.063, 543.908 1288.370, 546.883 1294.415 C 552.656 1306.141, 562.761 1311.618, 577.093 1310.788 C 588.177 1310.147, 597.535 1305.432, 607.496 1295.472 C 617.023 1285.945, 622.194 1275.875, 625.198 1261 C 627.114 1251.512, 627.200 1249.681, 626.095 1242 C 624.122 1228.297, 619.990 1221.125, 611.572 1216.797 C 607.654 1214.783, 598.738 1213.701, 594 1214.666 M 386.184 1220.901 C 383.260 1221.911, 377.818 1224.821, 374.092 1227.367 C 354.705 1240.614, 339.276 1263.013, 338.222 1279.443 C 337.801 1286.006, 337.971 1286.895, 340.013 1288.798 C 345.003 1293.446, 352.040 1292.492, 362.047 1285.810 C 375.286 1276.969, 388.380 1261.442, 396.334 1245.151 C 402.433 1232.661, 403.686 1224.686, 400.112 1221.112 C 397.500 1218.500, 393.321 1218.437, 386.184 1220.901 M 509.500 1221.400 C 496.586 1225.487, 483.253 1235.616, 473.395 1248.830 C 459.265 1267.768, 455.040 1283.583, 460.570 1296.824 C 468.027 1314.675, 494.638 1312.582, 514.442 1292.587 C 522.317 1284.635, 529.330 1273.412, 533.553 1262 C 535.899 1255.660, 536.342 1252.876, 536.414 1244 C 536.494 1234.279, 536.297 1233.155, 533.764 1228.846 C 529.144 1220.987, 519.833 1218.129, 509.500 1221.400 M 442 1222.428 C 424.538 1227.274, 405.187 1245.522, 394.204 1267.500 C 386.662 1282.593, 388.673 1297.757, 398.654 1301.051 C 410.570 1304.983, 430.249 1294.329, 443.581 1276.727 C 446.176 1273.302, 450.982 1264.975, 454.262 1258.223 C 459.748 1246.927, 460.261 1245.290, 460.681 1237.723 C 461.074 1230.642, 460.850 1229.045, 459.068 1226.225 C 455.776 1221.015, 450.956 1219.942, 442 1222.428 M 898.500 1280.399 C 891.975 1282.462, 888.693 1284.550, 883.937 1289.663 C 877.984 1296.061, 875.630 1300.079, 872.900 1308.500 C 869.674 1318.452, 869.694 1337.631, 872.943 1350.500 C 878.659 1373.135, 893.674 1393.428, 911.564 1402.694 C 921.922 1408.059, 928.775 1410, 937.366 1410 C 960.828 1410, 977.778 1393.301, 980.562 1367.444 C 982.431 1350.090, 973.009 1324.597, 958.060 1306.560 C 942.025 1287.213, 914.786 1275.248, 898.500 1280.399 M 794 1312.360 C 785.991 1314.540, 779.639 1318.347, 772.922 1324.992 C 765.377 1332.456, 761.750 1338.195, 758.492 1347.826 C 746.398 1383.573, 762.849 1423.119, 794.609 1434.647 C 817.736 1443.042, 841.937 1435.090, 855.061 1414.784 C 864.016 1400.930, 866.206 1381.127, 860.913 1361.868 C 854.851 1339.809, 831.490 1316.433, 811.201 1312.125 C 804.589 1310.721, 799.779 1310.787, 794 1312.360 M 680.553 1336.063 C 665.849 1338.523, 648.089 1353.034, 640.242 1369 C 634.776 1380.121, 632.741 1388.393, 632.741 1399.500 C 632.741 1416.164, 637.848 1428.911, 648.973 1440.013 C 659.683 1450.702, 669.843 1454.967, 684.645 1454.988 C 707.399 1455.021, 728.096 1439.420, 735.704 1416.500 C 737.974 1409.660, 738.363 1406.760, 738.390 1396.500 C 738.442 1376.193, 733.122 1362.191, 720.500 1349.414 C 708.585 1337.352, 696.663 1333.368, 680.553 1336.063 M 255.354 1349.970 C 249.091 1353.562, 239.284 1366.031, 234.330 1376.699 C 227.501 1391.403, 224.771 1410.500, 228.402 1418.153 C 230.299 1422.149, 234.145 1424.400, 237.365 1423.397 C 253.947 1418.229, 274.239 1376.752, 270.149 1356.386 C 268.141 1346.389, 264.415 1344.773, 255.354 1349.970 M 561 1351.825 C 552.696 1354.167, 549.079 1356.041, 540.734 1362.323 C 512.808 1383.346, 505.653 1424.201, 525.880 1447.136 C 538.567 1461.520, 559.577 1465.973, 578 1458.183 C 591.435 1452.501, 602.250 1442.027, 609.042 1428.119 C 612.950 1420.116, 613.739 1417.661, 615.484 1408.066 C 616.717 1401.284, 616.658 1399.796, 614.810 1391.080 C 611.346 1374.743, 607.238 1366.799, 598.263 1359.083 C 588.929 1351.058, 574.016 1348.153, 561 1351.825 M 301.152 1355.752 C 297.746 1357.457, 293.103 1361.301, 288.364 1366.338 C 270.796 1385.013, 262.917 1416.824, 272.115 1431.948 C 274.470 1435.821, 279.603 1438.994, 283.500 1438.986 C 287.869 1438.978, 296.206 1434.773, 301.465 1429.926 C 318.137 1414.558, 329.285 1380.931, 323.416 1363.708 C 319.908 1353.411, 311.691 1350.475, 301.152 1355.752 M 457 1357.314 C 447.119 1360.162, 438.697 1365.304, 430.486 1373.500 C 419.041 1384.925, 413.822 1395.883, 411.019 1414.377 C 406.816 1442.105, 427.368 1464.149, 452.617 1458.996 C 466.780 1456.106, 482.847 1443.432, 490.280 1429.286 C 501.961 1407.058, 500.337 1379.279, 486.552 1365.502 C 478.877 1357.831, 466.807 1354.487, 457 1357.314 M 365.500 1359.460 C 348.442 1367.966, 334.805 1386.533, 330.466 1407.160 C 325.075 1432.789, 334.571 1451, 353.326 1451 C 380.356 1451, 406.915 1406.563, 398.585 1375.275 C 396.715 1368.249, 393.841 1363.855, 388.857 1360.401 C 385.391 1357.999, 383.534 1357.478, 377.603 1357.245 C 371.682 1357.013, 369.668 1357.382, 365.500 1359.460 M 1070.357 1373.082 C 1060.303 1376.949, 1050.302 1388.569, 1046.064 1401.310 C 1042.871 1410.910, 1041.826 1422.115, 1042.940 1434.810 C 1044.463 1452.171, 1047.271 1462.240, 1054.782 1477.282 C 1060.854 1489.440, 1062.150 1491.271, 1070.942 1500.117 C 1079.230 1508.456, 1081.816 1510.382, 1090.403 1514.617 L 1100.307 1519.500 1110.903 1519.500 C 1120.234 1519.500, 1122.157 1519.190, 1127 1516.903 C 1135.777 1512.758, 1142.380 1506.071, 1146.986 1496.661 C 1152.067 1486.279, 1153.980 1478.905, 1154.680 1467 C 1157.295 1422.559, 1118.221 1370.776, 1082.282 1371.052 C 1078.039 1371.085, 1073.574 1371.845, 1070.357 1373.082 M 960.754 1422.084 C 948.220 1425.039, 933.225 1437.707, 926.678 1450.873 C 920.184 1463.931, 918.617 1470.728, 918.580 1486 C 918.545 1500.482, 920.052 1508.056, 925.584 1521.199 C 934.300 1541.907, 952.636 1558.094, 973.460 1563.463 C 990.872 1567.953, 1008.827 1562.519, 1022.510 1548.621 C 1039.267 1531.599, 1044.525 1506.822, 1037.392 1478.500 C 1032.248 1458.079, 1014.216 1435.099, 996.281 1426.107 C 987.300 1421.603, 970.744 1419.729, 960.754 1422.084 M 829 1461.495 C 811.928 1465.346, 795.771 1478.270, 788.121 1494.195 C 782.125 1506.677, 780.579 1513.505, 780.579 1527.500 C 780.579 1541.620, 782.156 1548.505, 788.225 1560.874 C 795.612 1575.930, 811.099 1589.100, 827.500 1594.272 C 837.303 1597.363, 852.673 1597.364, 862.542 1594.274 C 879.831 1588.860, 895.885 1573.140, 902.057 1555.578 C 909.078 1535.602, 906.309 1510.614, 895.051 1492.357 C 889.790 1483.827, 878.909 1472.778, 871.542 1468.486 C 859.904 1461.705, 841.486 1458.679, 829 1461.495 M 691.490 1489.016 C 678.260 1491.647, 667.559 1497.613, 657.929 1507.728 C 638.667 1527.960, 634.259 1559.853, 647.321 1584.480 C 651.452 1592.269, 663.755 1604.566, 671.513 1608.659 C 695.932 1621.544, 722.353 1618.240, 742.495 1599.783 C 753.400 1589.791, 759.523 1577.541, 762.027 1560.710 C 766.710 1529.223, 745.160 1496.671, 714.912 1489.541 C 708.084 1487.931, 698.074 1487.707, 691.490 1489.016 M 204.191 1504.446 C 199.488 1508.695, 195.902 1515.188, 192.841 1525 C 190.764 1531.655, 190.504 1534.415, 190.537 1549.500 C 190.571 1564.874, 190.796 1567.058, 192.890 1572.332 C 196.199 1580.668, 200.263 1585, 204.775 1585 C 207.679 1585, 209.117 1584.192, 212.501 1580.660 C 220.536 1572.274, 225.007 1556.030, 224.988 1535.292 C 224.972 1517.733, 222.523 1509.142, 215.959 1503.619 C 211.777 1500.100, 208.767 1500.312, 204.191 1504.446 M 555.500 1506.078 C 552.750 1506.543, 547.913 1507.816, 544.751 1508.907 C 527.933 1514.712, 512.311 1532.359, 507.489 1551 C 505.146 1560.059, 505.803 1577.199, 508.810 1585.432 C 513.518 1598.323, 520.689 1607.641, 531.429 1614.824 C 540.719 1621.038, 549.187 1623.952, 560 1624.658 C 576.319 1625.723, 589.512 1620.581, 601.632 1608.429 C 626.198 1583.803, 625.715 1544.857, 600.535 1519.803 C 588.987 1508.313, 572.326 1503.236, 555.500 1506.078 M 256.355 1509.447 C 250.639 1511.934, 245.389 1517.726, 241.121 1526.255 C 235.488 1537.509, 233.689 1545.246, 233.738 1558 C 233.801 1574.796, 237.135 1585.711, 244.793 1594.198 C 258.499 1609.387, 276.613 1598.332, 284.189 1570.154 C 285.729 1564.424, 286.258 1559.358, 286.292 1550 C 286.332 1539.037, 286.008 1536.516, 283.663 1529.500 C 277.995 1512.545, 267.294 1504.687, 256.355 1509.447 M 330.324 1513.381 C 316.156 1518.010, 304.501 1533.229, 300.589 1552.208 C 296.291 1573.057, 301.946 1594.254, 315.042 1606.378 C 332.091 1622.162, 354.217 1615.288, 366.153 1590.500 C 379.510 1562.759, 371.912 1527.522, 350.002 1515.597 C 343.975 1512.317, 336.244 1511.446, 330.324 1513.381 M 426.798 1513.865 C 410.611 1519.227, 397.985 1532.351, 392.196 1549.835 C 388.650 1560.543, 388.456 1577.181, 391.756 1587.675 C 399.309 1611.697, 421.332 1626.922, 443.120 1623.186 C 452.852 1621.517, 461.228 1616.978, 469.098 1609.109 C 483.524 1594.683, 489.247 1573.304, 484.122 1552.991 C 481.196 1541.395, 477.842 1534.973, 470.754 1527.396 C 462.262 1518.318, 451.509 1513.005, 440.411 1512.405 C 434.436 1512.081, 431.104 1512.439, 426.798 1513.865" stroke="none" fill="#fbbb04" fill-rule="evenodd"></path></svg> 