<?xml version="1.0" encoding="UTF-8" standalone="no"?>
<svg xmlns="http://www.w3.org/2000/svg" version="1.2" baseProfile="tiny" viewBox="0.00 0.00 1773.00 1773.00">
<path fill="#a9d8ab" d="
  M 1497.82 886.50
  Q 1497.82 886.58 1497.83 886.66
  Q 1497.83 886.68 1497.90 886.78
  Q 1580.96 1010.62 1573.09 1160.64
  Q 1570.13 1217.21 1553.43 1276.79
  C 1550.00 1289.05 1544.54 1304.16 1541.17 1317.48
  C 1524.26 1384.29 1522.30 1454.53 1537.71 1521.76
  A 0.45 0.44 -4.7 0 1 1537.24 1522.30
  Q 1463.27 1517.28 1390.51 1525.47
  Q 1359.21 1529.00 1334.24 1534.95
  Q 1323.62 1537.48 1296.03 1545.03
  Q 1255.49 1556.13 1211.54 1562.78
  Q 1117.36 1577.03 1022.04 1556.43
  Q 966.50 1544.42 918.52 1516.81
  Q 907.91 1510.70 903.50 1509.28
  C 889.04 1504.61 873.00 1506.10 858.62 1511.32
  Q 854.68 1512.75 841.92 1519.57
  Q 731.52 1578.52 604.74 1570.94
  Q 541.63 1567.17 480.80 1548.29
  Q 457.29 1541.00 450.96 1539.36
  C 384.60 1522.22 312.90 1520.26 246.11 1535.72
  A 0.45 0.45 0.0 0 1 245.56 1535.26
  C 249.49 1468.42 247.38 1401.80 233.97 1337.44
  C 230.58 1321.21 226.06 1306.80 221.13 1287.89
  C 208.55 1239.64 199.86 1189.89 199.25 1141.14
  C 198.13 1051.73 216.54 959.45 270.72 886.73
  Q 270.83 886.58 270.83 886.50
  Q 270.83 886.42 270.72 886.26
  C 216.54 813.55 198.13 721.27 199.25 631.86
  C 199.86 583.11 208.55 533.36 221.13 485.11
  C 226.06 466.20 230.58 451.79 233.97 435.56
  C 247.38 371.20 249.49 304.58 245.56 237.74
  A 0.45 0.45 0.0 0 1 246.11 237.28
  C 312.90 252.74 384.60 250.78 450.96 233.64
  Q 457.29 232.00 480.80 224.71
  Q 541.63 205.83 604.74 202.06
  Q 731.52 194.48 841.92 253.43
  Q 854.68 260.25 858.62 261.68
  C 873.00 266.90 889.04 268.39 903.50 263.72
  Q 907.91 262.30 918.52 256.19
  Q 966.50 228.58 1022.04 216.57
  Q 1117.36 195.97 1211.54 210.22
  Q 1255.49 216.87 1296.03 227.97
  Q 1323.62 235.52 1334.24 238.05
  Q 1359.21 244.00 1390.51 247.53
  Q 1463.27 255.72 1537.24 250.70
  A 0.45 0.44 4.7 0 1 1537.71 251.24
  C 1522.30 318.47 1524.26 388.71 1541.17 455.52
  C 1544.54 468.84 1550.00 483.95 1553.43 496.21
  Q 1570.13 555.79 1573.09 612.36
  Q 1580.96 762.38 1497.90 886.22
  Q 1497.83 886.32 1497.83 886.34
  Q 1497.82 886.42 1497.82 886.50
  Z
  M 304.66 886.45
  Q 304.66 895.55 305.68 906.75
  C 316.63 1026.23 404.21 1119.05 508.85 1169.05
  Q 523.13 1175.87 528.61 1179.29
  C 547.73 1191.22 564.94 1204.96 578.45 1221.92
  Q 586.88 1232.50 594.02 1248.70
  Q 618.36 1303.96 657.88 1350.57
  C 721.75 1425.91 815.85 1474.18 916.50 1461.03
  C 1019.20 1447.61 1103.26 1377.68 1154.23 1290.48
  Q 1167.42 1267.93 1175.90 1248.38
  Q 1180.52 1237.71 1184.24 1231.95
  Q 1191.28 1221.02 1199.10 1212.85
  Q 1224.81 1186.01 1258.50 1170.19
  C 1367.01 1119.23 1458.78 1021.14 1464.82 896.00
  Q 1465.10 890.29 1465.10 886.55
  Q 1465.10 882.81 1464.82 877.09
  C 1458.80 751.95 1367.05 653.85 1258.55 602.87
  Q 1224.86 587.05 1199.15 560.20
  Q 1191.33 552.03 1184.30 541.10
  Q 1180.58 535.34 1175.96 524.67
  Q 1167.48 505.12 1154.30 482.56
  C 1103.34 395.36 1019.29 325.41 916.59 311.98
  C 815.95 298.81 721.84 347.06 657.96 422.39
  Q 618.43 469.00 594.08 524.25
  Q 586.94 540.45 578.50 551.03
  C 564.99 567.99 547.78 581.73 528.66 593.65
  Q 523.18 597.07 508.90 603.89
  C 404.25 653.87 316.65 746.68 305.69 866.15
  Q 304.66 877.35 304.66 886.45
  Z"
/>
<path fill="#a9d8ab" d="
  M 886.50 393.61
  C 907.85 393.61 927.31 404.09 939.31 421.42
  Q 951.80 439.45 950.39 463.13
  A 0.75 0.75 0.0 0 0 950.94 463.89
  Q 1005.38 479.33 1044.82 521.20
  C 1079.70 558.23 1102.92 605.20 1119.52 652.86
  A 1.15 1.11 88.6 0 0 1120.23 653.56
  Q 1158.67 666.73 1193.33 685.91
  C 1247.00 715.62 1290.30 758.82 1308.10 818.74
  A 0.72 0.72 0.0 0 0 1308.85 819.25
  Q 1332.53 817.49 1350.67 829.60
  C 1390.83 856.44 1388.37 916.16 1345.87 939.35
  Q 1330.01 948.01 1310.80 946.94
  A 0.67 0.66 9.1 0 0 1310.12 947.43
  Q 1293.01 1010.20 1243.22 1052.50
  C 1220.53 1071.78 1195.18 1087.44 1168.57 1099.68
  Q 1156.67 1105.16 1151.04 1108.77
  C 1135.01 1119.05 1121.33 1130.98 1110.89 1146.44
  Q 1106.91 1152.32 1102.36 1162.96
  Q 1100.37 1167.60 1094.26 1179.75
  C 1063.83 1240.28 1017.76 1290.67 950.69 1309.09
  A 0.55 0.54 -10.5 0 0 950.29 1309.67
  C 954.13 1346.99 923.64 1379.40 886.50 1379.40
  C 849.37 1379.40 818.87 1346.99 822.71 1309.67
  A 0.55 0.54 10.5 0 0 822.31 1309.09
  C 755.24 1290.67 709.17 1240.28 678.74 1179.75
  Q 672.63 1167.60 670.64 1162.96
  Q 666.09 1152.32 662.11 1146.44
  C 651.67 1130.98 637.99 1119.05 621.96 1108.77
  Q 616.33 1105.16 604.43 1099.68
  C 577.82 1087.44 552.47 1071.78 529.78 1052.50
  Q 479.99 1010.20 462.88 947.43
  A 0.67 0.66 -9.1 0 0 462.20 946.94
  Q 442.99 948.01 427.13 939.35
  C 384.63 916.16 382.17 856.44 422.33 829.60
  Q 440.47 817.49 464.15 819.25
  A 0.72 0.72 0.0 0 0 464.90 818.74
  C 482.71 758.82 526.01 715.62 579.68 685.91
  Q 614.34 666.73 652.78 653.56
  A 1.15 1.11 -88.6 0 0 653.49 652.86
  C 670.09 605.20 693.31 558.23 728.19 521.20
  Q 767.63 479.33 822.07 463.89
  A 0.75 0.75 0.0 0 0 822.62 463.13
  Q 821.21 439.45 833.69 421.42
  C 845.70 404.09 865.16 393.61 886.50 393.61
  Z
  M 682.65 682.40
  Q 680.00 685.04 672.64 693.14
  C 624.21 746.39 594.19 814.09 594.15 886.32
  C 594.11 958.56 624.04 1026.29 672.40 1079.60
  Q 679.76 1087.71 682.40 1090.35
  Q 685.04 1093.00 693.14 1100.36
  C 746.39 1148.79 814.09 1178.81 886.32 1178.85
  C 958.55 1178.89 1026.29 1148.96 1079.60 1100.60
  Q 1087.71 1093.24 1090.35 1090.60
  Q 1093.00 1087.96 1100.36 1079.86
  C 1148.79 1026.61 1178.80 958.91 1178.85 886.68
  C 1178.89 814.44 1148.96 746.71 1100.60 693.40
  Q 1093.24 685.29 1090.60 682.65
  Q 1087.96 680.00 1079.86 672.64
  C 1026.61 624.21 958.91 594.19 886.68 594.15
  C 814.44 594.11 746.71 624.04 693.40 672.40
  Q 685.29 679.76 682.65 682.40
  Z"
/>
<path fill="#a9d8ab" d="
  M 886.98 679.13
  Q 890.41 679.14 892.68 682.48
  Q 917.02 718.43 941.41 754.35
  A 0.13 0.01 22.8 0 0 941.52 754.41
  Q 941.54 754.42 941.57 754.43
  Q 941.59 754.44 941.62 754.45
  A 0.13 0.01 22.4 0 0 941.74 754.49
  Q 984.41 746.53 1027.09 738.52
  Q 1031.05 737.78 1033.47 740.21
  Q 1035.89 742.64 1035.13 746.61
  Q 1026.92 789.24 1018.77 831.88
  A 0.13 0.01 67.8 0 0 1018.81 832.00
  Q 1018.82 832.02 1018.83 832.05
  Q 1018.84 832.08 1018.85 832.10
  A 0.13 0.01 67.4 0 0 1018.91 832.21
  Q 1054.71 856.76 1090.55 881.27
  Q 1093.88 883.55 1093.87 886.98
  Q 1093.86 890.41 1090.52 892.68
  Q 1054.57 917.02 1018.65 941.41
  A 0.13 0.01 -67.2 0 0 1018.59 941.52
  Q 1018.58 941.54 1018.57 941.57
  Q 1018.56 941.59 1018.55 941.62
  A 0.13 0.01 -67.6 0 0 1018.52 941.74
  Q 1026.47 984.41 1034.48 1027.09
  Q 1035.22 1031.05 1032.79 1033.47
  Q 1030.36 1035.89 1026.40 1035.13
  Q 983.76 1026.92 941.12 1018.77
  A 0.13 0.01 -22.2 0 0 941.00 1018.81
  Q 940.98 1018.82 940.95 1018.83
  Q 940.93 1018.84 940.90 1018.85
  A 0.13 0.01 -22.6 0 0 940.79 1018.91
  Q 916.24 1054.71 891.73 1090.55
  Q 889.45 1093.88 886.02 1093.87
  Q 882.59 1093.86 880.32 1090.52
  Q 855.98 1054.57 831.59 1018.65
  A 0.13 0.01 22.8 0 0 831.49 1018.59
  Q 831.46 1018.58 831.44 1018.57
  Q 831.41 1018.56 831.38 1018.55
  A 0.13 0.01 22.4 0 0 831.27 1018.52
  Q 788.59 1026.47 745.92 1034.48
  Q 741.95 1035.22 739.53 1032.79
  Q 737.11 1030.36 737.87 1026.40
  Q 746.08 983.76 754.23 941.12
  A 0.13 0.01 67.8 0 0 754.20 941.00
  Q 754.19 940.98 754.18 940.95
  Q 754.17 940.93 754.15 940.90
  A 0.13 0.01 67.4 0 0 754.09 940.79
  Q 718.29 916.24 682.46 891.73
  Q 679.12 889.45 679.13 886.02
  Q 679.14 882.59 682.48 880.32
  Q 718.43 855.98 754.35 831.59
  A 0.13 0.01 -67.2 0 0 754.41 831.49
  Q 754.42 831.46 754.43 831.44
  Q 754.44 831.41 754.45 831.38
  A 0.13 0.01 -67.6 0 0 754.49 831.27
  Q 746.53 788.59 738.52 745.92
  Q 737.78 741.95 740.21 739.53
  Q 742.64 737.11 746.61 737.87
  Q 789.24 746.08 831.88 754.23
  A 0.13 0.01 -22.2 0 0 832.00 754.20
  Q 832.02 754.19 832.05 754.18
  Q 832.08 754.17 832.10 754.15
  A 0.13 0.01 -22.6 0 0 832.21 754.09
  Q 856.76 718.29 881.27 682.46
  Q 883.55 679.12 886.98 679.13
  Z"
/>
</svg>
