<?xml version="1.0" encoding="UTF-8" standalone="no"?>
<svg xmlns="http://www.w3.org/2000/svg" version="1.2" baseProfile="tiny" viewBox="0.00 0.00 1773.00 1773.00">
<path fill="#fbd884" d="
  M 886.52 129.70
  C 924.19 129.70 957.46 153.67 969.67 189.04
  Q 978.02 213.25 971.65 239.91
  A 0.56 0.55 -74.9 0 0 972.02 240.57
  Q 999.94 249.08 1022.25 260.03
  C 1130.92 313.38 1204.56 419.56 1239.83 532.78
  A 0.28 0.05 45.0 0 0 1239.94 532.93
  Q 1239.97 532.97 1240.00 533.00
  Q 1240.04 533.04 1240.07 533.07
  A 0.28 0.05 45.1 0 0 1240.23 533.18
  C 1353.45 568.45 1459.63 642.10 1512.97 750.77
  Q 1523.92 773.08 1532.43 801.00
  A 0.56 0.55 -15.1 0 0 1533.09 801.37
  Q 1559.75 795.00 1583.95 803.36
  C 1619.32 815.57 1643.29 848.84 1643.29 886.51
  C 1643.29 924.18 1619.32 957.45 1583.94 969.66
  Q 1559.74 978.01 1533.08 971.64
  A 0.56 0.55 15.1 0 0 1532.42 972.01
  Q 1523.91 999.93 1512.96 1022.24
  C 1459.61 1130.91 1353.43 1204.55 1240.21 1239.82
  A 0.28 0.05 -45.0 0 0 1240.05 1239.93
  Q 1240.02 1239.96 1239.98 1240.00
  Q 1239.95 1240.03 1239.92 1240.07
  A 0.28 0.05 -44.9 0 0 1239.81 1240.23
  C 1204.53 1353.44 1130.89 1459.62 1022.22 1512.97
  Q 999.91 1523.91 971.98 1532.42
  A 0.56 0.55 74.9 0 0 971.61 1533.08
  Q 977.98 1559.74 969.63 1583.94
  C 957.42 1619.32 924.15 1643.29 886.48 1643.29
  C 848.81 1643.29 815.54 1619.31 803.33 1583.94
  Q 794.97 1559.74 801.34 1533.08
  A 0.56 0.55 -74.9 0 0 800.97 1532.42
  Q 773.05 1523.91 750.74 1512.96
  C 642.07 1459.61 568.43 1353.43 533.16 1240.21
  A 0.28 0.05 45.0 0 0 533.06 1240.05
  Q 533.03 1240.01 532.99 1239.98
  Q 532.96 1239.94 532.92 1239.91
  A 0.28 0.05 45.1 0 0 532.76 1239.81
  C 419.54 1204.53 313.37 1130.88 260.02 1022.21
  Q 249.07 999.90 240.57 971.98
  A 0.56 0.55 -15.1 0 0 239.91 971.61
  Q 213.25 977.98 189.04 969.63
  C 153.67 957.41 129.70 924.14 129.70 886.47
  C 129.70 848.80 153.67 815.53 189.05 803.32
  Q 213.25 794.97 239.91 801.34
  A 0.56 0.55 15.1 0 0 240.57 800.97
  Q 249.08 773.05 260.03 750.74
  C 313.38 642.07 419.56 568.43 532.78 533.16
  A 0.28 0.05 -45.0 0 0 532.94 533.05
  Q 532.97 533.02 533.01 532.99
  Q 533.04 532.95 533.08 532.92
  A 0.28 0.05 -44.9 0 0 533.18 532.76
  C 568.46 419.54 642.10 313.36 750.78 260.02
  Q 773.09 249.07 801.01 240.56
  A 0.56 0.55 74.9 0 0 801.38 239.90
  Q 795.01 213.24 803.36 189.04
  C 815.57 153.67 848.85 129.69 886.52 129.70
  Z
  M 401.45 883.95
  Q 401.57 951.23 419.42 1014.80
  C 477.97 1223.26 667.13 1369.86 884.75 1369.46
  C 1102.37 1369.06 1290.99 1221.77 1348.78 1013.10
  Q 1366.40 949.47 1366.28 882.19
  Q 1366.16 814.91 1348.30 751.34
  C 1289.75 542.88 1100.59 396.28 882.97 396.68
  C 665.35 397.08 476.73 544.37 418.95 753.04
  Q 401.32 816.67 401.45 883.95
  Z"
/>
<path fill="#fbd884" d="
  M 886.51 420.15
  C 922.98 420.15 952.57 449.20 953.35 485.77
  Q 953.81 506.99 941.35 525.36
  A 0.60 0.59 -54.8 0 0 941.49 526.18
  Q 1026.94 588.54 1077.24 681.32
  Q 1077.31 681.45 1077.32 681.46
  Q 1077.33 681.47 1077.46 681.54
  Q 1170.25 731.85 1232.61 817.30
  A 0.60 0.59 -35.2 0 0 1233.43 817.44
  Q 1251.80 804.98 1273.01 805.43
  C 1309.59 806.21 1338.64 835.80 1338.64 872.28
  C 1338.64 908.75 1309.59 938.34 1273.01 939.12
  Q 1251.80 939.58 1233.43 927.12
  A 0.60 0.59 35.2 0 0 1232.61 927.26
  Q 1170.25 1012.71 1077.46 1063.01
  Q 1077.33 1063.08 1077.32 1063.09
  Q 1077.31 1063.11 1077.24 1063.23
  Q 1026.94 1156.02 941.49 1218.38
  A 0.60 0.59 54.8 0 0 941.35 1219.20
  Q 953.81 1237.57 953.35 1258.78
  C 952.57 1295.36 922.98 1324.41 886.51 1324.41
  C 850.03 1324.41 820.44 1295.36 819.66 1258.78
  Q 819.21 1237.57 831.67 1219.20
  A 0.60 0.59 -54.8 0 0 831.53 1218.38
  Q 746.08 1156.02 695.77 1063.23
  Q 695.70 1063.10 695.69 1063.09
  Q 695.68 1063.08 695.55 1063.01
  Q 602.77 1012.71 540.41 927.26
  A 0.60 0.59 -35.2 0 0 539.59 927.12
  Q 521.22 939.58 500.00 939.12
  C 463.43 938.34 434.38 908.75 434.38 872.28
  C 434.38 835.80 463.43 806.21 500.00 805.43
  Q 521.22 804.98 539.59 817.44
  A 0.60 0.59 35.2 0 0 540.41 817.30
  Q 602.77 731.85 695.55 681.54
  Q 695.68 681.47 695.69 681.46
  Q 695.70 681.45 695.77 681.32
  Q 746.08 588.54 831.53 526.18
  A 0.60 0.59 54.8 0 0 831.67 525.36
  Q 819.21 506.99 819.66 485.77
  C 820.44 449.20 850.03 420.15 886.51 420.15
  Z
  M 695.98 681.70
  Q 695.85 681.84 695.84 681.85
  C 664.59 739.97 647.29 805.83 650.28 872.00
  Q 650.28 872.14 650.28 872.24
  Q 650.28 872.34 650.28 872.49
  C 647.27 938.65 664.54 1004.52 695.78 1062.66
  Q 695.78 1062.67 695.92 1062.80
  Q 696.05 1062.94 696.06 1062.94
  C 754.19 1094.20 820.05 1111.50 886.22 1108.51
  Q 886.36 1108.50 886.46 1108.50
  Q 886.56 1108.50 886.70 1108.51
  C 952.87 1111.52 1018.74 1094.24 1076.87 1063.01
  Q 1076.88 1063.01 1077.02 1062.87
  Q 1077.15 1062.73 1077.16 1062.73
  C 1108.41 1004.60 1125.71 938.74 1122.73 872.57
  Q 1122.72 872.43 1122.72 872.33
  Q 1122.72 872.23 1122.73 872.09
  C 1125.74 805.92 1108.46 740.05 1077.23 681.91
  Q 1077.22 681.91 1077.09 681.77
  Q 1076.95 681.63 1076.94 681.63
  C 1018.82 650.37 952.96 633.07 886.79 636.06
  Q 886.64 636.07 886.54 636.07
  Q 886.45 636.07 886.30 636.06
  C 820.13 633.05 754.27 650.33 696.13 681.56
  Q 696.12 681.56 695.98 681.70
  Z"
/>
<circle fill="#fbd884" cx="886.50" cy="886.50" r="111.55"/>
</svg>
