<?xml version="1.0" encoding="UTF-8" standalone="no"?>
<svg xmlns="http://www.w3.org/2000/svg" version="1.2" baseProfile="tiny" viewBox="0.00 0.00 1562.00 1564.00">
<path fill="#ffffff" d="
  M 882.62 1227.63
  Q 883.51 1227.73 884.27 1228.74
  Q 979.07 1355.01 1117.51 1430.89
  A 0.26 0.26 0.0 0 1 1117.50 1431.35
  Q 975.79 1507.93 814.26 1517.01
  Q 768.95 1519.55 723.26 1516.23
  Q 560.01 1504.34 418.30 1423.62
  A 0.37 0.36 -45.3 0 1 418.30 1422.99
  Q 550.17 1346.89 640.65 1224.32
  A 0.36 0.36 0.0 0 0 640.43 1223.75
  C 461.30 1187.06 310.86 1065.92 230.85 902.13
  Q 174.99 787.78 168.28 660.00
  C 160.61 514.01 203.74 368.24 291.07 251.00
  C 355.65 164.31 441.22 96.65 540.88 54.21
  A 0.38 0.38 0.0 0 1 541.36 54.73
  C 506.20 122.78 493.20 201.42 503.48 277.00
  Q 506.09 296.15 514.65 318.87
  Q 525.26 347.01 541.08 375.42
  Q 559.65 408.77 582.00 441.00
  C 606.81 476.78 634.87 508.96 666.03 538.23
  Q 684.78 555.84 690.97 562.31
  Q 757.91 632.27 789.38 723.37
  C 851.36 902.84 793.03 1106.72 642.51 1223.08
  A 0.36 0.35 -58.8 0 0 642.66 1223.71
  Q 758.78 1245.16 876.00 1228.82
  Q 877.16 1228.66 878.63 1228.62
  A 0.18 0.18 0.0 0 0 878.81 1228.43
  A 0.20 0.20 0.0 0 0 878.60 1228.20
  L 867.22 1229.00
  A 0.32 0.32 0.0 0 1 867.05 1228.40
  C 944.20 1185.22 1007.57 1120.41 1050.96 1043.23
  Q 1052.46 1040.55 1063.31 1020.54
  Q 1101.00 950.96 1094.63 872.02
  Q 1090.42 819.71 1064.86 772.53
  Q 1062.25 767.70 1056.71 759.69
  C 1031.05 722.53 1022.19 675.94 1030.48 631.56
  A 0.69 0.68 5.0 0 1 1031.16 631.00
  L 1068.89 631.00
  A 0.61 0.61 0.0 0 0 1069.50 630.39
  Q 1069.51 608.79 1069.48 590.01
  C 1069.44 555.78 1046.23 526.89 1012.50 520.28
  Q 1005.31 518.88 990.80 518.96
  Q 973.56 519.06 969.00 519.00
  C 909.50 518.28 859.68 561.52 841.33 616.06
  Q 830.44 648.41 833.83 682.84
  A 0.23 0.22 27.7 0 1 833.41 682.97
  Q 806.27 634.63 809.21 578.72
  C 812.39 518.18 842.62 462.07 894.21 429.47
  Q 908.74 420.30 922.10 416.13
  Q 942.01 409.92 942.53 409.75
  C 968.74 401.39 993.34 389.54 1016.25 373.85
  C 1095.79 319.35 1148.86 233.34 1166.46 139.03
  A 0.35 0.35 0.0 0 1 1167.02 138.82
  Q 1181.64 149.90 1196.07 162.68
  C 1318.15 270.80 1386.69 427.18 1394.20 588.74
  Q 1400.03 713.98 1359.34 832.58
  Q 1314.58 963.08 1219.66 1061.89
  Q 1178.38 1104.87 1126.58 1139.81
  C 1054.52 1188.42 971.03 1219.24 883.98 1227.71
  Q 883.12 1227.79 882.61 1227.68
  Q 882.01 1227.56 882.62 1227.63
  Z
  M 1115.89 555.17
  C 1100.60 570.16 1091.84 590.59 1091.44 612.04
  Q 1091.44 612.26 1091.58 612.41
  Q 1091.69 612.51 1091.91 612.51
  C 1113.36 612.52 1133.95 604.16 1149.24 589.16
  C 1164.52 574.16 1173.28 553.73 1173.68 532.29
  Q 1173.69 532.07 1173.54 531.92
  Q 1173.44 531.81 1173.21 531.81
  C 1151.77 531.80 1131.17 540.17 1115.89 555.17
  Z
  M 1169.39 655.42
  C 1190.81 655.61 1211.44 647.35 1226.88 632.46
  Q 1227.04 632.30 1227.04 632.16
  Q 1227.04 631.95 1226.88 631.79
  C 1211.71 616.62 1191.23 607.99 1169.82 607.80
  C 1148.40 607.61 1127.77 615.87 1112.33 630.76
  Q 1112.17 630.92 1112.17 631.06
  Q 1112.16 631.27 1112.32 631.43
  C 1127.49 646.59 1147.97 655.23 1169.39 655.42
  Z
  M 1148.43 674.59
  C 1133.43 659.31 1113.00 650.56 1091.55 650.17
  Q 1091.33 650.16 1091.18 650.31
  Q 1091.08 650.41 1091.08 650.64
  C 1091.08 672.09 1099.45 692.68 1114.45 707.96
  C 1129.46 723.24 1149.89 731.98 1171.33 732.38
  Q 1171.56 732.38 1171.71 732.23
  Q 1171.81 732.13 1171.81 731.91
  C 1171.81 710.46 1163.44 689.87 1148.43 674.59
  Z"
/>
</svg>
