<?xml version="1.0" encoding="UTF-8" standalone="no"?>
<svg xmlns="http://www.w3.org/2000/svg" version="1.2" baseProfile="tiny" viewBox="0.00 0.00 1773.00 1773.00">
<path fill="#e9b69d" d="
  M 1429.07 344.02
  C 1491.70 406.65 1530.54 489.54 1539.43 577.51
  Q 1548.71 669.36 1514.95 757.76
  Q 1513.62 761.25 1506.77 777.00
  A 0.93 0.91 -50.2 0 0 1506.84 777.89
  Q 1537.18 824.56 1553.15 878.35
  A 4.17 4.08 -47.3 0 1 1553.21 880.50
  Q 1538.86 941.90 1506.23 994.98
  A 1.06 1.04 -42.1 0 0 1506.17 995.96
  C 1542.78 1076.62 1551.10 1166.29 1529.74 1252.02
  C 1513.22 1318.36 1478.47 1380.75 1429.58 1429.63
  C 1380.68 1478.51 1318.30 1513.25 1251.95 1529.77
  C 1166.21 1551.12 1076.54 1542.78 995.89 1506.16
  A 1.06 1.04 -47.8 0 0 994.91 1506.22
  Q 941.82 1538.84 880.42 1553.18
  A 4.17 4.08 -42.7 0 1 878.27 1553.12
  Q 824.48 1537.14 777.82 1506.79
  A 0.93 0.91 -39.8 0 0 776.93 1506.72
  Q 761.18 1513.57 757.69 1514.90
  Q 669.28 1548.64 577.44 1539.35
  C 489.47 1530.44 406.59 1491.59 343.96 1428.95
  C 281.33 1366.31 242.50 1283.43 233.60 1195.46
  Q 224.32 1103.61 258.08 1015.21
  Q 259.41 1011.72 266.26 995.97
  A 0.93 0.91 -50.2 0 0 266.19 995.08
  Q 235.85 948.41 219.88 894.62
  A 4.17 4.08 -47.3 0 1 219.82 892.47
  Q 234.17 831.07 266.80 777.99
  A 1.06 1.04 -42.1 0 0 266.86 777.01
  C 230.25 696.35 221.93 606.68 243.29 520.94
  C 259.82 454.60 294.57 392.22 343.46 343.34
  C 392.35 294.45 454.74 259.71 521.08 243.20
  C 606.82 221.85 696.49 230.19 777.14 266.81
  A 1.06 1.04 -47.8 0 0 778.12 266.75
  Q 831.21 234.13 892.61 219.79
  A 4.17 4.08 -42.7 0 1 894.76 219.85
  Q 948.55 235.83 995.21 266.17
  A 0.93 0.91 -39.8 0 0 996.10 266.24
  Q 1011.85 259.40 1015.34 258.07
  Q 1103.75 224.32 1195.59 233.62
  C 1283.56 242.53 1366.45 281.38 1429.07 344.02
  Z
  M 463.52 836.95
  Q 431.92 688.29 463.08 539.87
  Q 466.76 522.37 470.65 513.86
  C 481.07 491.06 502.71 472.21 527.20 466.62
  Q 682.07 431.25 837.68 464.74
  A 0.26 0.25 -10.6 0 0 837.95 464.35
  Q 795.17 401.75 728.35 370.37
  C 612.16 315.78 471.29 351.27 396.23 455.22
  C 306.86 578.98 337.41 751.61 463.28 837.12
  A 0.16 0.16 0.0 0 0 463.52 836.95
  Z
  M 1316.83 833.50
  Q 1375.66 787.91 1403.02 720.49
  C 1436.76 637.34 1426.64 543.33 1377.58 469.33
  C 1330.13 397.74 1250.34 354.06 1166.08 350.51
  C 1072.67 346.57 985.34 389.91 931.84 466.69
  A 0.14 0.14 0.0 0 0 931.99 466.90
  Q 1074.58 434.09 1218.43 459.67
  C 1234.97 462.62 1247.42 465.13 1260.63 471.88
  Q 1289.45 486.60 1304.83 515.19
  Q 1313.64 531.57 1317.06 545.71
  Q 1319.73 556.79 1322.08 571.22
  Q 1343.56 702.80 1316.44 833.26
  A 0.24 0.24 0.0 0 0 1316.83 833.50
  Z
  M 1291.56 860.67
  C 1262.65 779.01 1214.77 700.05 1150.93 641.00
  Q 1145.60 636.07 1138.82 628.85
  C 1079.05 565.12 1001.23 517.37 919.24 488.58
  Q 892.87 479.32 867.03 486.34
  Q 860.21 488.19 847.71 492.94
  C 770.30 522.39 698.58 567.41 641.70 627.42
  Q 634.16 635.37 626.17 642.94
  C 568.08 697.98 524.36 766.88 494.65 841.80
  Q 484.37 867.71 482.92 878.89
  Q 480.29 899.11 486.67 917.36
  C 515.80 1000.60 562.89 1077.90 626.95 1138.77
  Q 635.59 1146.98 642.26 1154.03
  C 684.90 1199.11 736.27 1235.79 791.81 1263.41
  Q 826.56 1280.70 857.28 1291.45
  Q 885.82 1301.43 914.52 1293.72
  Q 921.00 1291.97 933.97 1286.98
  C 1010.15 1257.65 1081.55 1212.88 1137.22 1153.72
  Q 1144.60 1145.88 1152.47 1138.47
  C 1210.02 1084.26 1254.17 1015.30 1283.43 941.57
  C 1287.26 931.93 1290.38 924.22 1293.05 915.13
  Q 1301.12 887.68 1291.56 860.67
  Z
  M 832.45 1317.42
  Q 825.27 1318.73 813.88 1320.82
  Q 690.64 1343.34 565.37 1322.18
  Q 551.87 1319.90 543.78 1317.72
  C 507.99 1308.07 479.64 1282.68 466.10 1248.29
  Q 462.01 1237.90 458.62 1218.66
  Q 433.34 1074.89 466.08 932.61
  A 0.14 0.14 0.0 0 0 465.86 932.46
  Q 426.08 960.21 398.43 999.92
  C 340.94 1082.48 334.32 1192.01 381.75 1280.76
  Q 404.79 1323.88 439.67 1354.67
  Q 487.45 1396.85 547.28 1413.11
  C 622.94 1433.68 703.01 1420.95 768.45 1377.73
  Q 804.52 1353.91 832.70 1317.83
  A 0.26 0.26 0.0 0 0 832.45 1317.42
  Z
  M 1314.99 939.49
  A 0.18 0.17 -78.2 0 0 1314.72 939.67
  Q 1341.60 1061.58 1325.59 1185.64
  Q 1321.37 1218.37 1316.74 1232.20
  C 1303.65 1271.32 1273.44 1302.17 1235.02 1316.33
  Q 1220.98 1321.50 1192.03 1325.51
  Q 1065.18 1343.08 940.66 1315.99
  A 0.20 0.20 0.0 0 0 940.46 1316.30
  C 1031.97 1442.84 1211.52 1465.25 1331.18 1366.41
  C 1373.38 1331.55 1404.36 1283.38 1418.65 1230.31
  C 1448.31 1120.20 1406.74 1005.38 1314.99 939.49
  Z"
/>
<path fill="#e9b69d" d="
  M 1023.29 749.71
  Q 1023.41 749.83 1023.44 749.85
  Q 1080.27 780.58 1121.63 830.44
  A 0.62 0.61 -37.2 0 0 1122.46 830.55
  Q 1138.79 818.70 1157.45 817.49
  C 1191.65 815.28 1222.17 839.22 1227.11 873.26
  C 1235.26 929.45 1174.15 968.98 1126.02 938.11
  A 0.68 0.68 0.0 0 0 1125.13 938.26
  Q 1082.78 991.05 1023.42 1023.16
  Q 1023.39 1023.18 1023.29 1023.29
  Q 1023.18 1023.40 1023.16 1023.43
  Q 991.04 1082.78 938.25 1125.13
  A 0.68 0.68 0.0 0 0 938.10 1126.02
  C 968.97 1174.15 929.44 1235.26 873.25 1227.11
  C 839.21 1222.17 815.27 1191.65 817.48 1157.45
  Q 818.69 1138.79 830.54 1122.46
  A 0.62 0.61 -52.8 0 0 830.43 1121.63
  Q 780.57 1080.27 749.85 1023.44
  Q 749.83 1023.41 749.71 1023.29
  Q 749.59 1023.17 749.56 1023.15
  Q 692.73 992.42 651.37 942.56
  A 0.62 0.61 -37.2 0 0 650.54 942.45
  Q 634.21 954.30 615.55 955.51
  C 581.35 957.72 550.83 933.78 545.89 899.74
  C 537.74 843.55 598.85 804.02 646.98 834.89
  A 0.68 0.68 0.0 0 0 647.87 834.74
  Q 690.22 781.95 749.58 749.83
  Q 749.60 749.82 749.71 749.71
  Q 749.82 749.60 749.84 749.57
  Q 781.96 690.22 834.75 647.87
  A 0.68 0.68 0.0 0 0 834.90 646.98
  C 804.03 598.85 843.56 537.74 899.75 545.89
  C 933.79 550.83 957.73 581.35 955.52 615.55
  Q 954.31 634.21 942.46 650.54
  A 0.62 0.61 -52.8 0 0 942.57 651.37
  Q 992.43 692.73 1023.15 749.56
  Q 1023.17 749.59 1023.29 749.71
  Z
  M 750.01 750.01
  Q 749.72 750.30 749.67 750.41
  C 727.37 792.08 715.07 839.03 717.18 886.25
  Q 717.19 886.35 717.19 886.50
  Q 717.19 886.65 717.18 886.75
  C 715.07 933.97 727.37 980.92 749.67 1022.59
  Q 749.73 1022.70 750.01 1022.99
  Q 750.30 1023.28 750.41 1023.33
  C 792.08 1045.63 839.03 1057.93 886.25 1055.82
  Q 886.35 1055.81 886.50 1055.81
  Q 886.65 1055.81 886.75 1055.82
  C 933.97 1057.93 980.92 1045.63 1022.59 1023.33
  Q 1022.70 1023.28 1022.99 1022.99
  Q 1023.28 1022.70 1023.33 1022.59
  C 1045.63 980.92 1057.93 933.97 1055.82 886.75
  Q 1055.81 886.65 1055.81 886.50
  Q 1055.81 886.35 1055.82 886.25
  C 1057.93 839.03 1045.63 792.08 1023.33 750.41
  Q 1023.28 750.30 1022.99 750.01
  Q 1022.70 749.72 1022.59 749.67
  C 980.92 727.37 933.97 715.07 886.75 717.18
  Q 886.65 717.19 886.50 717.19
  Q 886.35 717.19 886.25 717.18
  C 839.03 715.07 792.08 727.37 750.41 749.67
  Q 750.30 749.72 750.01 750.01
  Z"
/>
<path fill="#e9b69d" d="
  M 853.61 988.04
  L 784.96 919.39
  A 46.52 46.52 0.0 0 1 784.96 853.61
  L 853.61 784.96
  A 46.52 46.52 0.0 0 1 919.39 784.96
  L 988.04 853.61
  A 46.52 46.52 0.0 0 1 988.04 919.39
  L 919.39 988.04
  A 46.52 46.52 0.0 0 1 853.61 988.04
  Z"
/>
</svg>
