<?xml version="1.0" encoding="UTF-8" standalone="no"?>
<svg xmlns="http://www.w3.org/2000/svg" version="1.2" baseProfile="tiny" viewBox="0.00 0.00 2374.00 1325.00">
<path fill="#ffffff" d="
  M 659.14 947.54
  Q 658.53 947.29 655.90 948.71
  A 0.02 0.01 -69.0 0 1 655.89 948.68
  Q 722.51 910.33 762.22 844.23
  Q 770.75 830.03 778.03 815.08
  C 799.05 771.86 798.64 720.11 776.92 676.85
  Q 774.41 671.84 771.54 667.62
  Q 766.67 660.46 765.69 658.69
  Q 747.44 625.79 754.04 587.99
  A 0.62 0.61 -84.9 0 1 754.64 587.48
  L 777.33 587.46
  A 0.43 0.42 -5.5 0 0 777.75 586.96
  Q 777.68 586.64 777.70 572.81
  Q 777.72 559.68 777.60 558.73
  Q 776.09 546.33 770.39 538.38
  Q 757.28 520.07 735.23 519.77
  Q 719.05 519.56 713.51 519.78
  C 688.53 520.78 665.62 534.69 651.80 554.59
  Q 631.93 583.20 635.14 618.53
  A 0.20 0.20 0.0 0 1 634.76 618.65
  C 617.28 588.47 615.76 550.57 628.23 518.70
  Q 640.53 487.28 667.54 468.31
  Q 678.29 460.76 687.00 458.00
  Q 702.78 453.01 704.82 452.31
  C 747.16 437.84 782.75 405.85 806.11 368.10
  Q 828.50 331.91 836.33 289.99
  A 0.36 0.35 24.6 0 1 836.90 289.78
  Q 875.03 319.17 903.61 358.39
  C 985.45 470.69 995.67 621.12 938.70 745.29
  C 888.54 854.60 787.27 936.31 665.67 948.51
  A 0.26 0.26 0.0 0 0 665.49 948.92
  Q 722.83 1025.33 806.39 1071.22
  A 0.41 0.40 45.2 0 1 806.39 1071.93
  Q 740.87 1107.18 668.72 1118.68
  C 570.39 1134.36 470.78 1116.32 383.74 1067.08
  A 0.25 0.25 0.0 0 1 383.74 1066.65
  Q 463.06 1020.95 518.09 946.72
  A 0.43 0.42 24.3 0 0 517.83 946.05
  C 416.35 924.80 330.10 859.94 279.54 769.06
  C 237.01 692.59 222.71 604.25 237.84 518.09
  C 259.58 394.28 341.38 287.84 457.79 238.59
  A 0.23 0.23 0.0 0 1 458.09 238.91
  Q 429.09 296.35 433.90 361.26
  Q 435.39 381.34 441.98 398.52
  Q 450.31 420.25 462.52 440.74
  C 482.55 474.38 503.39 502.62 529.11 527.02
  Q 546.92 543.91 549.79 546.97
  Q 596.21 596.49 613.67 660.96
  C 641.99 765.55 605.26 879.01 519.33 945.77
  A 0.17 0.17 0.0 0 0 519.40 946.07
  Q 586.13 958.52 653.59 949.96
  Q 656.60 949.58 658.92 949.24
  A 0.89 0.89 0.0 0 0 659.14 947.54
  Z
  M 791.09 576.16
  C 791.23 576.29 791.24 576.30 791.34 576.30
  C 804.24 576.33 816.76 571.20 825.97 562.16
  C 835.18 553.12 840.54 540.70 840.75 527.80
  C 840.75 527.71 840.74 527.69 840.61 527.55
  C 840.52 527.46 840.50 527.46 840.41 527.46
  C 827.51 527.43 814.99 532.55 805.78 541.59
  C 796.57 550.63 791.21 563.05 791.00 575.96
  C 791.00 576.05 791.00 576.07 791.09 576.16
  Z
  M 872.95 588.19
  C 872.96 588.00 872.95 587.98 872.88 587.92
  C 863.79 578.78 851.32 573.56 838.43 573.45
  C 825.53 573.33 812.97 578.32 803.71 587.29
  C 803.65 587.35 803.64 587.37 803.64 587.56
  C 803.64 587.69 803.64 587.71 803.71 587.77
  C 812.81 596.91 825.27 602.13 838.17 602.24
  C 851.06 602.36 863.62 597.37 872.88 588.40
  C 872.94 588.34 872.95 588.32 872.95 588.19
  Z
  M 790.87 599.21
  C 790.78 599.30 790.77 599.32 790.77 599.41
  C 790.74 612.31 795.87 624.83 804.91 634.04
  C 813.95 643.25 826.38 648.60 839.28 648.81
  C 839.37 648.81 839.39 648.81 839.48 648.72
  C 839.61 648.58 839.62 648.56 839.62 648.47
  C 839.65 635.57 834.52 623.05 825.48 613.85
  C 816.44 604.64 804.01 599.28 791.11 599.07
  C 791.02 599.07 791.00 599.08 790.87 599.21
  Z"
/>
<path fill="#ffffff" d="
  M 1180.25 570.76
  Q 1157.34 570.76 1154.88 570.77
  A 0.45 0.44 -0.2 0 0 1154.43 571.21
  L 1154.43 622.60
  A 0.38 0.37 83.3 0 1 1154.15 622.97
  Q 1144.98 625.46 1136.41 624.28
  C 1127.62 623.07 1126.90 616.59 1127.03 608.20
  Q 1127.05 606.35 1127.04 496.75
  A 0.43 0.42 81.8 0 1 1127.34 496.34
  Q 1134.86 494.16 1143.67 494.86
  C 1153.28 495.62 1154.66 501.74 1154.45 510.87
  Q 1154.41 512.66 1154.42 548.02
  A 0.53 0.53 0.0 0 0 1154.95 548.55
  Q 1158.98 548.59 1180.46 548.59
  Q 1203.38 548.58 1205.84 548.57
  A 0.45 0.44 -0.2 0 0 1206.28 548.13
  L 1206.28 496.74
  A 0.38 0.37 83.3 0 1 1206.56 496.37
  Q 1215.73 493.88 1224.30 495.06
  C 1233.09 496.27 1233.81 502.75 1233.68 511.14
  Q 1233.66 512.99 1233.67 622.59
  A 0.43 0.42 81.8 0 1 1233.37 623.00
  Q 1225.85 625.18 1217.04 624.48
  C 1207.43 623.72 1206.05 617.60 1206.26 608.47
  Q 1206.30 606.68 1206.29 571.32
  A 0.53 0.53 0.0 0 0 1205.77 570.79
  Q 1201.73 570.75 1180.25 570.76
  Z"
/>
<path fill="#ffffff" d="
  M 1322.00 559.98
  Q 1323.41 545.46 1309.12 542.59
  C 1296.36 540.04 1282.83 543.32 1270.90 548.43
  A 0.88 0.87 -34.3 0 1 1269.96 548.26
  C 1263.84 542.50 1262.73 532.54 1270.72 527.71
  Q 1273.14 526.24 1277.89 524.65
  Q 1289.68 520.72 1307.22 521.18
  Q 1320.15 521.53 1331.32 527.15
  C 1342.57 532.81 1347.80 543.55 1347.87 556.03
  Q 1347.95 570.89 1347.93 599.91
  C 1347.92 608.04 1348.31 611.82 1342.46 616.49
  Q 1338.48 619.67 1332.84 621.68
  Q 1312.79 628.82 1290.24 625.45
  C 1269.78 622.39 1255.22 609.57 1259.47 587.20
  C 1262.70 570.23 1278.81 564.78 1294.38 563.33
  Q 1314.55 561.45 1321.47 560.53
  A 0.62 0.62 0.0 0 0 1322.00 559.98
  Z
  M 1321.67 579.35
  Q 1311.20 580.28 1299.69 581.41
  C 1292.15 582.15 1284.27 585.58 1284.91 594.67
  C 1285.50 602.93 1293.24 605.65 1300.76 606.13
  Q 1311.80 606.84 1321.27 602.86
  A 1.31 1.30 79.0 0 0 1322.08 601.65
  L 1322.08 579.73
  A 0.38 0.38 0.0 0 0 1321.67 579.35
  Z"
/>
<path fill="#ffffff" d="
  M 1545.62 623.20
  C 1539.41 624.91 1532.74 625.48 1526.55 623.88
  C 1522.36 622.80 1519.56 619.04 1519.52 614.93
  Q 1519.37 599.21 1519.45 560.26
  C 1519.46 555.46 1519.00 550.40 1515.81 547.13
  C 1510.46 541.65 1501.21 541.41 1494.33 543.61
  Q 1490.28 544.91 1486.32 546.96
  A 1.12 1.11 -13.6 0 0 1485.71 547.95
  L 1485.71 622.58
  A 0.64 0.64 0.0 0 1 1485.24 623.20
  Q 1475.09 625.96 1466.76 624.02
  C 1460.02 622.45 1459.00 617.35 1459.05 610.75
  Q 1459.12 603.30 1459.06 546.61
  Q 1459.06 541.76 1459.99 539.50
  C 1462.27 533.96 1468.40 530.17 1473.53 527.79
  C 1492.26 519.10 1517.07 517.43 1533.83 530.85
  A 0.78 0.78 0.0 0 0 1534.71 530.91
  Q 1544.07 525.40 1546.95 524.40
  C 1563.14 518.81 1585.73 519.53 1597.83 532.32
  C 1605.80 540.74 1606.67 549.52 1606.63 561.97
  Q 1606.56 583.21 1606.60 622.74
  A 0.35 0.35 0.0 0 1 1606.36 623.07
  Q 1597.63 625.73 1588.75 624.31
  Q 1579.99 622.90 1579.98 613.68
  Q 1579.93 583.70 1579.84 556.53
  C 1579.81 546.25 1571.27 541.82 1561.92 542.38
  Q 1553.24 542.90 1545.97 548.78
  A 0.88 0.87 -22.7 0 0 1545.65 549.55
  Q 1546.07 553.32 1546.08 554.50
  Q 1546.13 563.44 1546.10 622.57
  A 0.67 0.65 -8.3 0 1 1545.62 623.20
  Z"
/>
<path fill="#ffffff" d="
  M 1682.15 521.12
  C 1713.89 521.62 1733.16 543.31 1732.67 574.64
  C 1732.18 605.97 1712.24 627.05 1680.50 626.55
  C 1648.75 626.05 1629.49 604.36 1629.98 573.03
  C 1630.47 541.70 1650.40 520.63 1682.15 521.12
  Z
  M 1657.11 573.68
  C 1657.02 589.02 1663.02 605.14 1681.11 605.25
  C 1699.20 605.35 1705.38 589.29 1705.46 573.95
  C 1705.55 558.61 1699.55 542.48 1681.46 542.38
  C 1663.37 542.28 1657.19 558.34 1657.11 573.68
  Z"
/>
<path fill="#ffffff" d="
  M 1782.06 623.23
  C 1774.12 625.48 1755.98 627.51 1755.98 614.20
  Q 1755.97 552.81 1755.93 549.48
  Q 1755.83 541.38 1756.95 539.12
  Q 1759.28 534.44 1764.02 531.47
  Q 1778.10 522.64 1796.74 521.29
  C 1817.32 519.79 1840.37 524.94 1846.74 546.80
  Q 1848.18 551.76 1848.17 563.33
  Q 1848.08 619.20 1848.13 622.53
  A 0.67 0.67 0.0 0 1 1847.64 623.19
  Q 1838.50 625.64 1830.64 624.38
  Q 1821.61 622.94 1821.53 613.48
  Q 1821.44 602.71 1821.48 559.01
  C 1821.49 548.09 1813.98 542.59 1803.70 542.34
  Q 1792.67 542.07 1783.07 547.51
  A 0.85 0.83 75.3 0 0 1782.65 548.24
  L 1782.65 622.45
  A 0.82 0.81 -8.1 0 1 1782.06 623.23
  Z"
/>
<path fill="#ffffff" d="
  M 1401.80 623.25
  C 1394.10 625.23 1380.33 626.83 1376.75 618.79
  Q 1375.79 616.63 1375.79 611.42
  Q 1375.70 553.81 1375.83 544.07
  C 1375.93 536.28 1383.77 530.46 1390.72 527.47
  Q 1409.05 519.57 1429.28 521.77
  C 1441.48 523.10 1445.32 532.88 1439.51 543.12
  A 0.76 0.75 -70.5 0 1 1438.74 543.49
  C 1426.23 541.53 1414.43 542.61 1403.04 547.98
  A 1.16 1.15 77.6 0 0 1402.37 549.03
  L 1402.37 622.51
  A 0.77 0.75 83.3 0 1 1401.80 623.25
  Z"
/>
<path fill="#ffffff" d="
  M 1916.63 597.05
  A 0.55 0.55 0.0 0 0 1917.57 596.90
  Q 1931.58 560.92 1938.52 525.73
  A 1.22 1.21 82.0 0 1 1939.16 524.87
  Q 1948.66 519.94 1958.15 523.81
  C 1966.25 527.12 1963.07 539.73 1961.67 546.22
  Q 1955.77 573.60 1941.61 605.61
  Q 1931.77 627.85 1917.74 646.99
  C 1912.19 654.56 1903.02 664.16 1892.38 662.67
  Q 1881.48 661.13 1878.95 649.58
  A 1.00 0.98 63.6 0 1 1879.26 648.63
  Q 1894.78 634.81 1905.85 616.84
  A 0.45 0.45 0.0 0 0 1905.66 616.20
  Q 1897.86 612.50 1893.86 604.38
  C 1882.01 580.34 1872.92 554.96 1865.89 528.56
  A 0.84 0.83 61.4 0 1 1866.13 527.73
  Q 1874.07 520.22 1884.93 522.79
  Q 1891.48 524.34 1893.65 531.14
  Q 1902.65 559.27 1916.17 596.07
  Q 1916.44 596.82 1916.63 597.05
  Z"
/>
<ellipse fill="#ffffff" cx="0.00" cy="0.00" transform="translate(1136.05,718.76) rotate(-0.8)" rx="10.91" ry="10.60"/>
<ellipse fill="#ffffff" cx="0.00" cy="0.00" transform="translate(1487.46,718.76) rotate(-1.3)" rx="10.91" ry="10.60"/>
<ellipse fill="#ffffff" cx="0.00" cy="0.00" transform="translate(1931.36,718.76) rotate(-0.5)" rx="10.91" ry="10.60"/>
<path fill="#ffffff" d="
  M 1342.80 726.64
  C 1342.81 717.82 1363.56 716.94 1370.49 716.61
  C 1386.16 715.88 1400.66 716.78 1414.33 722.63
  C 1432.83 730.54 1444.90 746.14 1448.00 766.01
  Q 1450.42 781.53 1447.94 797.23
  C 1442.16 833.83 1413.76 849.18 1379.00 848.11
  C 1368.71 847.79 1358.77 847.56 1349.35 843.92
  Q 1344.49 842.04 1342.95 837.43
  A 3.19 3.12 36.8 0 1 1342.80 836.47
  Q 1342.75 782.22 1342.80 726.64
  Z
  M 1359.73 733.13
  L 1359.73 831.17
  A 0.72 0.71 5.4 0 0 1360.32 831.87
  Q 1372.44 834.23 1386.77 833.60
  C 1408.68 832.63 1424.91 821.18 1429.75 799.23
  Q 1433.06 784.17 1430.78 768.97
  C 1427.33 745.92 1409.24 732.66 1386.76 731.02
  Q 1373.62 730.06 1360.48 732.25
  A 0.90 0.89 -5.0 0 0 1359.73 733.13
  Z"
/>
<path fill="#ffffff" d="
  M 1991.82 765.23
  A 0.48 0.48 0.0 0 0 1991.35 765.71
  Q 1991.33 793.56 1991.36 818.50
  C 1991.37 825.97 1993.52 831.24 2001.18 833.48
  C 2008.96 835.76 2016.92 834.21 2024.09 830.60
  A 0.80 0.80 0.0 0 1 2025.04 830.78
  C 2027.33 833.38 2028.63 836.80 2027.59 840.23
  C 2026.12 845.06 2019.42 847.33 2014.74 848.00
  C 2004.29 849.51 1988.32 848.02 1980.74 839.43
  Q 1974.71 832.59 1974.66 823.47
  Q 1974.45 781.96 1974.60 721.39
  A 0.30 0.30 0.0 0 1 1974.80 721.11
  C 1980.21 719.12 1991.15 717.88 1991.31 726.56
  Q 1991.38 729.85 1991.34 750.76
  A 0.53 0.53 0.0 0 0 1991.87 751.29
  L 2025.18 751.29
  A 1.03 1.02 77.0 0 1 2026.10 751.87
  C 2028.70 757.30 2028.56 765.23 2020.48 765.21
  Q 2004.74 765.18 1991.82 765.23
  Z"
/>
<path fill="#ffffff" d="
  M 1262.81 844.92
  A 0.62 0.61 -10.2 0 1 1262.40 845.50
  Q 1257.28 847.32 1252.09 846.64
  C 1246.69 845.94 1245.85 842.66 1245.82 837.41
  Q 1245.77 825.02 1245.88 789.12
  Q 1245.92 776.88 1244.37 773.00
  C 1240.48 763.28 1230.62 760.18 1220.49 760.38
  Q 1207.63 760.64 1196.36 767.02
  A 0.88 0.87 75.3 0 0 1195.92 767.78
  L 1195.92 844.79
  A 0.80 0.80 0.0 0 1 1195.37 845.55
  C 1189.11 847.64 1179.01 848.31 1178.97 839.25
  Q 1178.94 833.18 1178.93 775.68
  C 1178.93 765.60 1178.43 759.86 1187.18 755.16
  Q 1208.37 743.77 1232.02 747.20
  C 1240.34 748.41 1248.54 751.57 1254.10 757.21
  C 1260.83 764.05 1262.73 773.21 1262.79 782.75
  Q 1262.83 790.23 1262.81 844.92
  Z"
/>
<path fill="#ffffff" d="
  M 1646.59 807.35
  A 0.29 0.28 80.5 0 0 1646.35 807.69
  C 1650.21 825.86 1663.62 834.46 1681.75 834.59
  Q 1696.22 834.70 1708.78 825.72
  A 0.85 0.84 42.3 0 1 1709.69 825.68
  Q 1712.47 827.29 1713.62 830.04
  C 1718.63 841.91 1696.82 847.26 1689.51 848.05
  C 1657.91 851.44 1631.70 837.33 1629.05 803.23
  C 1627.43 782.36 1633.67 761.82 1652.45 751.81
  C 1662.81 746.28 1675.56 745.16 1687.19 747.80
  C 1707.73 752.46 1720.00 771.71 1718.29 792.04
  C 1717.89 796.68 1713.67 798.01 1709.28 798.60
  Q 1705.11 799.15 1646.59 807.35
  Z
  M 1646.00 794.01
  L 1702.12 786.38
  A 0.36 0.35 84.9 0 0 1702.43 786.00
  C 1701.73 775.40 1695.40 764.70 1684.90 761.64
  C 1662.00 754.98 1645.53 771.12 1645.37 793.45
  A 0.56 0.56 0.0 0 0 1646.00 794.01
  Z"
/>
<path fill="#ffffff" d="
  M 1803.13 761.29
  A 1.12 1.12 0.0 0 1 1801.97 761.81
  Q 1781.48 757.88 1762.38 766.69
  A 1.32 1.31 77.8 0 0 1761.61 767.89
  L 1761.61 844.88
  A 0.71 0.70 -10.2 0 1 1761.14 845.54
  C 1755.47 847.56 1744.66 848.47 1744.65 839.47
  Q 1744.63 772.87 1744.64 768.06
  Q 1744.66 759.53 1752.78 754.96
  Q 1765.32 747.93 1780.31 746.79
  C 1786.75 746.30 1792.63 746.07 1798.25 747.59
  C 1805.29 749.51 1806.69 755.39 1803.13 761.29
  Z"
/>
<path fill="#ffffff" d="
  M 1826.83 824.36
  Q 1832.08 828.37 1840.13 831.55
  Q 1853.27 836.75 1867.00 833.25
  Q 1877.99 830.45 1877.85 819.56
  C 1877.75 811.26 1871.74 806.77 1864.38 804.87
  Q 1845.34 799.94 1840.98 798.54
  C 1828.72 794.62 1821.14 785.80 1821.78 772.48
  C 1822.46 758.53 1833.87 749.58 1846.83 747.40
  Q 1863.91 744.52 1879.67 749.79
  C 1887.69 752.47 1895.93 760.40 1886.94 768.24
  A 1.64 1.63 41.1 0 1 1884.95 768.37
  C 1874.57 761.42 1861.46 758.52 1849.38 761.57
  C 1843.08 763.17 1837.76 767.86 1838.47 774.98
  C 1839.21 782.33 1845.69 785.56 1852.23 787.06
  Q 1860.48 788.96 1870.19 791.57
  Q 1879.08 793.95 1885.65 799.25
  C 1894.12 806.06 1896.29 817.54 1893.78 827.74
  C 1888.33 849.83 1857.70 850.46 1840.52 846.97
  C 1833.81 845.60 1822.78 841.31 1820.79 834.80
  Q 1819.17 829.50 1824.79 824.44
  A 1.61 1.60 42.5 0 1 1826.83 824.36
  Z"
/>
<path fill="#ffffff" d="
  M 1567.33 830.89
  Q 1577.74 805.11 1587.46 776.24
  Q 1591.94 762.96 1595.48 749.34
  A 0.95 0.93 -5.7 0 1 1596.00 748.72
  C 1601.47 746.15 1610.85 746.30 1610.73 754.78
  Q 1610.68 758.24 1608.43 765.19
  Q 1596.69 801.52 1581.05 835.30
  Q 1577.96 841.97 1576.41 844.75
  A 1.52 1.50 -86.6 0 1 1575.70 845.39
  Q 1570.78 847.55 1564.19 846.84
  Q 1558.44 846.23 1555.88 840.87
  Q 1549.71 827.96 1544.98 816.53
  C 1536.13 795.14 1527.78 774.12 1521.18 752.49
  A 1.08 1.07 -35.3 0 1 1521.35 751.53
  C 1524.79 747.00 1532.43 745.72 1536.50 749.60
  Q 1538.32 751.34 1540.79 758.78
  Q 1552.81 794.87 1566.89 830.89
  A 0.24 0.24 0.0 0 0 1567.33 830.89
  Z"
/>
<path fill="#ffffff" d="
  M 2092.55 825.99
  A 0.51 0.51 0.0 0 0 2093.48 826.00
  C 2104.81 801.89 2112.74 775.62 2118.91 749.66
  A 1.18 1.16 -7.6 0 1 2119.51 748.89
  C 2124.15 746.45 2132.76 746.18 2134.33 752.66
  C 2134.93 755.10 2133.85 760.29 2133.12 763.34
  C 2127.93 785.19 2119.71 808.12 2110.77 828.52
  C 2103.72 844.61 2094.63 861.61 2083.50 875.74
  C 2078.87 881.60 2071.80 887.67 2063.87 884.64
  Q 2059.33 882.90 2058.02 877.66
  A 1.01 1.01 0.0 0 1 2058.31 876.67
  Q 2075.89 860.09 2087.65 838.56
  A 0.60 0.60 0.0 0 0 2087.33 837.71
  Q 2081.20 835.37 2077.66 829.58
  Q 2073.49 822.75 2069.81 814.68
  Q 2056.12 784.67 2045.70 752.30
  A 1.03 1.01 58.0 0 1 2045.92 751.30
  C 2051.43 745.26 2060.86 745.79 2063.84 754.20
  Q 2077.08 791.49 2092.55 825.99
  Z"
/>
<path fill="#ffffff" d="
  M 1127.65 797.50
  Q 1127.65 750.28 1127.64 749.95
  A 0.46 0.44 -12.3 0 1 1127.93 749.52
  C 1132.15 747.89 1140.79 746.72 1143.63 751.39
  Q 1144.45 752.73 1144.54 757.16
  Q 1144.59 759.07 1144.59 797.45
  Q 1144.59 844.67 1144.60 845.00
  A 0.46 0.44 -12.3 0 1 1144.31 845.43
  C 1140.09 847.06 1131.45 848.23 1128.61 843.56
  Q 1127.79 842.22 1127.69 837.79
  Q 1127.65 835.88 1127.65 797.50
  Z"
/>
<path fill="#ffffff" d="
  M 1479.06 797.50
  Q 1479.05 750.29 1479.04 749.96
  A 0.46 0.44 -12.3 0 1 1479.33 749.53
  C 1483.55 747.90 1492.19 746.73 1495.03 751.40
  Q 1495.85 752.74 1495.94 757.17
  Q 1495.99 759.08 1495.99 797.45
  Q 1495.99 844.65 1496.00 844.98
  A 0.46 0.44 -12.3 0 1 1495.71 845.42
  C 1491.49 847.05 1482.85 848.22 1480.01 843.55
  Q 1479.19 842.21 1479.10 837.78
  Q 1479.05 835.86 1479.06 797.50
  Z"
/>
<path fill="#ffffff" d="
  M 1922.95 797.50
  Q 1922.93 750.29 1922.92 749.96
  A 0.46 0.44 -12.3 0 1 1923.21 749.53
  C 1927.43 747.90 1936.07 746.73 1938.91 751.39
  Q 1939.73 752.73 1939.83 757.16
  Q 1939.87 759.08 1939.89 797.45
  Q 1939.91 844.66 1939.92 844.99
  A 0.46 0.44 -12.3 0 1 1939.63 845.42
  C 1935.41 847.05 1926.77 848.23 1923.93 843.56
  Q 1923.11 842.22 1923.01 837.79
  Q 1922.97 835.88 1922.95 797.50
  Z"
/>
<path fill="#ffffff" d="
  M 1653.22 974.32
  A 0.26 0.26 0.0 0 0 1653.59 974.08
  L 1653.59 933.37
  A 0.75 0.74 -10.1 0 1 1654.08 932.67
  C 1659.79 930.51 1670.52 929.63 1670.53 938.76
  Q 1670.60 985.53 1670.55 1052.50
  C 1670.54 1058.32 1666.59 1061.69 1661.78 1064.26
  Q 1650.91 1070.06 1638.50 1070.79
  C 1610.56 1072.41 1586.41 1060.98 1583.04 1030.49
  C 1580.35 1006.22 1586.01 980.10 1612.45 971.66
  Q 1633.53 964.93 1653.22 974.32
  Z
  M 1653.16 1051.92
  A 0.89 0.89 0.0 0 0 1653.59 1051.16
  L 1653.59 990.26
  A 1.25 1.22 -74.0 0 0 1653.03 989.22
  Q 1639.08 980.18 1623.11 983.87
  C 1605.35 987.96 1600.05 1003.17 1599.75 1019.47
  C 1599.54 1030.80 1601.63 1042.71 1610.63 1049.85
  C 1618.24 1055.88 1627.24 1057.43 1636.74 1056.94
  Q 1645.21 1056.50 1653.16 1051.92
  Z"
/>
<path fill="#ffffff" d="
  M 1228.20 1066.33
  Q 1223.88 1070.73 1216.89 1069.70
  C 1211.79 1068.96 1210.39 1064.18 1208.74 1059.24
  Q 1206.08 1051.31 1200.51 1034.84
  A 0.61 0.60 80.5 0 0 1199.94 1034.43
  L 1144.82 1034.43
  A 0.44 0.43 -80.6 0 0 1144.41 1034.73
  L 1132.97 1068.20
  A 1.12 1.08 -89.1 0 1 1132.29 1068.88
  C 1123.73 1071.83 1114.21 1068.74 1118.10 1057.61
  Q 1138.06 1000.56 1160.43 943.16
  A 1.27 1.24 -1.4 0 1 1161.12 942.45
  Q 1171.94 937.85 1182.80 942.12
  C 1184.37 942.73 1185.87 945.60 1186.48 947.15
  Q 1208.66 1003.94 1228.47 1065.19
  A 1.12 1.10 -32.0 0 1 1228.20 1066.33
  Z
  M 1149.59 1019.43
  A 0.55 0.55 0.0 0 0 1150.11 1020.16
  L 1195.32 1020.24
  A 0.55 0.55 0.0 0 0 1195.84 1019.51
  L 1173.34 954.75
  A 0.55 0.55 0.0 0 0 1172.31 954.75
  L 1149.59 1019.43
  Z"
/>
<path fill="#ffffff" d="
  M 1459.06 1007.93
  Q 1459.15 1005.69 1458.99 1001.26
  C 1458.37 984.10 1441.45 981.08 1427.73 983.48
  Q 1416.34 985.48 1406.26 990.80
  A 0.94 0.94 0.0 0 1 1405.18 990.65
  C 1402.90 988.47 1400.78 985.59 1401.25 982.30
  C 1402.07 976.57 1407.70 974.47 1412.82 972.58
  C 1426.62 967.47 1448.04 966.91 1461.69 974.82
  C 1471.91 980.73 1475.58 990.71 1475.71 1002.00
  Q 1475.76 1005.89 1475.72 1053.49
  C 1475.71 1059.82 1470.21 1063.47 1465.02 1065.58
  Q 1443.68 1074.27 1420.59 1069.62
  Q 1411.29 1067.74 1404.32 1062.19
  C 1395.44 1055.11 1393.37 1042.30 1396.45 1031.71
  C 1400.16 1018.95 1413.82 1013.29 1426.28 1011.88
  Q 1438.36 1010.52 1458.35 1008.69
  A 0.79 0.79 0.0 0 0 1459.06 1007.93
  Z
  M 1459.08 1022.31
  A 0.39 0.38 -3.3 0 0 1458.65 1021.93
  Q 1452.00 1022.65 1430.45 1024.91
  C 1421.37 1025.86 1412.33 1029.53 1412.04 1040.24
  C 1411.60 1056.97 1431.18 1057.89 1442.75 1056.95
  Q 1451.02 1056.27 1458.59 1052.33
  A 0.90 0.88 -13.8 0 0 1459.08 1051.54
  L 1459.08 1022.31
  Z"
/>
<path fill="#ffffff" d="
  M 1566.58 983.73
  A 1.12 1.12 0.0 0 1 1565.42 984.25
  Q 1544.93 980.32 1525.83 989.13
  A 1.32 1.31 77.8 0 0 1525.06 990.33
  L 1525.06 1067.31
  A 0.71 0.70 -10.1 0 1 1524.59 1067.97
  C 1518.92 1069.99 1508.11 1070.90 1508.10 1061.90
  Q 1508.09 995.31 1508.10 990.50
  Q 1508.12 981.97 1516.24 977.40
  Q 1528.78 970.37 1543.76 969.23
  C 1550.20 968.74 1556.08 968.51 1561.70 970.03
  C 1568.74 971.95 1570.14 977.83 1566.58 983.73
  Z"
/>
<path fill="#ffffff" d="
  M 1310.02 997.56
  Q 1309.18 1001.29 1307.44 1006.95
  Q 1297.88 1038.21 1287.22 1066.72
  A 1.55 1.50 -3.5 0 1 1286.46 1067.55
  Q 1279.02 1071.17 1270.99 1068.25
  C 1267.85 1067.12 1266.33 1062.82 1265.12 1059.50
  Q 1261.48 1049.59 1256.98 1033.51
  Q 1248.70 1004.01 1242.15 974.43
  A 1.09 1.07 61.5 0 1 1242.43 973.45
  C 1247.39 968.40 1257.59 967.61 1259.42 976.36
  Q 1267.60 1015.44 1277.28 1052.77
  A 0.39 0.39 0.0 0 0 1278.03 1052.79
  L 1301.14 981.88
  A 2.11 2.10 -3.0 0 1 1302.29 980.61
  Q 1309.32 977.53 1316.53 980.04
  C 1318.61 980.76 1319.90 982.91 1320.64 985.08
  Q 1332.40 1019.85 1341.91 1052.07
  Q 1342.12 1052.79 1342.38 1053.07
  A 0.51 0.50 -58.7 0 0 1343.24 1052.86
  C 1352.16 1018.88 1357.27 1000.77 1362.75 972.04
  A 1.09 1.06 -9.0 0 1 1363.29 971.32
  Q 1367.05 969.32 1371.67 969.85
  C 1379.18 970.72 1378.16 977.79 1376.81 983.78
  Q 1370.68 1011.02 1361.14 1041.12
  Q 1357.13 1053.75 1352.37 1066.14
  A 3.46 3.44 0.7 0 1 1350.29 1068.16
  Q 1342.50 1070.88 1335.34 1068.25
  Q 1333.53 1067.58 1332.47 1064.79
  Q 1323.48 1041.10 1311.60 1000.61
  Q 1311.13 999.01 1310.61 997.53
  A 0.31 0.31 0.0 0 0 1310.02 997.56
  Z"
/>
</svg>
