<?xml version="1.0" encoding="UTF-8" standalone="no"?>
<svg xmlns="http://www.w3.org/2000/svg" version="1.2" baseProfile="tiny" viewBox="0.00 0.00 1773.00 1773.00">
<path fill="#e8d0ae" d="
  M 886.55 204.67
  C 974.25 204.68 1057.87 238.64 1121.29 298.35
  Q 1178.42 352.16 1207.50 427.79
  A 0.81 0.80 -3.4 0 0 1208.07 428.29
  Q 1257.57 439.70 1291.86 472.21
  Q 1332.16 510.43 1344.01 565.09
  A 1.16 1.14 -86.6 0 0 1344.73 565.91
  C 1478.37 615.63 1569.13 744.00 1569.12 886.56
  C 1569.11 1029.11 1478.33 1157.46 1344.68 1207.17
  A 1.16 1.14 86.6 0 0 1343.96 1207.99
  Q 1332.10 1262.65 1291.79 1300.86
  Q 1257.50 1333.36 1207.99 1344.76
  A 0.81 0.80 3.4 0 0 1207.42 1345.26
  Q 1178.33 1420.89 1121.19 1474.68
  C 1057.76 1534.38 974.14 1568.33 886.44 1568.32
  C 798.74 1568.31 715.12 1534.35 651.71 1474.64
  Q 594.57 1420.84 565.49 1345.21
  A 0.81 0.80 -3.4 0 0 564.92 1344.71
  Q 515.42 1333.30 481.13 1300.79
  Q 440.83 1262.57 428.98 1207.91
  A 1.16 1.14 -86.6 0 0 428.26 1207.09
  C 294.62 1157.36 203.86 1028.99 203.87 886.44
  C 203.89 743.88 294.66 615.53 428.31 565.83
  A 1.16 1.14 86.6 0 0 429.03 565.01
  Q 440.89 510.35 481.20 472.14
  Q 515.50 439.63 565.00 428.23
  A 0.81 0.80 3.4 0 0 565.57 427.73
  Q 594.66 352.11 651.81 298.31
  C 715.23 238.61 798.86 204.67 886.55 204.67
  Z
  M 304.29 886.49
  C 304.29 913.49 309.25 940.71 318.24 966.27
  C 339.51 1026.73 385.03 1075.84 442.75 1103.17
  Q 492.33 1126.66 550.75 1125.70
  A 3.34 3.17 -37.0 0 1 551.63 1125.80
  Q 556.40 1127.04 556.61 1132.00
  A 3.69 3.48 52.8 0 1 556.49 1133.13
  Q 543.66 1179.50 544.05 1227.56
  A 0.61 0.61 0.0 0 0 544.66 1228.16
  Q 591.89 1228.53 637.20 1216.24
  C 641.10 1215.18 643.50 1214.98 645.99 1217.78
  Q 647.13 1219.05 647.24 1224.57
  Q 648.18 1269.36 662.93 1307.28
  Q 689.54 1375.73 749.12 1418.12
  C 789.01 1446.51 837.69 1461.96 886.49 1461.96
  C 935.30 1461.96 983.98 1446.51 1023.87 1418.12
  Q 1083.45 1375.73 1110.06 1307.29
  Q 1124.81 1269.37 1125.75 1224.58
  Q 1125.86 1219.06 1127.00 1217.79
  C 1129.49 1214.99 1131.89 1215.19 1135.79 1216.25
  Q 1181.10 1228.54 1228.33 1228.17
  A 0.61 0.61 0.0 0 0 1228.94 1227.57
  Q 1229.33 1179.51 1216.50 1133.14
  A 3.69 3.48 -52.8 0 1 1216.38 1132.01
  Q 1216.59 1127.05 1221.36 1125.81
  A 3.34 3.17 37.0 0 1 1222.24 1125.71
  Q 1280.66 1126.67 1330.24 1103.18
  C 1387.96 1075.85 1433.49 1026.74 1454.76 966.28
  C 1463.75 940.72 1468.71 913.51 1468.71 886.50
  C 1468.71 859.49 1463.75 832.28 1454.76 806.72
  C 1433.49 746.26 1387.97 697.15 1330.25 669.82
  Q 1280.67 646.33 1222.25 647.29
  A 3.34 3.17 -37.0 0 1 1221.37 647.19
  Q 1216.60 645.95 1216.39 640.99
  A 3.69 3.48 52.8 0 1 1216.51 639.86
  Q 1229.34 593.49 1228.95 545.43
  A 0.61 0.61 0.0 0 0 1228.34 544.83
  Q 1181.11 544.46 1135.80 556.75
  C 1131.90 557.81 1129.50 558.01 1127.01 555.21
  Q 1125.87 553.94 1125.76 548.42
  Q 1124.82 503.63 1110.07 465.71
  Q 1083.46 397.26 1023.88 354.87
  C 983.99 326.48 935.31 311.03 886.51 311.03
  C 837.70 311.03 789.02 326.47 749.13 354.86
  Q 689.55 397.25 662.94 465.70
  Q 648.19 503.62 647.25 548.41
  Q 647.14 553.93 646.00 555.20
  C 643.51 558.00 641.11 557.80 637.21 556.74
  Q 591.90 544.45 544.67 544.82
  A 0.61 0.61 0.0 0 0 544.06 545.42
  Q 543.67 593.48 556.50 639.85
  A 3.69 3.48 -52.8 0 1 556.62 640.98
  Q 556.41 645.94 551.64 647.18
  A 3.34 3.17 37.0 0 1 550.76 647.28
  Q 492.34 646.32 442.76 669.81
  C 385.03 697.14 339.51 746.24 318.24 806.71
  C 309.25 832.27 304.29 859.48 304.29 886.49
  Z"
/>
<path fill="#e8d0ae" d="
  M 886.13 451.91
  Q 913.20 451.92 937.26 457.06
  Q 997.18 469.89 1040.30 513.73
  C 1076.97 551.02 1100.95 599.39 1118.09 648.36
  A 1.17 1.16 89.4 0 0 1118.82 649.08
  Q 1164.42 664.56 1204.45 688.79
  Q 1222.11 699.48 1239.68 714.30
  Q 1307.15 771.24 1314.22 859.72
  Q 1316.18 884.23 1313.63 908.39
  Q 1304.96 990.29 1243.02 1044.58
  C 1220.43 1064.38 1193.55 1080.94 1166.22 1093.42
  Q 1155.51 1098.31 1149.19 1102.33
  C 1133.24 1112.48 1119.06 1124.98 1108.66 1140.88
  Q 1105.66 1145.46 1101.92 1153.91
  C 1086.91 1187.80 1067.18 1220.35 1041.38 1246.86
  Q 996.37 1293.10 934.04 1305.36
  Q 911.21 1309.85 886.07 1309.84
  Q 860.93 1309.84 838.09 1305.35
  Q 775.77 1293.08 730.76 1246.84
  C 704.97 1220.32 685.24 1187.77 670.24 1153.88
  Q 666.50 1145.43 663.50 1140.85
  C 653.10 1124.95 638.92 1112.45 622.97 1102.29
  Q 616.66 1098.27 605.95 1093.38
  C 578.62 1080.90 551.74 1064.33 529.15 1044.53
  Q 467.22 990.23 458.56 908.33
  Q 456.01 884.17 457.98 859.66
  Q 465.06 771.18 532.54 714.25
  Q 550.11 699.43 567.77 688.75
  Q 607.81 664.52 653.41 649.05
  A 1.17 1.16 -89.4 0 0 654.14 648.33
  C 671.28 599.36 695.27 550.99 731.95 513.71
  Q 775.07 469.87 834.99 457.06
  Q 859.05 451.91 886.13 451.91
  Z
  M 670.66 691.25
  C 640.30 725.85 617.30 765.42 604.84 809.74
  C 586.30 875.73 594.58 946.47 626.74 1007.03
  Q 672.42 1093.05 757.82 1139.10
  C 838.59 1182.65 933.35 1182.70 1014.08 1139.32
  C 1046.75 1121.77 1076.98 1098.51 1101.53 1070.53
  C 1131.90 1035.93 1154.89 996.37 1167.35 952.04
  C 1185.90 886.05 1177.62 815.31 1145.46 754.75
  Q 1099.78 668.73 1014.38 622.68
  C 933.61 579.13 838.85 579.08 758.12 622.46
  C 725.45 640.01 695.22 663.27 670.66 691.25
  Z"
/>
<path fill="#e8d0ae" d="
  M 1009.49 1007.22
  Q 1004.11 1016.74 999.53 1024.03
  Q 967.15 1075.47 917.51 1110.27
  C 900.24 1122.37 876.89 1122.66 858.55 1112.94
  Q 853.63 1110.34 842.80 1101.94
  Q 792.80 1063.15 762.34 1007.27
  A 1.92 1.88 89.1 0 0 761.59 1006.53
  Q 700.75 973.32 660.25 917.18
  Q 652.14 905.93 649.83 899.00
  Q 644.55 883.16 649.68 867.43
  Q 652.13 859.92 661.08 847.66
  Q 701.53 792.24 761.56 759.50
  A 2.06 2.06 0.0 0 0 762.38 758.68
  C 786.67 714.12 821.81 675.75 864.89 648.54
  C 875.34 641.94 886.31 639.91 898.20 644.07
  Q 903.94 646.08 918.37 656.31
  Q 975.56 696.87 1009.23 758.56
  A 2.72 2.72 0.0 0 0 1010.30 759.63
  Q 1072.06 793.25 1113.07 851.19
  C 1116.68 856.29 1119.96 861.14 1122.00 866.64
  Q 1129.12 885.76 1119.72 904.43
  Q 1117.35 909.13 1109.84 919.35
  Q 1069.77 973.87 1010.22 1006.50
  A 1.82 1.79 -89.1 0 0 1009.49 1007.22
  Z
  M 762.30 759.41
  Q 762.27 759.44 762.24 759.50
  C 741.99 797.09 730.62 840.05 732.64 882.75
  Q 732.64 882.81 732.64 882.97
  Q 732.64 883.13 732.64 883.19
  C 730.60 925.89 741.95 968.85 762.18 1006.46
  Q 762.21 1006.51 762.24 1006.54
  Q 762.27 1006.57 762.33 1006.60
  C 799.92 1026.86 842.88 1038.23 885.58 1036.21
  Q 885.64 1036.21 885.80 1036.21
  Q 885.96 1036.21 886.02 1036.21
  C 928.72 1038.25 971.68 1026.90 1009.29 1006.67
  Q 1009.34 1006.64 1009.37 1006.61
  Q 1009.40 1006.57 1009.43 1006.52
  C 1029.69 968.93 1041.06 925.97 1039.04 883.27
  Q 1039.04 883.20 1039.04 883.05
  Q 1039.04 882.89 1039.04 882.83
  C 1041.08 840.13 1029.73 797.16 1009.49 759.56
  Q 1009.47 759.50 1009.43 759.47
  Q 1009.40 759.44 1009.35 759.41
  C 971.76 739.16 928.80 727.79 886.10 729.81
  Q 886.03 729.81 885.88 729.81
  Q 885.72 729.81 885.66 729.81
  C 842.96 727.77 799.99 739.12 762.39 759.35
  Q 762.33 759.38 762.30 759.41
  Z"
/>
</svg>
