<?xml version="1.0" encoding="UTF-8" standalone="no"?>
<svg xmlns="http://www.w3.org/2000/svg" version="1.2" baseProfile="tiny" viewBox="0.00 0.00 1773.00 1773.00">
<path fill="#9bc1df" d="
  M 1560.23 886.50
  C 1560.23 1038.06 1451.79 1158.35 1320.86 1219.89
  Q 1308.47 1225.71 1300.98 1230.24
  C 1273.86 1246.64 1250.35 1266.68 1233.50 1292.84
  Q 1229.89 1298.43 1225.09 1309.50
  Q 1210.57 1343.00 1188.06 1378.30
  C 1128.44 1471.79 1034.65 1545.44 921.74 1558.26
  Q 870.76 1564.05 820.99 1553.31
  C 702.99 1527.84 611.12 1437.36 558.53 1331.97
  Q 551.27 1317.42 547.77 1309.28
  Q 543.11 1298.47 539.59 1292.98
  C 522.79 1266.88 499.26 1246.67 471.89 1230.19
  Q 463.72 1225.27 449.24 1218.50
  Q 428.60 1208.84 404.70 1194.33
  C 295.69 1128.19 212.77 1018.51 212.77 886.50
  C 212.77 754.49 295.69 644.81 404.70 578.66
  Q 428.60 564.16 449.24 554.50
  Q 463.72 547.73 471.89 542.81
  C 499.26 526.33 522.79 506.12 539.59 480.02
  Q 543.11 474.53 547.77 463.72
  Q 551.27 455.58 558.53 441.03
  C 611.12 335.64 702.99 245.16 820.99 219.69
  Q 870.76 208.95 921.74 214.74
  C 1034.65 227.56 1128.44 301.21 1188.06 394.70
  Q 1210.57 430.00 1225.09 463.50
  Q 1229.89 474.57 1233.50 480.16
  C 1250.35 506.32 1273.86 526.36 1300.98 542.76
  Q 1308.47 547.29 1320.86 553.11
  C 1451.79 614.65 1560.23 734.95 1560.23 886.50
  Z
  M 389.92 884.49
  C 390.28 1000.67 430.37 1111.63 504.30 1201.43
  C 597.74 1314.93 737.53 1381.38 885.31 1380.93
  C 1033.08 1380.49 1172.47 1313.18 1265.21 1199.13
  C 1338.60 1108.88 1378.02 997.67 1377.67 881.49
  C 1377.32 765.31 1337.22 654.34 1263.29 564.54
  C 1169.85 451.05 1030.06 384.59 882.29 385.04
  C 734.51 385.49 595.13 452.79 502.38 566.85
  C 428.99 657.10 389.57 768.31 389.92 884.49
  Z"
/>
<path fill="#9bc1df" d="
  M 886.54 406.32
  Q 907.93 406.32 927.54 409.18
  Q 1008.99 421.05 1064.83 481.46
  C 1102.58 522.30 1128.01 573.92 1146.19 626.20
  A 1.07 1.07 0.0 0 0 1146.85 626.86
  Q 1178.17 637.74 1207.48 652.02
  C 1245.75 670.68 1282.45 695.27 1310.45 727.66
  Q 1361.77 787.04 1366.18 869.30
  Q 1367.56 895.07 1365.01 918.28
  Q 1354.62 1012.55 1281.14 1073.94
  C 1256.25 1094.73 1228.00 1111.68 1199.64 1124.61
  Q 1188.45 1129.70 1181.92 1133.82
  C 1163.00 1145.74 1145.26 1161.27 1134.18 1179.96
  Q 1131.43 1184.60 1125.50 1197.75
  C 1103.89 1245.72 1072.11 1292.06 1029.26 1323.15
  C 987.20 1353.66 938.05 1366.69 886.47 1366.68
  C 834.88 1366.68 785.73 1353.64 743.68 1323.12
  C 700.83 1292.03 669.06 1245.69 647.46 1197.71
  Q 641.53 1184.56 638.78 1179.92
  C 627.70 1161.23 609.97 1145.70 591.05 1133.77
  Q 584.52 1129.65 573.33 1124.56
  C 544.97 1111.63 516.72 1094.67 491.84 1073.88
  Q 418.37 1012.48 407.99 918.21
  Q 405.44 895.00 406.83 869.23
  Q 411.25 786.97 462.58 727.59
  C 490.59 695.21 527.29 670.62 565.56 651.97
  Q 594.87 637.70 626.20 626.82
  A 1.07 1.07 0.0 0 0 626.86 626.16
  C 645.04 573.88 670.48 522.27 708.24 481.43
  Q 764.09 421.03 845.54 409.17
  Q 865.15 406.32 886.54 406.32
  Z
  M 673.08 1126.66
  C 701.17 1151.52 732.01 1171.93 766.14 1186.88
  C 843.44 1220.76 929.84 1220.62 1007.12 1186.78
  C 1056.12 1165.33 1101.10 1131.23 1135.19 1090.06
  C 1195.32 1017.45 1224.32 927.37 1207.55 833.73
  C 1195.52 766.62 1159.85 705.44 1112.00 657.49
  Q 1108.06 653.55 1099.92 646.34
  C 1071.83 621.48 1040.98 601.07 1006.86 586.11
  C 929.56 552.24 843.16 552.38 765.88 586.22
  C 716.88 607.67 671.90 641.77 637.81 682.94
  C 577.68 755.55 548.68 845.63 565.45 939.27
  C 577.48 1006.38 613.15 1067.56 660.99 1115.50
  Q 664.93 1119.45 673.08 1126.66
  Z"
/>
<path fill="#9bc1df" d="
  M 681.91 886.05
  Q 681.33 884.67 680.08 880.14
  Q 657.59 799.17 674.14 715.69
  Q 675.24 710.15 676.35 706.06
  C 680.50 690.66 692.54 679.44 707.68 675.97
  Q 796.10 655.70 886.28 681.75
  A 1.29 1.21 -44.0 0 0 886.99 681.74
  Q 965.14 658.70 1045.94 672.00
  Q 1062.02 674.64 1069.81 678.48
  Q 1090.70 688.77 1097.97 712.26
  Q 1099.87 718.39 1102.43 736.76
  Q 1112.98 812.45 1091.23 885.96
  A 1.71 1.65 -46.0 0 0 1091.23 886.91
  Q 1114.51 966.02 1100.79 1046.78
  C 1096.85 1069.95 1080.36 1089.38 1058.61 1097.62
  Q 1048.41 1101.48 1023.02 1104.04
  Q 953.79 1111.01 887.15 1091.28
  A 2.34 2.34 0.0 0 0 885.81 1091.28
  Q 808.51 1114.22 727.47 1101.07
  C 719.36 1099.76 711.59 1098.24 704.73 1094.85
  Q 686.76 1085.97 678.01 1068.01
  Q 674.28 1060.36 671.69 1044.06
  Q 659.48 967.52 679.99 893.06
  Q 681.30 888.31 681.91 886.95
  A 1.11 1.11 0.0 0 0 681.91 886.05
  Z
  M 759.91 759.86
  Q 759.78 759.99 758.06 761.57
  C 721.93 794.91 696.40 839.23 682.21 886.27
  Q 682.17 886.42 682.17 886.46
  Q 682.17 886.50 682.21 886.65
  C 696.38 933.69 721.89 978.02 758.01 1011.38
  Q 759.73 1012.96 759.86 1013.09
  Q 759.99 1013.22 761.57 1014.93
  C 794.91 1051.07 839.23 1076.60 886.27 1090.79
  Q 886.42 1090.83 886.46 1090.83
  Q 886.50 1090.83 886.65 1090.79
  C 933.69 1076.62 978.02 1051.10 1011.38 1014.98
  Q 1012.96 1013.27 1013.09 1013.14
  Q 1013.21 1013.01 1014.93 1011.43
  C 1051.07 978.09 1076.60 933.77 1090.78 886.73
  Q 1090.83 886.58 1090.83 886.54
  Q 1090.83 886.50 1090.78 886.35
  C 1076.61 839.31 1051.10 794.98 1014.98 761.62
  Q 1013.27 760.04 1013.14 759.91
  Q 1013.01 759.78 1011.43 758.07
  C 978.09 721.93 933.77 696.40 886.73 682.21
  Q 886.58 682.17 886.54 682.17
  Q 886.50 682.17 886.35 682.21
  C 839.30 696.38 794.97 721.90 761.62 758.02
  Q 760.04 759.73 759.91 759.86
  Z"
/>
<circle fill="#9bc1df" cx="886.50" cy="886.50" r="99.33"/>
</svg>
