<svg viewBox="0 0 160 44.93" xmlns="http://www.w3.org/2000/svg"><g fill="#43165e"><path d="m4.68 44.54h2.06v-6.61h7v-1.93h-7v-4.8h7.5v-1.95h-9.56z"/><path d="m30.4 39.26a5.63 5.63 0 0 1 -3 3.24 6 6 0 0 1 -4.72 0 5.63 5.63 0 0 1 -3-3.24 7 7 0 0 1 0-4.73 5.65 5.65 0 0 1 9.18-2.24l.31.31a5.85 5.85 0 0 1 1.16 1.93 7.11 7.11 0 0 1 0 4.73m.37-8.09a7.62 7.62 0 0 0 -2.5-1.69 8.63 8.63 0 0 0 -6.4 0 7.47 7.47 0 0 0 -2.5 1.69 8 8 0 0 0 -1.63 2.55 8.8 8.8 0 0 0 0 6.35 8 8 0 0 0 1.63 2.54 7.5 7.5 0 0 0 2.5 1.7 8.63 8.63 0 0 0 6.4 0 7.4 7.4 0 0 0 2.5-1.7 7.86 7.86 0 0 0 1.64-2.54 8.91 8.91 0 0 0 0-6.35 8 8 0 0 0 -1.64-2.55"/><path d="m46.48 38.62a5.67 5.67 0 0 1 -.19 1.48 4.2 4.2 0 0 1 -.64 1.41 3.63 3.63 0 0 1 -1.18 1.06 4.16 4.16 0 0 1 -3.61 0 3.53 3.53 0 0 1 -1.18-1.06 4.22 4.22 0 0 1 -.68-1.41 6.13 6.13 0 0 1 -.19-1.48v-9.37h-2.03v9.69a6.28 6.28 0 0 0 .45 2.43 5.85 5.85 0 0 0 1.24 1.89 5.53 5.53 0 0 0 1.87 1.23 6.4 6.4 0 0 0 4.64 0 5.43 5.43 0 0 0 1.87-1.23 5.88 5.88 0 0 0 1.25-1.89 6.47 6.47 0 0 0 .45-2.43v-9.69h-2.07z"/><path d="m64.39 41.82-8.39-12.57h-2.73v15.29h2.06v-12.54l8.46 12.57h2.62v-15.32h-2.02z"/><path d="m81.7 39.39a5.14 5.14 0 0 1 -1.4 1.77 6 6 0 0 1 -2 1.07 8.7 8.7 0 0 1 -2.48.36h-2.6v-11.4h3.09a6.39 6.39 0 0 1 3 .62 5 5 0 0 1 1.81 1.5 5.16 5.16 0 0 1 .88 1.86 7.14 7.14 0 0 1 .24 1.72 5.63 5.63 0 0 1 -.52 2.49m2.06-5.73a7.38 7.38 0 0 0 -.96-1.65 6.24 6.24 0 0 0 -1.48-1.42 7.74 7.74 0 0 0 -2.1-1 9.62 9.62 0 0 0 -2.82-.36h-5.3v15.32h4.95a9.38 9.38 0 0 0 3.6-.65 7.76 7.76 0 0 0 2.61-1.72 7.11 7.11 0 0 0 1.59-2.44 7.63 7.63 0 0 0 .54-2.84 10 10 0 0 0 -.15-1.55 8.12 8.12 0 0 0 -.5-1.68"/><path d="m91.17 38.94 2.87-7 2.83 7zm2.06-9.69-6.7 15.29h2.4l1.5-3.78h7.23l1.53 3.78h2.4l-6.51-15.29z"/><path d="m101 31.2h4.89v13.33h2.06v-13.33h4.9v-1.95h-11.85z"/><path d="m116.11 29.25h2.06v15.28h-2.06z"/><path d="m135.48 39.26a5.63 5.63 0 0 1 -3 3.24 6 6 0 0 1 -4.72 0 5.67 5.67 0 0 1 -1.8-1.31 5.85 5.85 0 0 1 -1.16-1.93 7 7 0 0 1 0-4.73 5.65 5.65 0 0 1 9.2-2.24l.31.31a5.69 5.69 0 0 1 1.16 1.93 7.11 7.11 0 0 1 0 4.73m.38-8.09a7.47 7.47 0 0 0 -2.5-1.69 8.63 8.63 0 0 0 -6.4 0 7.37 7.37 0 0 0 -2.5 1.69 7.91 7.91 0 0 0 -1.64 2.55 8.8 8.8 0 0 0 0 6.35 7.86 7.86 0 0 0 1.64 2.54 7.26 7.26 0 0 0 2.5 1.7 8.63 8.63 0 0 0 6.4 0 7.5 7.5 0 0 0 2.5-1.7 8 8 0 0 0 1.63-2.54 8.91 8.91 0 0 0 0-6.35 7.88 7.88 0 0 0 -1.63-2.55"/><path d="m153.26 41.82-8.37-12.57h-2.7v15.29h2.06v-12.54l8.46 12.57h2.62v-15.32h-2.06z"/><path d="m80 12.45c.79-2.58 1.91-6.16 2.58-8.26h.1c.63 2 1.78 6.22 2.45 8.26zm6.85 7.82h-1.69v1.13h8.93v-1.13c-1.58-.06-2-.18-2.46-1.49-1.35-4.19-4.39-13.22-6.07-18.36h-3.21c-1.88 5.68-4.69 13.87-6.44 18.16-.62 1.54-.76 1.6-2.51 1.69v1.13h6.92v-1.13h-1.81c-.7-.1-.75-.58-.56-1.2.44-1.4 1-3.36 1.6-5.2h6c.38 1.12 1.34 3.7 1.84 5.36.26.67.13 1-.57 1.08"/><path d="m17.84.54h-17.84v5.59h1.11c.89-3.13 1.3-4.27 4.22-4.27h1.48v16.66c0 1.14-.19 1.56-1.3 1.66l-1.83.13v1.08h10.48v-1.08l-1.93-.13c-1.18-.1-1.33-.52-1.33-1.66v-16.66h1.61c2.93 0 3.34 1.15 4.23 4.28h1.1z"/><path d="m25 3.45v15c0 1.55-.19 1.69-2.44 1.78v1.17h16.49l.15-5.84h-.93c-1 3.3-2 4.52-5.59 4.52-3.4 0-3.63-.35-3.63-2.3v-6.51h3.42c2 0 2.38.53 2.8 2.66h1.11v-6.84h-1.11c-.42 2.11-.76 2.75-2.8 2.75h-3.42v-6.9c0-.9.2-1.08 1.06-1.08h2.68c3.18 0 3.65 1.08 4.44 4.08h1v-5.4h-15.76v1.1c2.25.09 2.47.22 2.47 1.81"/><path d="m57.29 15h-.09c-1.34-3.31-4.06-10.39-5.66-14.46h-7.49v1.09c2.26.13 2.44.25 2.44 1.82v10.63a39.73 39.73 0 0 1 -.15 4.5c-.2 1.66-.68 1.53-2.27 1.69v1.13h7.16v-1.13c-1.68-.16-2.68.16-2.87-1.6a35.56 35.56 0 0 1 -.16-4.5v-10.63-.09c1.62 4.09 5.16 12.37 7.07 17.6h1.52c1.21-3.25 5.04-12.87 6.8-17.6h.09v15c0 1.6-.23 1.72-2.45 1.81v1.14h8.84v-1.13c-2.22-.12-2.5-.37-2.5-2v-15c0-1.57.39-1.58 2.61-1.67v-1.06h-7.11c-1.62 4.35-4.07 10.06-5.79 14.46"/><path d="m104.6 20.6c-2.45 0-4.48-2.1-5.55-5.81h-1.05l.38 5.36c1.49 1.34 4.22 1.75 6.25 1.75 5.85 0 7.75-3.29 7.75-6.45 0-4-2.73-5.23-5.75-6.51-2.25-1-4.44-1.95-4.44-4.27a3.11 3.11 0 0 1 2.89-3.32 2.29 2.29 0 0 1 .37 0c2.1 0 3.81 1.44 4.57 4.85h1.08v-4.86a11.56 11.56 0 0 0 -5.61-1.34c-4.82 0-7.33 2.52-7.29 6.25 0 3.37 2.8 5 6.2 6.42 2.6 1.09 4 2.4 4 4.42 0 2.33-1.69 3.5-3.81 3.5"/><path d="m135.18 15.33h-1.11c-1 3.28-1.78 4.75-5.37 4.75-3.39 0-3.62-.35-3.62-2.3v-6.51h3c2 0 2.38.74 2.79 2.88h1.13v-7.06h-1.1c-.41 2.11-.77 2.75-2.8 2.75h-3v-6.9c0-.9.19-1.08 1-1.08h2.29c3.2 0 3.78 1.14 4.61 4.14h1.11v-5.46h-15.98v1.1c2.26.09 2.45.22 2.45 1.81v15c0 1.56-.19 1.69-2.45 1.78v1.17h16.54z"/><path d="m155.92 3.1a6.41 6.41 0 0 1 4.08-1.5v-1.06h-7.88v1.06l1.35.16c.43.08.48.38 0 .92-1.51 1.95-4.5 5.17-6.84 7.56v-6.79c0-1.59.2-1.72 2.45-1.82v-1.09h-9.08v1.09c2.26.1 2.45.25 2.45 1.82v15c0 1.57-.19 1.69-2.45 1.82v1.12h9.14v-1.12c-2.26-.12-2.46-.22-2.46-1.82v-7.32c.86 1.35 3.13 4.92 4.47 6.68 1.93 2.68 3.31 3.62 6.65 3.71l2 .07.06-1.09a6.2 6.2 0 0 1 -2.73-1.92 76.87 76.87 0 0 1 -7.13-9.77 54 54 0 0 1 5.91-5.71"/></g></svg>