<svg xmlns="http://www.w3.org/2000/svg" xmlns:xlink="http://www.w3.org/1999/xlink" width="500" zoomAndPan="magnify" viewBox="0 0 375 374.999991" height="500" preserveAspectRatio="xMidYMid meet" version="1.2"><g id="b5d393d42c"><path style=" stroke:none;fill-rule:nonzero;fill:#6fbf73;fill-opacity:1;" d="M 202.148438 312.515625 C 202.148438 312.519531 202.148438 312.523438 202.148438 312.527344 C 202.148438 312.53125 202.148438 312.53125 202.152344 312.535156 C 206.0625 318.371094 207.835938 324.816406 207.464844 331.882812 C 207.324219 334.546875 206.863281 337.28125 206.074219 340.089844 C 205.832031 340.953125 205.445312 342.023438 205.210938 342.964844 C 204.015625 347.683594 203.875 352.644531 204.964844 357.394531 C 204.972656 357.421875 204.960938 357.433594 204.929688 357.433594 C 201.449219 357.195312 197.992188 357.269531 194.566406 357.65625 C 193.09375 357.820312 191.765625 358.046875 190.589844 358.324219 C 190.089844 358.445312 189.191406 358.683594 187.890625 359.039062 C 185.980469 359.558594 183.992188 359.976562 181.921875 360.292969 C 177.488281 360.960938 173.023438 360.8125 168.535156 359.84375 C 165.921875 359.277344 163.484375 358.34375 161.222656 357.042969 C 160.722656 356.757812 160.371094 356.578125 160.164062 356.511719 C 159.140625 356.183594 158.007812 356.289062 156.992188 356.65625 C 156.804688 356.722656 156.414062 356.917969 155.8125 357.238281 C 150.613281 360.015625 145.027344 361.226562 139.058594 360.867188 C 136.085938 360.691406 133.167969 360.15625 130.300781 359.269531 C 129.195312 358.925781 128.492188 358.714844 128.195312 358.636719 C 123.503906 357.425781 118.441406 357.289062 113.722656 358.378906 C 113.695312 358.386719 113.683594 358.375 113.683594 358.347656 C 113.960938 353.625 113.8125 348.917969 112.863281 344.371094 C 112.625 343.226562 112.304688 342.207031 111.957031 340.871094 C 111.070312 337.464844 110.453125 333.949219 110.410156 330.503906 C 110.332031 324.191406 111.632812 317.671875 115.460938 312.535156 C 115.464844 312.527344 115.46875 312.519531 115.46875 312.515625 C 115.46875 312.511719 115.464844 312.507812 115.460938 312.5 C 111.632812 307.363281 110.332031 300.84375 110.410156 294.527344 C 110.453125 291.085938 111.070312 287.570312 111.957031 284.160156 C 112.304688 282.824219 112.625 281.808594 112.863281 280.660156 C 113.8125 276.113281 113.960938 271.410156 113.683594 266.6875 C 113.683594 266.660156 113.695312 266.648438 113.722656 266.65625 C 118.441406 267.746094 123.503906 267.609375 128.195312 266.398438 C 128.492188 266.320312 129.195312 266.109375 130.300781 265.765625 C 133.167969 264.878906 136.085938 264.34375 139.058594 264.167969 C 145.027344 263.808594 150.613281 265.019531 155.8125 267.796875 C 156.414062 268.117188 156.804688 268.3125 156.992188 268.378906 C 158.007812 268.746094 159.140625 268.851562 160.164062 268.523438 C 160.371094 268.457031 160.722656 268.277344 161.222656 267.992188 C 163.484375 266.691406 165.921875 265.757812 168.535156 265.191406 C 173.023438 264.222656 177.488281 264.070312 181.921875 264.742188 C 183.992188 265.054688 185.980469 265.472656 187.890625 265.996094 C 189.191406 266.351562 190.089844 266.589844 190.589844 266.707031 C 191.765625 266.988281 193.09375 267.210938 194.566406 267.378906 C 197.992188 267.765625 201.449219 267.839844 204.929688 267.601562 C 204.960938 267.601562 204.972656 267.613281 204.964844 267.640625 C 203.875 272.390625 204.015625 277.351562 205.210938 282.070312 C 205.445312 283.011719 205.832031 284.078125 206.074219 284.945312 C 206.863281 287.75 207.324219 290.488281 207.464844 293.152344 C 207.835938 300.214844 206.0625 306.664062 202.152344 312.496094 C 202.148438 312.503906 202.148438 312.503906 202.148438 312.507812 C 202.148438 312.507812 202.148438 312.511719 202.148438 312.515625 Z M 117.859375 312.515625 C 117.859375 312.941406 117.882812 313.421875 117.929688 313.949219 C 118.703125 322.386719 124.890625 328.945312 132.28125 332.476562 C 132.957031 332.796875 133.421875 333.039062 133.679688 333.199219 C 135.03125 334.042969 136.246094 335.015625 137.199219 336.210938 C 137.597656 336.710938 137.964844 337.339844 138.300781 338.105469 C 139.445312 340.707031 140.949219 343.105469 142.8125 345.300781 C 147.324219 350.621094 153.96875 354.03125 161.082031 353.105469 C 168.335938 352.15625 174.273438 347.214844 177.875 341.054688 C 178.496094 339.992188 179.007812 339.003906 179.40625 338.082031 C 179.621094 337.578125 179.820312 337.191406 179.996094 336.921875 C 180.324219 336.40625 180.675781 335.957031 181.042969 335.570312 C 182.253906 334.308594 183.652344 333.304688 185.242188 332.558594 C 192.90625 328.957031 199.390625 322.027344 199.816406 313.1875 C 199.828125 312.917969 199.835938 312.695312 199.835938 312.519531 C 199.835938 312.34375 199.828125 312.121094 199.816406 311.851562 C 199.390625 303.011719 192.910156 296.082031 185.242188 292.480469 C 183.65625 291.734375 182.257812 290.730469 181.046875 289.464844 C 180.679688 289.082031 180.328125 288.632812 180 288.117188 C 179.824219 287.847656 179.628906 287.457031 179.410156 286.957031 C 179.011719 286.035156 178.5 285.042969 177.878906 283.980469 C 174.28125 277.820312 168.34375 272.878906 161.085938 271.929688 C 153.976562 271 147.328125 274.410156 142.816406 279.730469 C 140.953125 281.925781 139.449219 284.324219 138.304688 286.925781 C 137.96875 287.691406 137.601562 288.320312 137.203125 288.820312 C 136.25 290.015625 135.03125 290.988281 133.683594 291.828125 C 133.425781 291.992188 132.957031 292.230469 132.285156 292.554688 C 124.894531 296.082031 118.707031 302.640625 117.929688 311.078125 C 117.882812 311.605469 117.859375 312.085938 117.859375 312.515625 Z M 117.859375 312.515625 "/><path style=" stroke:none;fill-rule:nonzero;fill:#6fbf73;fill-opacity:1;" d="M 158.960938 277.699219 C 160.46875 277.699219 161.84375 278.4375 162.691406 279.664062 C 163.28125 280.511719 163.539062 281.492188 163.472656 282.609375 C 163.472656 282.636719 163.484375 282.65625 163.511719 282.664062 C 166.078125 283.390625 168.289062 284.738281 170.144531 286.710938 C 172.609375 289.328125 174.25 292.644531 175.421875 296.011719 C 175.429688 296.039062 175.449219 296.054688 175.472656 296.0625 C 177.28125 296.683594 179.003906 297.445312 180.636719 298.347656 C 184.429688 300.445312 187.488281 303.496094 188.746094 307.730469 C 188.753906 307.757812 188.769531 307.769531 188.796875 307.765625 C 189.914062 307.683594 190.898438 307.925781 191.75 308.496094 C 194.589844 310.394531 194.414062 314.613281 191.414062 316.25 C 190.664062 316.660156 189.839844 316.835938 188.933594 316.785156 C 188.910156 316.785156 188.894531 316.796875 188.886719 316.820312 C 188.082031 319.777344 186.503906 322.25 184.160156 324.242188 C 182.558594 325.605469 180.765625 326.710938 178.886719 327.578125 C 178.328125 327.835938 177.914062 328.050781 177.648438 328.21875 C 176.515625 328.945312 175.550781 329.789062 174.8125 330.878906 C 174.625 331.15625 174.425781 331.546875 174.210938 332.046875 C 174.117188 332.265625 173.925781 332.660156 173.636719 333.234375 C 171.488281 337.507812 168.234375 341.070312 163.496094 342.371094 C 163.476562 342.375 163.464844 342.390625 163.46875 342.410156 C 163.738281 345.046875 161.585938 347.335938 158.960938 347.335938 C 156.339844 347.335938 154.183594 345.046875 154.453125 342.410156 C 154.457031 342.390625 154.449219 342.375 154.425781 342.371094 C 149.6875 341.070312 146.433594 337.507812 144.285156 333.234375 C 143.996094 332.660156 143.804688 332.265625 143.710938 332.046875 C 143.496094 331.546875 143.296875 331.15625 143.109375 330.878906 C 142.371094 329.789062 141.40625 328.945312 140.273438 328.21875 C 140.007812 328.050781 139.59375 327.835938 139.035156 327.578125 C 137.15625 326.710938 135.363281 325.605469 133.761719 324.242188 C 131.417969 322.25 129.839844 319.777344 129.035156 316.820312 C 129.027344 316.796875 129.011719 316.785156 128.988281 316.785156 C 128.082031 316.835938 127.257812 316.660156 126.511719 316.25 C 123.507812 314.613281 123.332031 310.394531 126.171875 308.496094 C 127.023438 307.925781 128.011719 307.683594 129.125 307.765625 C 129.152344 307.769531 129.171875 307.757812 129.179688 307.730469 C 130.4375 303.496094 133.496094 300.445312 137.285156 298.347656 C 138.917969 297.445312 140.640625 296.683594 142.449219 296.0625 C 142.476562 296.054688 142.492188 296.039062 142.5 296.011719 C 143.671875 292.644531 145.3125 289.328125 147.777344 286.710938 C 149.636719 284.738281 151.847656 283.390625 154.410156 282.664062 C 154.4375 282.65625 154.449219 282.636719 154.449219 282.609375 C 154.382812 281.492188 154.644531 280.511719 155.230469 279.664062 C 156.078125 278.4375 157.453125 277.699219 158.960938 277.699219 Z M 144.5625 298.097656 C 144.4375 298.222656 144.199219 298.476562 143.851562 298.859375 C 140.433594 302.621094 138.3125 307.402344 138.308594 312.503906 C 138.304688 317.609375 140.421875 322.390625 143.835938 326.160156 C 144.183594 326.539062 144.417969 326.792969 144.542969 326.917969 C 144.667969 327.042969 144.921875 327.277344 145.300781 327.625 C 149.0625 331.046875 153.847656 333.167969 158.949219 333.167969 C 164.050781 333.171875 168.835938 331.058594 172.601562 327.640625 C 172.984375 327.296875 173.238281 327.058594 173.363281 326.933594 C 173.488281 326.8125 173.722656 326.558594 174.070312 326.175781 C 177.488281 322.414062 179.609375 317.632812 179.613281 312.53125 C 179.617188 307.425781 177.503906 302.640625 174.085938 298.875 C 173.738281 298.492188 173.503906 298.242188 173.378906 298.117188 C 173.253906 297.992188 173.003906 297.757812 172.621094 297.410156 C 168.859375 293.988281 164.078125 291.867188 158.972656 291.863281 C 153.871094 291.863281 149.085938 293.976562 145.320312 297.390625 C 144.9375 297.738281 144.683594 297.976562 144.5625 298.097656 Z M 144.5625 298.097656 "/><path style=" stroke:none;fill-rule:nonzero;fill:#6fbf73;fill-opacity:1;" d="M 158.996094 297.867188 C 159.15625 297.867188 159.289062 297.949219 159.398438 298.105469 C 160.542969 299.796875 161.691406 301.488281 162.839844 303.183594 C 162.839844 303.179688 162.839844 303.183594 162.847656 303.1875 C 162.847656 303.1875 162.851562 303.1875 162.851562 303.1875 C 162.851562 303.1875 162.855469 303.1875 162.855469 303.1875 C 162.859375 303.191406 162.863281 303.191406 162.863281 303.191406 C 164.875 302.816406 166.882812 302.441406 168.894531 302.0625 C 169.078125 302.027344 169.230469 302.070312 169.34375 302.183594 C 169.457031 302.296875 169.496094 302.449219 169.460938 302.636719 C 169.074219 304.644531 168.6875 306.652344 168.304688 308.660156 C 168.304688 308.660156 168.304688 308.664062 168.308594 308.667969 C 168.308594 308.667969 168.308594 308.667969 168.308594 308.671875 C 168.308594 308.671875 168.308594 308.671875 168.3125 308.675781 C 168.3125 308.683594 168.316406 308.683594 168.316406 308.683594 C 170 309.839844 171.6875 310.992188 173.375 312.148438 C 173.53125 312.253906 173.609375 312.390625 173.609375 312.550781 C 173.609375 312.710938 173.53125 312.847656 173.375 312.953125 C 171.679688 314.101562 169.988281 315.246094 168.296875 316.394531 C 168.296875 316.394531 168.296875 316.398438 168.292969 316.402344 C 168.292969 316.40625 168.292969 316.40625 168.292969 316.40625 C 168.289062 316.410156 168.289062 316.410156 168.289062 316.410156 C 168.289062 316.417969 168.285156 316.421875 168.285156 316.421875 C 168.285156 316.425781 168.285156 316.425781 168.289062 316.417969 C 168.660156 318.429688 169.039062 320.4375 169.414062 322.449219 C 169.449219 322.636719 169.410156 322.785156 169.296875 322.898438 C 169.179688 323.011719 169.03125 323.050781 168.84375 323.015625 C 166.835938 322.628906 164.828125 322.246094 162.820312 321.859375 C 162.820312 321.859375 162.816406 321.863281 162.8125 321.863281 C 162.808594 321.863281 162.808594 321.863281 162.808594 321.867188 C 162.808594 321.867188 162.804688 321.867188 162.804688 321.867188 C 162.796875 321.871094 162.792969 321.871094 162.796875 321.871094 C 161.640625 323.558594 160.484375 325.242188 159.332031 326.933594 C 159.222656 327.089844 159.089844 327.167969 158.925781 327.167969 C 158.765625 327.164062 158.632812 327.085938 158.523438 326.929688 C 157.378906 325.238281 156.230469 323.542969 155.082031 321.851562 C 155.085938 321.855469 155.085938 321.851562 155.082031 321.851562 C 155.082031 321.851562 155.078125 321.851562 155.074219 321.847656 C 155.074219 321.847656 155.074219 321.847656 155.070312 321.847656 C 155.070312 321.847656 155.070312 321.847656 155.066406 321.84375 C 155.058594 321.84375 155.054688 321.839844 155.058594 321.84375 C 153.050781 322.21875 151.039062 322.59375 149.03125 322.972656 C 148.84375 323.003906 148.691406 322.964844 148.578125 322.851562 C 148.464844 322.738281 148.425781 322.585938 148.460938 322.398438 C 148.847656 320.390625 149.234375 318.382812 149.617188 316.375 C 149.621094 316.378906 149.621094 316.382812 149.621094 316.378906 C 149.617188 316.375 149.617188 316.371094 149.613281 316.367188 C 149.613281 316.367188 149.613281 316.363281 149.613281 316.363281 C 149.613281 316.363281 149.613281 316.363281 149.613281 316.359375 C 149.609375 316.351562 149.605469 316.351562 149.605469 316.351562 C 147.921875 315.195312 146.234375 314.039062 144.546875 312.886719 C 144.390625 312.78125 144.3125 312.644531 144.3125 312.484375 C 144.3125 312.320312 144.390625 312.1875 144.546875 312.082031 C 146.242188 310.933594 147.933594 309.785156 149.625 308.636719 C 149.625 308.640625 149.625 308.640625 149.625 308.640625 C 149.628906 308.636719 149.628906 308.636719 149.628906 308.632812 C 149.628906 308.628906 149.632812 308.628906 149.632812 308.628906 C 149.632812 308.625 149.632812 308.625 149.632812 308.625 C 149.632812 308.621094 149.636719 308.617188 149.636719 308.617188 C 149.261719 306.605469 148.882812 304.597656 148.507812 302.585938 C 148.472656 302.398438 148.511719 302.25 148.625 302.136719 C 148.742188 302.019531 148.890625 301.980469 149.078125 302.015625 C 151.085938 302.402344 153.09375 302.789062 155.101562 303.171875 C 155.097656 303.175781 155.097656 303.175781 155.101562 303.175781 C 155.101562 303.175781 155.105469 303.171875 155.109375 303.171875 C 155.113281 303.171875 155.113281 303.171875 155.113281 303.167969 C 155.117188 303.167969 155.117188 303.167969 155.117188 303.167969 C 155.125 303.164062 155.128906 303.164062 155.125 303.164062 C 156.28125 301.476562 157.4375 299.789062 158.589844 298.101562 C 158.699219 297.945312 158.832031 297.867188 158.996094 297.867188 Z M 158.996094 297.867188 "/><path style=" stroke:none;fill-rule:nonzero;fill:#edb22e;fill-opacity:1;" d="M 37.46875 317.769531 C 39.011719 317.769531 40.378906 318.75 40.878906 320.203125 C 41.105469 320.863281 41.132812 321.5625 40.960938 322.289062 C 40.957031 322.304688 40.960938 322.3125 40.976562 322.316406 C 41.738281 322.550781 42.425781 322.816406 43.035156 323.117188 C 47.496094 325.304688 50.515625 329.660156 51.964844 334.308594 C 51.964844 334.308594 51.964844 334.3125 51.96875 334.3125 C 51.96875 334.3125 51.96875 334.316406 51.972656 334.316406 C 51.972656 334.316406 51.972656 334.316406 51.972656 334.320312 C 51.976562 334.320312 51.980469 334.324219 51.980469 334.324219 C 56.625 335.769531 60.984375 338.792969 63.171875 343.25 C 63.472656 343.863281 63.738281 344.550781 63.96875 345.3125 C 63.972656 345.328125 63.984375 345.332031 63.996094 345.328125 C 64.726562 345.152344 65.421875 345.179688 66.082031 345.410156 C 67.535156 345.910156 68.519531 347.277344 68.519531 348.820312 C 68.519531 350.367188 67.535156 351.730469 66.082031 352.234375 C 65.421875 352.460938 64.726562 352.488281 63.996094 352.316406 C 63.984375 352.3125 63.972656 352.316406 63.96875 352.328125 C 63.738281 353.09375 63.46875 353.78125 63.171875 354.390625 C 60.980469 358.851562 56.625 361.871094 51.980469 363.320312 C 51.976562 363.320312 51.976562 363.320312 51.972656 363.324219 C 51.972656 363.324219 51.972656 363.324219 51.96875 363.324219 C 51.96875 363.328125 51.96875 363.328125 51.96875 363.328125 C 51.964844 363.332031 51.964844 363.335938 51.964844 363.335938 C 50.515625 367.980469 47.492188 372.335938 43.035156 374.527344 C 42.425781 374.824219 41.738281 375.089844 40.972656 375.324219 C 40.960938 375.328125 40.953125 375.335938 40.957031 375.351562 C 41.132812 376.082031 41.105469 376.777344 40.878906 377.4375 C 40.375 378.890625 39.011719 379.875 37.464844 379.875 C 35.917969 379.875 34.554688 378.890625 34.054688 377.4375 C 33.824219 376.777344 33.796875 376.082031 33.972656 375.351562 C 33.976562 375.335938 33.96875 375.328125 33.957031 375.324219 C 33.191406 375.089844 32.503906 374.824219 31.894531 374.527344 C 27.4375 372.335938 24.414062 367.980469 22.96875 363.335938 C 22.96875 363.332031 22.964844 363.332031 22.964844 363.328125 C 22.960938 363.328125 22.960938 363.324219 22.960938 363.324219 C 22.960938 363.324219 22.960938 363.324219 22.957031 363.320312 C 22.953125 363.320312 22.953125 363.316406 22.953125 363.316406 C 18.304688 361.871094 13.949219 358.847656 11.761719 354.390625 C 11.460938 353.777344 11.195312 353.09375 10.960938 352.328125 C 10.957031 352.316406 10.949219 352.308594 10.933594 352.3125 C 10.207031 352.488281 9.511719 352.460938 8.847656 352.230469 C 7.394531 351.730469 6.414062 350.367188 6.414062 348.820312 C 6.414062 347.273438 7.394531 345.910156 8.847656 345.40625 C 9.511719 345.179688 10.207031 345.152344 10.933594 345.328125 C 10.949219 345.328125 10.957031 345.324219 10.960938 345.3125 C 11.195312 344.546875 11.460938 343.859375 11.761719 343.25 C 13.949219 338.792969 18.304688 335.769531 22.953125 334.324219 C 22.953125 334.324219 22.957031 334.320312 22.957031 334.316406 C 22.960938 334.316406 22.960938 334.316406 22.960938 334.316406 C 22.960938 334.316406 22.964844 334.3125 22.964844 334.3125 C 22.96875 334.308594 22.96875 334.308594 22.96875 334.304688 C 24.417969 329.660156 27.4375 325.304688 31.898438 323.117188 C 32.507812 322.816406 33.195312 322.550781 33.957031 322.316406 C 33.972656 322.3125 33.976562 322.304688 33.972656 322.289062 C 33.800781 321.558594 33.828125 320.863281 34.054688 320.203125 C 34.554688 318.75 35.921875 317.765625 37.46875 317.769531 Z M 17.5625 348.714844 C 17.566406 350.558594 17.8125 352.347656 18.300781 354.085938 C 20.703125 362.640625 28.464844 368.65625 37.394531 368.636719 C 46.324219 368.621094 54.0625 362.578125 56.433594 354.015625 C 56.917969 352.273438 57.15625 350.484375 57.152344 348.644531 C 57.148438 346.804688 56.902344 345.015625 56.414062 343.273438 C 54.011719 334.722656 46.25 328.707031 37.320312 328.722656 C 28.390625 328.738281 20.652344 334.78125 18.28125 343.34375 C 17.800781 345.085938 17.558594 346.875 17.5625 348.714844 Z M 17.5625 348.714844 "/><path style=" stroke:none;fill-rule:nonzero;fill:#edb22e;fill-opacity:1;" d="M 37.464844 329.6875 C 38.964844 329.6875 40.175781 330.878906 40.210938 332.378906 C 40.222656 332.957031 40.058594 333.5 39.714844 334.003906 C 39.707031 334.015625 39.710938 334.027344 39.722656 334.035156 C 42.058594 335.742188 43.917969 337.863281 45.292969 340.402344 C 45.292969 340.40625 45.296875 340.40625 45.296875 340.40625 C 45.296875 340.40625 45.296875 340.410156 45.300781 340.410156 C 47.839844 341.789062 49.960938 343.644531 51.667969 345.980469 C 51.675781 345.996094 51.6875 345.996094 51.703125 345.988281 C 52.203125 345.648438 52.746094 345.480469 53.324219 345.496094 C 54.828125 345.527344 56.019531 346.742188 56.019531 348.238281 C 56.019531 349.734375 54.828125 350.949219 53.324219 350.980469 C 52.746094 350.992188 52.203125 350.828125 51.703125 350.488281 C 51.6875 350.480469 51.675781 350.480469 51.667969 350.492188 C 49.960938 352.832031 47.839844 354.6875 45.300781 356.0625 C 45.296875 356.066406 45.296875 356.066406 45.296875 356.066406 C 45.296875 356.066406 45.292969 356.070312 45.292969 356.074219 C 43.917969 358.609375 42.058594 360.734375 39.722656 362.4375 C 39.710938 362.449219 39.707031 362.460938 39.714844 362.472656 C 40.058594 362.976562 40.222656 363.515625 40.210938 364.097656 C 40.175781 365.597656 38.964844 366.789062 37.464844 366.789062 C 35.96875 366.789062 34.753906 365.597656 34.722656 364.097656 C 34.710938 363.515625 34.875 362.976562 35.214844 362.472656 C 35.226562 362.460938 35.222656 362.449219 35.210938 362.4375 C 32.875 360.734375 31.015625 358.609375 29.640625 356.074219 C 29.636719 356.070312 29.636719 356.066406 29.636719 356.066406 C 29.636719 356.066406 29.632812 356.066406 29.632812 356.0625 C 27.09375 354.6875 24.972656 352.832031 23.265625 350.492188 C 23.257812 350.480469 23.246094 350.480469 23.230469 350.488281 C 22.730469 350.828125 22.1875 350.992188 21.605469 350.980469 C 20.105469 350.949219 18.914062 349.734375 18.914062 348.238281 C 18.914062 346.742188 20.105469 345.527344 21.605469 345.496094 C 22.1875 345.480469 22.730469 345.648438 23.230469 345.988281 C 23.246094 345.996094 23.257812 345.996094 23.265625 345.980469 C 24.972656 343.644531 27.09375 341.789062 29.632812 340.410156 C 29.632812 340.410156 29.636719 340.40625 29.636719 340.40625 C 29.636719 340.40625 29.636719 340.40625 29.640625 340.402344 C 31.015625 337.863281 32.875 335.742188 35.210938 334.035156 C 35.222656 334.027344 35.226562 334.015625 35.214844 334.003906 C 34.875 333.5 34.710938 332.957031 34.722656 332.378906 C 34.753906 330.878906 35.96875 329.6875 37.464844 329.6875 Z M 29.648438 340.417969 C 29.644531 340.421875 29.644531 340.421875 29.644531 340.425781 C 28.359375 342.808594 27.652344 345.511719 27.773438 348.226562 C 27.773438 348.230469 27.773438 348.234375 27.773438 348.234375 C 27.773438 348.238281 27.773438 348.242188 27.773438 348.246094 C 27.648438 350.960938 28.359375 353.664062 29.640625 356.050781 C 29.640625 356.050781 29.640625 356.050781 29.644531 356.054688 C 29.648438 356.058594 29.652344 356.0625 29.652344 356.0625 C 32.035156 357.34375 34.738281 358.054688 37.453125 357.929688 C 37.457031 357.929688 37.460938 357.929688 37.464844 357.929688 C 37.46875 357.929688 37.46875 357.929688 37.472656 357.929688 C 40.1875 358.054688 42.890625 357.34375 45.277344 356.0625 C 45.277344 356.0625 45.28125 356.0625 45.285156 356.058594 C 45.285156 356.054688 45.289062 356.050781 45.289062 356.050781 C 46.570312 353.667969 47.28125 350.964844 47.160156 348.25 C 47.160156 348.246094 47.160156 348.242188 47.160156 348.238281 C 47.160156 348.238281 47.160156 348.234375 47.160156 348.230469 C 47.28125 345.515625 46.574219 342.8125 45.292969 340.425781 C 45.292969 340.425781 45.289062 340.425781 45.285156 340.421875 C 45.28125 340.417969 45.28125 340.414062 45.28125 340.414062 C 42.894531 339.132812 40.191406 338.421875 37.476562 338.546875 C 37.472656 338.546875 37.46875 338.546875 37.46875 338.546875 C 37.464844 338.546875 37.460938 338.546875 37.457031 338.546875 C 34.742188 338.421875 32.039062 339.128906 29.65625 340.410156 C 29.65625 340.410156 29.652344 340.414062 29.648438 340.417969 Z M 29.648438 340.417969 "/><path style=" stroke:none;fill-rule:nonzero;fill:#edb22e;fill-opacity:1;" d="M 42.042969 348.820312 C 42.042969 349.121094 42.015625 349.417969 41.957031 349.714844 C 41.898438 350.007812 41.808594 350.296875 41.695312 350.574219 C 41.578125 350.851562 41.4375 351.113281 41.273438 351.363281 C 41.105469 351.613281 40.914062 351.84375 40.703125 352.058594 C 40.488281 352.269531 40.257812 352.460938 40.007812 352.625 C 39.757812 352.792969 39.496094 352.933594 39.21875 353.050781 C 38.941406 353.164062 38.652344 353.25 38.359375 353.308594 C 38.0625 353.367188 37.765625 353.398438 37.464844 353.398438 C 37.164062 353.398438 36.867188 353.367188 36.574219 353.308594 C 36.277344 353.25 35.992188 353.164062 35.714844 353.050781 C 35.4375 352.933594 35.171875 352.792969 34.921875 352.625 C 34.671875 352.460938 34.441406 352.269531 34.230469 352.058594 C 34.015625 351.84375 33.828125 351.613281 33.660156 351.363281 C 33.492188 351.113281 33.351562 350.851562 33.238281 350.574219 C 33.121094 350.296875 33.035156 350.007812 32.976562 349.714844 C 32.917969 349.417969 32.890625 349.121094 32.890625 348.820312 C 32.890625 348.519531 32.917969 348.222656 32.976562 347.929688 C 33.035156 347.632812 33.121094 347.347656 33.238281 347.070312 C 33.351562 346.792969 33.492188 346.527344 33.660156 346.277344 C 33.828125 346.027344 34.015625 345.796875 34.230469 345.585938 C 34.441406 345.371094 34.671875 345.183594 34.921875 345.015625 C 35.171875 344.847656 35.4375 344.707031 35.714844 344.59375 C 35.992188 344.476562 36.277344 344.390625 36.574219 344.332031 C 36.867188 344.273438 37.164062 344.242188 37.464844 344.242188 C 37.765625 344.242188 38.0625 344.273438 38.359375 344.332031 C 38.652344 344.390625 38.941406 344.476562 39.21875 344.59375 C 39.496094 344.707031 39.757812 344.847656 40.007812 345.015625 C 40.257812 345.183594 40.488281 345.371094 40.703125 345.585938 C 40.914062 345.796875 41.105469 346.027344 41.273438 346.277344 C 41.4375 346.527344 41.578125 346.792969 41.695312 347.070312 C 41.808594 347.347656 41.898438 347.632812 41.957031 347.929688 C 42.015625 348.222656 42.042969 348.519531 42.042969 348.820312 Z M 42.042969 348.820312 "/><path style=" stroke:none;fill-rule:nonzero;fill:#edb22e;fill-opacity:1;" d="M 363.75 270.835938 C 364.867188 270.835938 365.851562 271.542969 366.210938 272.59375 C 366.378906 273.070312 366.398438 273.574219 366.269531 274.097656 C 366.269531 274.109375 366.273438 274.113281 366.28125 274.117188 C 366.832031 274.285156 367.328125 274.476562 367.769531 274.695312 C 370.988281 276.273438 373.167969 279.417969 374.210938 282.769531 C 374.210938 282.773438 374.214844 282.773438 374.214844 282.773438 C 374.214844 282.777344 374.21875 282.777344 374.21875 282.777344 C 374.222656 282.78125 374.222656 282.78125 374.222656 282.78125 C 377.578125 283.828125 380.722656 286.007812 382.300781 289.226562 C 382.515625 289.664062 382.707031 290.160156 382.875 290.714844 C 382.878906 290.722656 382.886719 290.726562 382.894531 290.722656 C 383.421875 290.597656 383.925781 290.617188 384.402344 290.78125 C 385.449219 291.144531 386.160156 292.128906 386.160156 293.246094 C 386.160156 294.359375 385.449219 295.34375 384.402344 295.707031 C 383.925781 295.871094 383.421875 295.890625 382.894531 295.765625 C 382.886719 295.761719 382.878906 295.765625 382.875 295.777344 C 382.707031 296.328125 382.515625 296.824219 382.300781 297.265625 C 380.71875 300.480469 377.574219 302.664062 374.222656 303.707031 C 374.222656 303.707031 374.222656 303.707031 374.21875 303.710938 C 374.214844 303.710938 374.214844 303.714844 374.214844 303.714844 C 374.214844 303.714844 374.210938 303.71875 374.210938 303.71875 C 373.167969 307.070312 370.988281 310.214844 367.769531 311.792969 C 367.328125 312.011719 366.832031 312.203125 366.28125 312.371094 C 366.269531 312.375 366.269531 312.378906 366.269531 312.390625 C 366.394531 312.917969 366.375 313.417969 366.210938 313.894531 C 365.851562 314.945312 364.863281 315.652344 363.75 315.652344 C 362.632812 315.652344 361.648438 314.945312 361.289062 313.894531 C 361.121094 313.417969 361.101562 312.917969 361.226562 312.390625 C 361.230469 312.378906 361.226562 312.375 361.21875 312.371094 C 360.667969 312.203125 360.171875 312.011719 359.730469 311.792969 C 356.511719 310.214844 354.332031 307.070312 353.289062 303.71875 C 353.289062 303.71875 353.285156 303.714844 353.285156 303.714844 C 353.285156 303.710938 353.28125 303.710938 353.28125 303.710938 C 353.277344 303.707031 353.277344 303.707031 353.277344 303.707031 C 349.921875 302.660156 346.777344 300.480469 345.199219 297.261719 C 344.984375 296.824219 344.792969 296.328125 344.625 295.777344 C 344.621094 295.765625 344.613281 295.761719 344.605469 295.765625 C 344.078125 295.890625 343.574219 295.871094 343.097656 295.707031 C 342.050781 295.34375 341.339844 294.359375 341.339844 293.242188 C 341.339844 292.128906 342.050781 291.144531 343.097656 290.78125 C 343.574219 290.617188 344.078125 290.597656 344.605469 290.722656 C 344.613281 290.726562 344.621094 290.722656 344.625 290.710938 C 344.792969 290.160156 344.984375 289.664062 345.199219 289.226562 C 346.78125 286.007812 349.921875 283.828125 353.277344 282.78125 C 353.277344 282.78125 353.277344 282.78125 353.28125 282.777344 C 353.285156 282.777344 353.285156 282.777344 353.285156 282.773438 C 353.289062 282.773438 353.289062 282.769531 353.289062 282.769531 C 354.332031 279.417969 356.511719 276.273438 359.730469 274.695312 C 360.171875 274.476562 360.667969 274.285156 361.21875 274.117188 C 361.226562 274.113281 361.230469 274.109375 361.230469 274.097656 C 361.105469 273.570312 361.125 273.070312 361.289062 272.59375 C 361.648438 271.542969 362.636719 270.835938 363.75 270.835938 Z M 349.386719 293.167969 C 349.390625 294.496094 349.566406 295.789062 349.917969 297.042969 C 351.652344 303.214844 357.253906 307.558594 363.699219 307.546875 C 370.140625 307.535156 375.726562 303.171875 377.4375 296.992188 C 377.785156 295.738281 377.960938 294.445312 377.957031 293.117188 C 377.953125 291.789062 377.777344 290.496094 377.425781 289.242188 C 375.691406 283.070312 370.089844 278.730469 363.644531 278.742188 C 357.203125 278.753906 351.617188 283.113281 349.90625 289.292969 C 349.558594 290.550781 349.382812 291.839844 349.386719 293.167969 Z M 349.386719 293.167969 "/><path style=" stroke:none;fill-rule:nonzero;fill:#edb22e;fill-opacity:1;" d="M 363.75 279.4375 C 364.832031 279.4375 365.707031 280.296875 365.730469 281.378906 C 365.738281 281.796875 365.621094 282.1875 365.375 282.550781 C 365.367188 282.558594 365.367188 282.570312 365.378906 282.574219 C 367.066406 283.804688 368.40625 285.335938 369.398438 287.167969 C 369.398438 287.171875 369.398438 287.171875 369.398438 287.171875 C 369.402344 287.171875 369.402344 287.175781 369.40625 287.175781 C 371.234375 288.167969 372.765625 289.507812 374 291.195312 C 374.003906 291.203125 374.011719 291.207031 374.023438 291.199219 C 374.386719 290.953125 374.777344 290.835938 375.195312 290.84375 C 376.277344 290.867188 377.136719 291.742188 377.136719 292.824219 C 377.136719 293.902344 376.277344 294.78125 375.195312 294.804688 C 374.777344 294.8125 374.386719 294.695312 374.023438 294.449219 C 374.011719 294.441406 374.003906 294.441406 374 294.453125 C 372.765625 296.136719 371.234375 297.476562 369.40625 298.472656 C 369.402344 298.472656 369.402344 298.472656 369.398438 298.472656 C 369.398438 298.472656 369.398438 298.476562 369.398438 298.476562 C 368.40625 300.308594 367.066406 301.839844 365.378906 303.070312 C 365.367188 303.078125 365.367188 303.085938 365.375 303.097656 C 365.621094 303.457031 365.738281 303.847656 365.730469 304.269531 C 365.707031 305.351562 364.832031 306.210938 363.75 306.210938 C 362.671875 306.210938 361.792969 305.351562 361.769531 304.269531 C 361.761719 303.847656 361.878906 303.457031 362.125 303.097656 C 362.132812 303.085938 362.132812 303.078125 362.121094 303.070312 C 360.433594 301.839844 359.09375 300.308594 358.101562 298.476562 C 358.101562 298.476562 358.101562 298.472656 358.101562 298.472656 C 358.101562 298.472656 358.097656 298.472656 358.097656 298.472656 C 356.265625 297.476562 354.734375 296.136719 353.503906 294.453125 C 353.496094 294.441406 353.488281 294.441406 353.476562 294.449219 C 353.113281 294.695312 352.722656 294.8125 352.304688 294.804688 C 351.222656 294.78125 350.363281 293.902344 350.363281 292.824219 C 350.363281 291.742188 351.222656 290.867188 352.304688 290.84375 C 352.722656 290.835938 353.113281 290.953125 353.476562 291.199219 C 353.488281 291.207031 353.496094 291.203125 353.503906 291.195312 C 354.734375 289.507812 356.265625 288.167969 358.097656 287.175781 C 358.097656 287.175781 358.101562 287.171875 358.101562 287.171875 C 358.101562 287.171875 358.101562 287.171875 358.101562 287.167969 C 359.09375 285.335938 360.433594 283.804688 362.121094 282.574219 C 362.132812 282.570312 362.132812 282.558594 362.125 282.550781 C 361.878906 282.1875 361.761719 281.796875 361.769531 281.378906 C 361.792969 280.296875 362.671875 279.4375 363.75 279.4375 Z M 358.109375 287.179688 C 358.105469 287.183594 358.105469 287.183594 358.105469 287.183594 C 357.179688 288.90625 356.667969 290.855469 356.753906 292.816406 C 356.753906 292.816406 356.753906 292.820312 356.753906 292.824219 C 356.753906 292.824219 356.753906 292.828125 356.753906 292.828125 C 356.667969 294.789062 357.175781 296.738281 358.101562 298.460938 C 358.101562 298.460938 358.105469 298.460938 358.105469 298.464844 C 358.109375 298.46875 358.109375 298.46875 358.109375 298.46875 C 359.832031 299.394531 361.78125 299.90625 363.742188 299.820312 C 363.746094 299.816406 363.746094 299.816406 363.75 299.816406 C 363.75 299.816406 363.753906 299.816406 363.757812 299.820312 C 365.714844 299.90625 367.664062 299.394531 369.386719 298.472656 C 369.386719 298.472656 369.390625 298.46875 369.390625 298.46875 C 369.394531 298.464844 369.394531 298.464844 369.394531 298.464844 C 370.320312 296.742188 370.832031 294.792969 370.746094 292.832031 C 370.746094 292.828125 370.746094 292.828125 370.746094 292.824219 C 370.746094 292.824219 370.746094 292.820312 370.746094 292.816406 C 370.835938 290.859375 370.324219 288.90625 369.398438 287.1875 C 369.398438 287.1875 369.394531 287.183594 369.394531 287.183594 C 369.390625 287.179688 369.390625 287.179688 369.390625 287.179688 C 367.667969 286.253906 365.71875 285.742188 363.757812 285.828125 C 363.753906 285.828125 363.753906 285.828125 363.75 285.828125 C 363.75 285.828125 363.746094 285.828125 363.742188 285.828125 C 361.785156 285.738281 359.835938 286.25 358.113281 287.175781 C 358.113281 287.175781 358.109375 287.175781 358.109375 287.179688 Z M 358.109375 287.179688 "/><path style=" stroke:none;fill-rule:nonzero;fill:#edb22e;fill-opacity:1;" d="M 367.054688 293.246094 C 367.054688 293.683594 366.96875 294.105469 366.800781 294.507812 C 366.632812 294.914062 366.394531 295.269531 366.085938 295.582031 C 365.777344 295.890625 365.417969 296.128906 365.015625 296.296875 C 364.609375 296.464844 364.1875 296.546875 363.75 296.546875 C 363.3125 296.546875 362.890625 296.464844 362.484375 296.296875 C 362.082031 296.128906 361.722656 295.890625 361.414062 295.582031 C 361.105469 295.269531 360.867188 294.914062 360.699219 294.507812 C 360.53125 294.105469 360.445312 293.683594 360.445312 293.246094 C 360.445312 292.804688 360.53125 292.386719 360.699219 291.980469 C 360.867188 291.574219 361.105469 291.21875 361.414062 290.910156 C 361.722656 290.597656 362.082031 290.359375 362.484375 290.191406 C 362.890625 290.023438 363.3125 289.941406 363.75 289.941406 C 364.1875 289.941406 364.609375 290.023438 365.015625 290.191406 C 365.417969 290.359375 365.777344 290.597656 366.085938 290.910156 C 366.394531 291.21875 366.632812 291.574219 366.800781 291.980469 C 366.96875 292.386719 367.054688 292.804688 367.054688 293.246094 Z M 367.054688 293.246094 "/><path style=" stroke:none;fill-rule:nonzero;fill:#d09760;fill-opacity:1;" d="M 73.199219 260.917969 C 75.496094 260.917969 77.691406 261.808594 79.355469 263.375 C 80.351562 264.316406 81.105469 265.445312 81.613281 266.769531 C 81.617188 266.777344 81.621094 266.78125 81.628906 266.78125 C 82.496094 266.980469 83.226562 267.367188 83.828125 267.933594 C 84.53125 268.601562 84.988281 269.414062 85.195312 270.371094 C 85.199219 270.378906 85.203125 270.386719 85.214844 270.390625 C 88.71875 271.695312 91.097656 275.0625 91.097656 278.800781 C 91.097656 282.539062 88.71875 285.90625 85.210938 287.210938 C 85.203125 287.214844 85.195312 287.21875 85.195312 287.230469 C 84.988281 288.1875 84.53125 289 83.824219 289.667969 C 83.226562 290.234375 82.492188 290.617188 81.628906 290.816406 C 81.621094 290.820312 81.617188 290.824219 81.613281 290.832031 C 81.105469 292.152344 80.351562 293.285156 79.351562 294.226562 C 77.6875 295.792969 75.496094 296.683594 73.195312 296.679688 C 70.894531 296.679688 68.703125 295.789062 67.039062 294.222656 C 66.039062 293.285156 65.285156 292.152344 64.777344 290.828125 C 64.773438 290.824219 64.769531 290.820312 64.761719 290.816406 C 63.898438 290.617188 63.164062 290.234375 62.566406 289.664062 C 61.859375 288.996094 61.402344 288.183594 61.195312 287.230469 C 61.195312 287.21875 61.1875 287.210938 61.179688 287.207031 C 57.671875 285.902344 55.292969 282.535156 55.292969 278.796875 C 55.292969 275.058594 57.675781 271.691406 61.179688 270.390625 C 61.1875 270.386719 61.195312 270.378906 61.199219 270.367188 C 61.40625 269.414062 61.863281 268.601562 62.566406 267.933594 C 63.167969 267.363281 63.898438 266.980469 64.765625 266.78125 C 64.773438 266.777344 64.777344 266.773438 64.777344 266.765625 C 65.289062 265.445312 66.042969 264.3125 67.039062 263.375 C 68.703125 261.808594 70.898438 260.917969 73.199219 260.917969 Z M 57.925781 278.800781 C 57.925781 279.507812 58.058594 280.222656 58.292969 280.890625 C 58.851562 282.476562 60.042969 283.765625 61.558594 284.480469 C 62.425781 284.894531 63.367188 285.089844 64.390625 285.074219 C 64.398438 285.074219 64.40625 285.074219 64.414062 285.074219 C 64.496094 285.097656 64.539062 285.152344 64.542969 285.238281 C 64.542969 285.25 64.542969 285.257812 64.542969 285.269531 C 64.316406 286.078125 64.207031 286.902344 64.214844 287.746094 C 64.214844 287.753906 64.21875 287.761719 64.230469 287.761719 C 65.054688 287.765625 65.867188 287.664062 66.65625 287.449219 C 66.761719 287.417969 66.824219 287.414062 66.886719 287.488281 C 66.910156 287.511719 66.917969 287.570312 66.921875 287.667969 C 66.9375 288.449219 67.074219 289.171875 67.332031 289.835938 C 67.796875 291.03125 68.550781 292 69.59375 292.742188 C 70.640625 293.488281 71.914062 293.890625 73.195312 293.890625 C 74.476562 293.890625 75.753906 293.488281 76.800781 292.742188 C 77.839844 292 78.59375 291.03125 79.058594 289.835938 C 79.316406 289.171875 79.453125 288.449219 79.472656 287.667969 C 79.472656 287.570312 79.484375 287.511719 79.503906 287.488281 C 79.570312 287.414062 79.632812 287.421875 79.734375 287.449219 C 80.527344 287.664062 81.335938 287.765625 82.160156 287.761719 C 82.171875 287.761719 82.175781 287.753906 82.175781 287.746094 C 82.183594 286.90625 82.074219 286.078125 81.851562 285.269531 C 81.847656 285.257812 81.847656 285.25 81.847656 285.238281 C 81.851562 285.152344 81.894531 285.097656 81.976562 285.074219 C 81.984375 285.074219 81.992188 285.074219 82 285.074219 C 83.023438 285.089844 83.96875 284.894531 84.832031 284.480469 C 86.347656 283.765625 87.542969 282.476562 88.101562 280.890625 C 88.335938 280.222656 88.464844 279.507812 88.464844 278.800781 C 88.464844 278.089844 88.335938 277.378906 88.101562 276.707031 C 87.542969 275.121094 86.347656 273.832031 84.835938 273.117188 C 83.96875 272.707031 83.023438 272.507812 82 272.527344 C 81.992188 272.527344 81.984375 272.523438 81.980469 272.523438 C 81.894531 272.5 81.851562 272.449219 81.847656 272.359375 C 81.847656 272.351562 81.847656 272.339844 81.851562 272.332031 C 82.074219 271.519531 82.183594 270.695312 82.175781 269.855469 C 82.175781 269.84375 82.171875 269.839844 82.160156 269.839844 C 81.335938 269.832031 80.527344 269.9375 79.734375 270.152344 C 79.632812 270.179688 79.570312 270.183594 79.503906 270.109375 C 79.484375 270.089844 79.472656 270.03125 79.472656 269.933594 C 79.453125 269.148438 79.316406 268.425781 79.058594 267.761719 C 78.59375 266.566406 77.839844 265.597656 76.800781 264.855469 C 75.753906 264.113281 74.476562 263.707031 73.195312 263.707031 C 71.917969 263.707031 70.640625 264.113281 69.59375 264.855469 C 68.550781 265.597656 67.796875 266.566406 67.332031 267.761719 C 67.074219 268.425781 66.9375 269.148438 66.921875 269.933594 C 66.917969 270.027344 66.910156 270.089844 66.886719 270.109375 C 66.824219 270.183594 66.761719 270.179688 66.65625 270.152344 C 65.867188 269.9375 65.058594 269.832031 64.230469 269.839844 C 64.21875 269.839844 64.214844 269.84375 64.214844 269.855469 C 64.207031 270.695312 64.316406 271.519531 64.542969 272.332031 C 64.542969 272.339844 64.546875 272.351562 64.542969 272.359375 C 64.539062 272.445312 64.496094 272.5 64.414062 272.523438 C 64.40625 272.523438 64.398438 272.527344 64.390625 272.527344 C 63.371094 272.507812 62.425781 272.707031 61.558594 273.117188 C 60.042969 273.832031 58.851562 275.121094 58.292969 276.707031 C 58.058594 277.378906 57.925781 278.089844 57.925781 278.800781 Z M 57.925781 278.800781 "/><path style=" stroke:none;fill-rule:nonzero;fill:#d09760;fill-opacity:1;" d="M 73.1875 267.402344 C 73.660156 267.402344 74.105469 267.445312 74.527344 267.535156 C 75.574219 267.761719 76.476562 268.257812 77.230469 269.023438 C 78.191406 270 78.820312 271.269531 79.269531 272.554688 C 79.273438 272.5625 79.28125 272.570312 79.289062 272.574219 C 80.085938 272.84375 80.835938 273.191406 81.535156 273.613281 C 81.84375 273.800781 82.152344 274.023438 82.457031 274.285156 C 83.636719 275.277344 84.289062 276.550781 84.414062 278.097656 C 84.449219 278.527344 84.441406 278.953125 84.398438 279.375 C 84.246094 280.804688 83.628906 281.996094 82.546875 282.945312 C 81.953125 283.464844 81.25 283.898438 80.53125 284.226562 C 80.34375 284.3125 80.195312 284.390625 80.085938 284.460938 C 79.667969 284.726562 79.296875 285.054688 79.023438 285.472656 C 78.96875 285.550781 78.910156 285.664062 78.847656 285.8125 C 78.453125 286.703125 77.933594 287.554688 77.257812 288.25 C 76.472656 289.058594 75.53125 289.570312 74.441406 289.785156 C 74.042969 289.863281 73.625 289.902344 73.183594 289.902344 C 72.746094 289.902344 72.324219 289.863281 71.925781 289.785156 C 70.835938 289.570312 69.898438 289.058594 69.113281 288.25 C 68.433594 287.554688 67.917969 286.699219 67.523438 285.8125 C 67.457031 285.664062 67.398438 285.550781 67.347656 285.46875 C 67.074219 285.054688 66.703125 284.726562 66.285156 284.460938 C 66.175781 284.390625 66.027344 284.3125 65.839844 284.226562 C 65.121094 283.898438 64.417969 283.464844 63.824219 282.945312 C 62.742188 281.996094 62.125 280.804688 61.972656 279.371094 C 61.929688 278.949219 61.921875 278.523438 61.957031 278.09375 C 62.082031 276.546875 62.734375 275.277344 63.914062 274.28125 C 64.21875 274.023438 64.527344 273.800781 64.835938 273.613281 C 65.535156 273.191406 66.285156 272.84375 67.082031 272.570312 C 67.09375 272.570312 67.097656 272.5625 67.101562 272.554688 C 67.550781 271.269531 68.179688 270 69.144531 269.023438 C 69.898438 268.257812 70.796875 267.761719 71.84375 267.535156 C 72.265625 267.445312 72.714844 267.402344 73.1875 267.402344 Z M 67.535156 273.679688 C 66.738281 274.585938 66.136719 275.625 65.808594 276.785156 C 65.324219 278.515625 65.539062 280.371094 66.382812 281.960938 C 67.183594 283.464844 68.328125 284.621094 69.820312 285.425781 C 71.941406 286.566406 74.425781 286.566406 76.542969 285.429688 C 77.398438 284.96875 78.191406 284.359375 78.835938 283.625 C 79.632812 282.71875 80.234375 281.679688 80.5625 280.519531 C 81.046875 278.789062 80.832031 276.933594 79.988281 275.34375 C 79.1875 273.839844 78.042969 272.6875 76.550781 271.878906 C 74.433594 270.738281 71.945312 270.738281 69.828125 271.875 C 68.972656 272.335938 68.179688 272.945312 67.535156 273.679688 Z M 67.535156 273.679688 "/><path style=" stroke:none;fill-rule:nonzero;fill:#d09760;fill-opacity:1;" d="M 76.421875 281.964844 C 76.328125 282.132812 76.242188 282.277344 76.160156 282.40625 C 75.59375 283.304688 74.878906 284.058594 74.007812 284.667969 C 73.554688 284.984375 72.945312 284.992188 72.464844 284.738281 C 72.378906 284.691406 72.238281 284.597656 72.050781 284.449219 C 71.175781 283.773438 70.472656 282.945312 69.941406 281.96875 C 69.933594 281.957031 69.929688 281.953125 69.921875 281.949219 C 68.855469 281.367188 67.96875 280.585938 67.261719 279.605469 C 67.121094 279.40625 67.03125 279.25 66.988281 279.128906 C 66.898438 278.851562 66.894531 278.574219 66.984375 278.300781 C 67.027344 278.167969 67.128906 277.996094 67.285156 277.78125 C 67.992188 276.8125 68.871094 276.042969 69.917969 275.46875 C 69.929688 275.464844 69.9375 275.457031 69.941406 275.445312 C 70.578125 274.277344 71.5 273.273438 72.628906 272.558594 C 72.902344 272.386719 73.191406 272.332031 73.503906 272.441406 C 73.601562 272.476562 73.78125 272.582031 74.03125 272.761719 C 75.03125 273.472656 75.828125 274.367188 76.414062 275.445312 C 76.421875 275.457031 76.429688 275.464844 76.441406 275.472656 C 77.523438 276.058594 78.421875 276.859375 79.136719 277.875 C 79.234375 278.007812 79.320312 278.132812 79.371094 278.277344 C 79.496094 278.613281 79.476562 278.945312 79.3125 279.269531 C 79.269531 279.351562 79.183594 279.480469 79.054688 279.660156 C 78.351562 280.613281 77.480469 281.375 76.441406 281.945312 C 76.433594 281.949219 76.425781 281.957031 76.421875 281.964844 Z M 69.9375 275.464844 C 69.9375 275.46875 69.9375 275.46875 69.9375 275.46875 C 69.40625 276.453125 69.109375 277.582031 69.160156 278.703125 C 69.160156 278.703125 69.160156 278.703125 69.160156 278.707031 C 69.160156 278.710938 69.160156 278.710938 69.160156 278.710938 C 69.105469 279.832031 69.40625 280.960938 69.9375 281.945312 C 69.9375 281.945312 69.9375 281.949219 69.9375 281.949219 C 69.9375 281.949219 69.9375 281.949219 69.941406 281.949219 C 70.925781 282.480469 72.050781 282.777344 73.171875 282.726562 C 73.171875 282.726562 73.175781 282.726562 73.179688 282.726562 C 73.179688 282.726562 73.183594 282.726562 73.183594 282.726562 C 74.304688 282.78125 75.429688 282.480469 76.417969 281.953125 C 76.417969 281.949219 76.417969 281.949219 76.417969 281.949219 C 76.417969 281.949219 76.417969 281.949219 76.421875 281.949219 C 76.953125 280.960938 77.25 279.835938 77.195312 278.714844 C 77.195312 278.714844 77.195312 278.710938 77.195312 278.710938 C 77.195312 278.707031 77.195312 278.703125 77.195312 278.703125 C 77.25 277.582031 76.953125 276.457031 76.421875 275.46875 C 76.417969 275.46875 76.417969 275.46875 76.417969 275.464844 C 75.433594 274.933594 74.304688 274.636719 73.1875 274.691406 C 73.183594 274.691406 73.183594 274.691406 73.179688 274.691406 C 73.175781 274.691406 73.175781 274.691406 73.175781 274.691406 C 72.054688 274.636719 70.925781 274.933594 69.941406 275.464844 C 69.941406 275.464844 69.9375 275.464844 69.9375 275.464844 Z M 69.9375 275.464844 "/><path style=" stroke:none;fill-rule:nonzero;fill:#d09760;fill-opacity:1;" d="M 331.851562 175.921875 C 336.933594 175.925781 341.78125 177.890625 345.453125 181.351562 C 347.660156 183.429688 349.328125 185.933594 350.449219 188.855469 C 350.457031 188.871094 350.46875 188.878906 350.484375 188.882812 C 352.394531 189.324219 354.015625 190.171875 355.339844 191.429688 C 356.898438 192.90625 357.902344 194.699219 358.363281 196.8125 C 358.367188 196.835938 358.382812 196.851562 358.402344 196.859375 C 366.148438 199.738281 371.410156 207.179688 371.40625 215.441406 C 371.40625 223.703125 366.144531 231.140625 358.402344 234.019531 C 358.378906 234.03125 358.363281 234.046875 358.359375 234.070312 C 357.902344 236.179688 356.894531 237.972656 355.335938 239.449219 C 354.011719 240.707031 352.390625 241.554688 350.480469 241.996094 C 350.464844 242 350.453125 242.007812 350.445312 242.023438 C 349.324219 244.945312 347.65625 247.445312 345.449219 249.523438 C 341.773438 252.984375 336.925781 254.953125 331.84375 254.949219 C 326.761719 254.949219 321.917969 252.980469 318.242188 249.523438 C 316.035156 247.441406 314.367188 244.941406 313.246094 242.019531 C 313.238281 242.003906 313.226562 241.996094 313.210938 241.992188 C 311.300781 241.550781 309.679688 240.703125 308.355469 239.445312 C 306.796875 237.96875 305.792969 236.175781 305.332031 234.0625 C 305.328125 234.039062 305.3125 234.023438 305.292969 234.015625 C 297.546875 231.132812 292.289062 223.695312 292.289062 215.433594 C 292.289062 207.171875 297.550781 199.734375 305.292969 196.855469 C 305.316406 196.84375 305.332031 196.828125 305.335938 196.804688 C 305.792969 194.695312 306.800781 192.902344 308.359375 191.425781 C 309.683594 190.167969 311.304688 189.320312 313.214844 188.878906 C 313.234375 188.875 313.242188 188.867188 313.25 188.851562 C 314.375 185.929688 316.039062 183.429688 318.246094 181.351562 C 321.921875 177.890625 326.769531 175.921875 331.851562 175.921875 Z M 298.109375 215.4375 C 298.109375 217 298.394531 218.578125 298.914062 220.058594 C 300.148438 223.5625 302.785156 226.410156 306.132812 227.992188 C 308.046875 228.902344 310.132812 229.335938 312.390625 229.300781 C 312.40625 229.300781 312.425781 229.300781 312.441406 229.304688 C 312.625 229.351562 312.722656 229.472656 312.730469 229.664062 C 312.730469 229.6875 312.730469 229.710938 312.722656 229.730469 C 312.226562 231.523438 311.988281 233.347656 312.003906 235.203125 C 312.003906 235.226562 312.015625 235.238281 312.039062 235.238281 C 313.863281 235.25 315.648438 235.023438 317.402344 234.546875 C 317.625 234.484375 317.765625 234.472656 317.910156 234.636719 C 317.953125 234.683594 317.976562 234.816406 317.980469 235.03125 C 318.019531 236.761719 318.320312 238.359375 318.890625 239.824219 C 319.917969 242.46875 321.585938 244.609375 323.886719 246.246094 C 326.199219 247.890625 329.019531 248.785156 331.847656 248.785156 C 334.675781 248.785156 337.496094 247.890625 339.808594 246.246094 C 342.109375 244.609375 343.777344 242.46875 344.804688 239.824219 C 345.375 238.359375 345.675781 236.761719 345.714844 235.03125 C 345.71875 234.816406 345.742188 234.6875 345.785156 234.636719 C 345.929688 234.472656 346.070312 234.484375 346.296875 234.546875 C 348.046875 235.023438 349.832031 235.253906 351.65625 235.238281 C 351.679688 235.238281 351.691406 235.226562 351.691406 235.203125 C 351.707031 233.347656 351.46875 231.523438 350.972656 229.730469 C 350.964844 229.710938 350.964844 229.6875 350.964844 229.664062 C 350.972656 229.472656 351.070312 229.355469 351.253906 229.304688 C 351.269531 229.300781 351.289062 229.300781 351.304688 229.300781 C 353.5625 229.335938 355.648438 228.902344 357.5625 227.996094 C 360.910156 226.410156 363.546875 223.566406 364.78125 220.0625 C 365.300781 218.578125 365.589844 217.003906 365.589844 215.4375 C 365.589844 213.871094 365.300781 212.296875 364.78125 210.8125 C 363.546875 207.308594 360.910156 204.464844 357.566406 202.878906 C 355.648438 201.972656 353.5625 201.539062 351.304688 201.574219 C 351.289062 201.574219 351.269531 201.574219 351.253906 201.570312 C 351.070312 201.519531 350.972656 201.402344 350.964844 201.210938 C 350.964844 201.1875 350.96875 201.164062 350.972656 201.144531 C 351.46875 199.351562 351.707031 197.527344 351.695312 195.671875 C 351.695312 195.648438 351.683594 195.636719 351.660156 195.636719 C 349.832031 195.621094 348.046875 195.851562 346.296875 196.328125 C 346.070312 196.390625 345.929688 196.402344 345.785156 196.238281 C 345.742188 196.1875 345.71875 196.058594 345.714844 195.84375 C 345.675781 194.113281 345.375 192.515625 344.804688 191.050781 C 343.777344 188.40625 342.113281 186.265625 339.808594 184.628906 C 337.496094 182.984375 334.675781 182.085938 331.847656 182.085938 C 329.019531 182.085938 326.199219 182.980469 323.886719 184.628906 C 321.585938 186.265625 319.921875 188.40625 318.890625 191.050781 C 318.324219 192.515625 318.019531 194.113281 317.984375 195.84375 C 317.980469 196.058594 317.953125 196.1875 317.910156 196.238281 C 317.765625 196.398438 317.628906 196.386719 317.402344 196.328125 C 315.652344 195.851562 313.863281 195.621094 312.039062 195.636719 C 312.015625 195.636719 312.003906 195.648438 312.003906 195.671875 C 311.988281 197.527344 312.226562 199.351562 312.722656 201.144531 C 312.730469 201.164062 312.730469 201.1875 312.730469 201.207031 C 312.722656 201.402344 312.625 201.519531 312.441406 201.566406 C 312.425781 201.574219 312.410156 201.574219 312.390625 201.574219 C 310.132812 201.535156 308.046875 201.972656 306.132812 202.878906 C 302.785156 204.464844 300.148438 207.308594 298.914062 210.8125 C 298.394531 212.292969 298.109375 213.871094 298.109375 215.4375 Z M 298.109375 215.4375 "/><path style=" stroke:none;fill-rule:nonzero;fill:#d09760;fill-opacity:1;" d="M 331.828125 190.25 C 332.871094 190.253906 333.859375 190.351562 334.789062 190.550781 C 337.105469 191.046875 339.09375 192.140625 340.761719 193.835938 C 342.886719 195.996094 344.277344 198.796875 345.269531 201.636719 C 345.277344 201.65625 345.289062 201.671875 345.3125 201.679688 C 347.074219 202.277344 348.726562 203.042969 350.273438 203.980469 C 350.957031 204.394531 351.636719 204.886719 352.316406 205.457031 C 354.921875 207.65625 356.363281 210.46875 356.636719 213.886719 C 356.710938 214.832031 356.699219 215.773438 356.601562 216.707031 C 356.265625 219.871094 354.902344 222.5 352.507812 224.597656 C 351.199219 225.746094 349.640625 226.707031 348.058594 227.429688 C 347.644531 227.617188 347.316406 227.789062 347.070312 227.945312 C 346.148438 228.535156 345.324219 229.257812 344.722656 230.179688 C 344.605469 230.355469 344.476562 230.609375 344.332031 230.933594 C 343.460938 232.898438 342.320312 234.785156 340.824219 236.320312 C 339.085938 238.109375 337.011719 239.238281 334.601562 239.710938 C 333.722656 239.886719 332.792969 239.972656 331.824219 239.972656 C 330.851562 239.972656 329.925781 239.882812 329.042969 239.710938 C 326.636719 239.238281 324.5625 238.105469 322.824219 236.320312 C 321.328125 234.785156 320.183594 232.898438 319.316406 230.933594 C 319.171875 230.605469 319.039062 230.355469 318.925781 230.175781 C 318.320312 229.257812 317.5 228.53125 316.574219 227.941406 C 316.332031 227.789062 316.003906 227.617188 315.589844 227.425781 C 314.003906 226.703125 312.449219 225.742188 311.136719 224.597656 C 308.746094 222.496094 307.382812 219.867188 307.046875 216.703125 C 306.949219 215.769531 306.9375 214.828125 307.015625 213.882812 C 307.289062 210.464844 308.726562 207.65625 311.335938 205.457031 C 312.015625 204.882812 312.695312 204.390625 313.375 203.976562 C 314.921875 203.042969 316.578125 202.273438 318.339844 201.675781 C 318.359375 201.667969 318.375 201.65625 318.382812 201.636719 C 319.375 198.796875 320.765625 195.992188 322.890625 193.832031 C 324.558594 192.140625 326.546875 191.046875 328.863281 190.550781 C 329.792969 190.351562 330.78125 190.25 331.828125 190.25 Z M 319.339844 204.121094 C 317.582031 206.128906 316.246094 208.421875 315.523438 210.988281 C 314.449219 214.8125 314.929688 218.914062 316.792969 222.421875 C 318.558594 225.746094 321.089844 228.296875 324.390625 230.078125 C 329.070312 232.601562 334.5625 232.601562 339.242188 230.089844 C 341.136719 229.070312 342.886719 227.722656 344.308594 226.101562 C 346.070312 224.097656 347.402344 221.804688 348.125 219.234375 C 349.199219 215.410156 348.71875 211.3125 346.855469 207.800781 C 345.089844 204.480469 342.558594 201.925781 339.257812 200.148438 C 334.578125 197.625 329.085938 197.621094 324.40625 200.136719 C 322.515625 201.152344 320.761719 202.5 319.339844 204.121094 Z M 319.339844 204.121094 "/><path style=" stroke:none;fill-rule:nonzero;fill:#d09760;fill-opacity:1;" d="M 338.976562 222.433594 C 338.769531 222.800781 338.574219 223.125 338.398438 223.40625 C 337.148438 225.394531 335.5625 227.0625 333.644531 228.40625 C 332.644531 229.105469 331.292969 229.125 330.226562 228.558594 C 330.039062 228.460938 329.734375 228.246094 329.316406 227.921875 C 327.382812 226.425781 325.828125 224.59375 324.652344 222.4375 C 324.640625 222.417969 324.628906 222.402344 324.609375 222.394531 C 322.257812 221.109375 320.300781 219.382812 318.734375 217.214844 C 318.421875 216.78125 318.222656 216.429688 318.132812 216.160156 C 317.929688 215.550781 317.925781 214.941406 318.125 214.332031 C 318.21875 214.042969 318.4375 213.660156 318.785156 213.1875 C 320.347656 211.046875 322.289062 209.34375 324.609375 208.078125 C 324.628906 208.066406 324.644531 208.050781 324.65625 208.03125 C 326.0625 205.449219 328.097656 203.222656 330.59375 201.648438 C 331.203125 201.265625 331.835938 201.148438 332.527344 201.386719 C 332.746094 201.464844 333.136719 201.703125 333.695312 202.097656 C 335.90625 203.664062 337.660156 205.640625 338.960938 208.023438 C 338.976562 208.050781 338.996094 208.070312 339.023438 208.085938 C 341.410156 209.382812 343.394531 211.152344 344.976562 213.390625 C 345.1875 213.6875 345.378906 213.96875 345.496094 214.285156 C 345.769531 215.023438 345.726562 215.753906 345.363281 216.476562 C 345.273438 216.65625 345.082031 216.945312 344.792969 217.339844 C 343.242188 219.449219 341.320312 221.132812 339.019531 222.390625 C 339 222.402344 338.984375 222.414062 338.976562 222.433594 Z M 324.648438 208.074219 C 324.648438 208.074219 324.648438 208.074219 324.648438 208.078125 C 323.472656 210.257812 322.8125 212.746094 322.929688 215.21875 C 322.929688 215.222656 322.929688 215.226562 322.929688 215.234375 C 322.929688 215.238281 322.929688 215.242188 322.929688 215.246094 C 322.8125 217.71875 323.472656 220.210938 324.644531 222.390625 C 324.644531 222.390625 324.644531 222.394531 324.648438 222.394531 C 324.648438 222.394531 324.648438 222.394531 324.652344 222.398438 C 326.832031 223.570312 329.320312 224.230469 331.792969 224.113281 C 331.796875 224.113281 331.800781 224.113281 331.808594 224.113281 C 331.8125 224.113281 331.816406 224.113281 331.820312 224.113281 C 334.292969 224.230469 336.785156 223.574219 338.964844 222.402344 C 338.964844 222.402344 338.96875 222.398438 338.96875 222.398438 C 338.96875 222.398438 338.972656 222.394531 338.972656 222.394531 C 340.144531 220.214844 340.804688 217.726562 340.6875 215.25 C 340.6875 215.246094 340.6875 215.242188 340.6875 215.238281 C 340.6875 215.230469 340.6875 215.226562 340.6875 215.226562 C 340.804688 212.75 340.148438 210.261719 338.976562 208.082031 C 338.976562 208.078125 338.972656 208.078125 338.972656 208.074219 C 338.972656 208.074219 338.96875 208.074219 338.96875 208.074219 C 336.789062 206.898438 334.300781 206.238281 331.824219 206.355469 C 331.820312 206.355469 331.816406 206.355469 331.8125 206.355469 C 331.804688 206.355469 331.800781 206.355469 331.800781 206.355469 C 329.324219 206.238281 326.835938 206.894531 324.65625 208.070312 C 324.652344 208.070312 324.652344 208.070312 324.648438 208.074219 Z M 324.648438 208.074219 "/><path style=" stroke:none;fill-rule:nonzero;fill:#2a92cc;fill-opacity:1;" d="M 239.167969 232.410156 C 239.167969 236.382812 236.324219 239.539062 232.890625 241.152344 C 232.675781 241.253906 232.5 241.34375 232.371094 241.425781 C 231.65625 241.855469 231.042969 242.378906 230.597656 243.066406 C 230.535156 243.164062 230.464844 243.308594 230.378906 243.503906 C 230.125 244.089844 229.800781 244.691406 229.40625 245.308594 C 227.84375 247.757812 225.382812 249.691406 222.421875 250.027344 C 221.53125 250.128906 220.652344 250.085938 219.78125 249.898438 C 216.6875 249.230469 214.277344 246.855469 212.898438 244.09375 C 212.769531 243.839844 212.675781 243.640625 212.613281 243.496094 C 212.535156 243.308594 212.460938 243.167969 212.402344 243.070312 C 211.960938 242.386719 211.34375 241.855469 210.625 241.421875 C 210.480469 241.335938 210.285156 241.234375 210.03125 241.117188 C 209.671875 240.949219 209.28125 240.738281 208.863281 240.484375 C 206.003906 238.75 203.828125 235.871094 203.828125 232.410156 C 203.828125 228.945312 206.003906 226.070312 208.863281 224.335938 C 209.28125 224.082031 209.671875 223.871094 210.03125 223.703125 C 210.285156 223.582031 210.480469 223.480469 210.625 223.394531 C 211.34375 222.964844 211.960938 222.433594 212.402344 221.75 C 212.460938 221.652344 212.535156 221.511719 212.613281 221.320312 C 212.675781 221.179688 212.769531 220.980469 212.898438 220.726562 C 214.277344 217.960938 216.6875 215.589844 219.78125 214.921875 C 220.652344 214.734375 221.53125 214.691406 222.421875 214.792969 C 225.382812 215.128906 227.84375 217.058594 229.40625 219.511719 C 229.800781 220.128906 230.125 220.730469 230.378906 221.316406 C 230.464844 221.507812 230.535156 221.65625 230.597656 221.753906 C 231.042969 222.4375 231.65625 222.964844 232.371094 223.394531 C 232.5 223.472656 232.675781 223.5625 232.890625 223.664062 C 236.324219 225.28125 239.167969 228.433594 239.167969 232.410156 Z M 208.476562 232.355469 C 208.484375 235.402344 209.535156 238.3125 211.476562 240.667969 C 213.925781 243.644531 217.59375 245.386719 221.46875 245.375 C 225.34375 245.363281 229 243.601562 231.429688 240.609375 C 233.355469 238.242188 234.390625 235.324219 234.378906 232.277344 C 234.371094 229.230469 233.320312 226.320312 231.382812 223.964844 C 228.929688 220.988281 225.265625 219.246094 221.386719 219.257812 C 217.511719 219.269531 213.855469 221.035156 211.425781 224.027344 C 209.5 226.394531 208.464844 229.308594 208.476562 232.355469 Z M 208.476562 232.355469 "/><path style=" stroke:none;fill-rule:nonzero;fill:#2a92cc;fill-opacity:1;" d="M 221.5 219.816406 C 221.875 219.816406 222.230469 219.839844 222.574219 219.890625 C 224 220.097656 225.199219 220.730469 226.175781 221.785156 C 227.164062 222.859375 227.832031 224.210938 228.308594 225.582031 C 228.3125 225.589844 228.320312 225.597656 228.328125 225.601562 C 228.875 225.789062 229.40625 226.011719 229.917969 226.261719 C 230.921875 226.75 231.882812 227.394531 232.617188 228.242188 C 233.515625 229.28125 234.003906 230.519531 234.078125 231.957031 C 234.101562 232.410156 234.09375 232.835938 234.046875 233.242188 C 233.867188 234.890625 233.132812 236.253906 231.847656 237.324219 C 231.195312 237.871094 230.457031 238.316406 229.710938 238.65625 C 229.515625 238.742188 229.359375 238.824219 229.246094 238.894531 C 228.75 239.207031 228.285156 239.617188 227.996094 240.105469 C 227.945312 240.1875 227.871094 240.34375 227.765625 240.574219 C 227.199219 241.832031 226.367188 243.046875 225.242188 243.863281 C 224.140625 244.660156 222.851562 245.003906 221.5 245.003906 C 220.144531 245.003906 218.855469 244.660156 217.753906 243.859375 C 216.628906 243.046875 215.796875 241.828125 215.230469 240.570312 C 215.125 240.339844 215.050781 240.1875 215.003906 240.105469 C 214.710938 239.613281 214.246094 239.207031 213.75 238.894531 C 213.636719 238.824219 213.480469 238.742188 213.285156 238.652344 C 212.542969 238.3125 211.800781 237.867188 211.148438 237.324219 C 209.863281 236.25 209.128906 234.890625 208.949219 233.242188 C 208.90625 232.835938 208.894531 232.40625 208.917969 231.957031 C 208.996094 230.519531 209.484375 229.28125 210.382812 228.242188 C 211.117188 227.390625 212.078125 226.746094 213.082031 226.257812 C 213.59375 226.007812 214.125 225.789062 214.671875 225.597656 C 214.679688 225.597656 214.6875 225.589844 214.6875 225.582031 C 215.167969 224.210938 215.832031 222.855469 216.824219 221.785156 C 217.800781 220.730469 219 220.097656 220.425781 219.890625 C 220.765625 219.839844 221.125 219.816406 221.5 219.816406 Z M 215.902344 238.707031 C 216.636719 239.359375 217.445312 239.894531 218.34375 240.289062 C 220.371094 241.175781 222.636719 241.171875 224.664062 240.285156 C 225.949219 239.722656 227.128906 238.828125 228.019531 237.75 C 229.597656 235.84375 230.359375 233.480469 229.917969 231.027344 C 229.601562 229.265625 228.667969 227.660156 227.414062 226.402344 C 227.34375 226.335938 227.238281 226.238281 227.097656 226.109375 C 226.359375 225.457031 225.550781 224.921875 224.65625 224.53125 C 222.628906 223.644531 220.363281 223.648438 218.335938 224.535156 C 217.050781 225.097656 215.871094 225.992188 214.976562 227.070312 C 213.398438 228.976562 212.640625 231.335938 213.078125 233.792969 C 213.394531 235.554688 214.328125 237.15625 215.585938 238.414062 C 215.652344 238.484375 215.757812 238.582031 215.902344 238.707031 Z M 215.902344 238.707031 "/><path style=" stroke:none;fill-rule:nonzero;fill:#2a92cc;fill-opacity:1;" d="M 216.132812 232.398438 C 216.125 232.375 216.105469 232.320312 216.085938 232.242188 C 215.691406 230.828125 215.640625 229.390625 215.929688 227.929688 C 215.949219 227.832031 215.96875 227.75 215.988281 227.675781 C 216.097656 227.273438 216.410156 226.980469 216.808594 226.886719 C 218.355469 226.535156 219.917969 226.585938 221.492188 227.039062 C 221.5 227.042969 221.503906 227.042969 221.511719 227.039062 C 222.878906 226.636719 224.269531 226.550781 225.679688 226.785156 C 225.960938 226.828125 226.171875 226.886719 226.304688 226.953125 C 226.671875 227.132812 226.917969 227.429688 227.046875 227.839844 C 227.078125 227.945312 227.117188 228.160156 227.160156 228.480469 C 227.347656 229.804688 227.25 231.109375 226.867188 232.394531 C 226.867188 232.402344 226.867188 232.410156 226.867188 232.421875 C 227.273438 233.804688 227.359375 235.199219 227.117188 236.613281 C 227.015625 237.222656 226.582031 237.730469 226.011719 237.945312 C 225.835938 238.015625 225.523438 238.070312 225.078125 238.113281 C 223.867188 238.238281 222.679688 238.125 221.515625 237.78125 C 221.503906 237.777344 221.492188 237.777344 221.480469 237.78125 C 220.128906 238.179688 218.746094 238.265625 217.328125 238.035156 C 217.117188 238.003906 216.910156 237.960938 216.730469 237.875 C 216.417969 237.71875 216.183594 237.484375 216.03125 237.167969 C 215.964844 237.035156 215.910156 236.828125 215.863281 236.542969 C 215.652344 235.203125 215.722656 233.882812 216.082031 232.582031 C 216.105469 232.5 216.121094 232.445312 216.132812 232.421875 C 216.136719 232.414062 216.136719 232.40625 216.132812 232.398438 Z M 218.179688 229.089844 C 218.175781 229.089844 218.160156 229.105469 218.128906 229.132812 C 217.183594 230.007812 216.511719 231.167969 216.140625 232.402344 C 216.140625 232.40625 216.140625 232.40625 216.140625 232.410156 C 216.140625 232.410156 216.140625 232.410156 216.140625 232.414062 C 216.511719 233.648438 217.183594 234.808594 218.128906 235.683594 C 218.160156 235.710938 218.175781 235.726562 218.175781 235.730469 C 218.179688 235.730469 218.195312 235.746094 218.222656 235.777344 C 219.097656 236.726562 220.257812 237.394531 221.492188 237.765625 C 221.496094 237.769531 221.496094 237.769531 221.496094 237.769531 C 221.5 237.769531 221.5 237.769531 221.503906 237.765625 C 222.738281 237.394531 223.898438 236.726562 224.773438 235.777344 C 224.800781 235.75 224.816406 235.734375 224.820312 235.730469 C 224.820312 235.730469 224.835938 235.714844 224.867188 235.6875 C 225.816406 234.8125 226.484375 233.648438 226.855469 232.414062 C 226.855469 232.414062 226.859375 232.410156 226.859375 232.410156 C 226.859375 232.410156 226.855469 232.40625 226.855469 232.40625 C 226.484375 231.171875 225.816406 230.007812 224.867188 229.132812 C 224.839844 229.105469 224.824219 229.089844 224.820312 229.089844 C 224.816406 229.085938 224.804688 229.070312 224.777344 229.042969 C 223.902344 228.09375 222.738281 227.421875 221.503906 227.050781 C 221.503906 227.050781 221.5 227.050781 221.5 227.050781 C 221.5 227.050781 221.496094 227.050781 221.496094 227.050781 C 220.261719 227.421875 219.097656 228.09375 218.222656 229.039062 C 218.195312 229.070312 218.179688 229.085938 218.179688 229.089844 Z M 218.179688 229.089844 "/><path style=" stroke:none;fill-rule:nonzero;fill:#2a92cc;fill-opacity:1;" d="M 224.105469 232.410156 C 224.105469 232.753906 224.039062 233.085938 223.90625 233.40625 C 223.773438 233.726562 223.585938 234.007812 223.339844 234.25 C 223.097656 234.496094 222.816406 234.683594 222.496094 234.816406 C 222.175781 234.949219 221.84375 235.015625 221.5 235.015625 C 221.152344 235.015625 220.820312 234.949219 220.503906 234.816406 C 220.183594 234.683594 219.902344 234.496094 219.65625 234.25 C 219.414062 234.007812 219.222656 233.726562 219.09375 233.40625 C 218.960938 233.085938 218.894531 232.753906 218.894531 232.410156 C 218.894531 232.0625 218.960938 231.730469 219.09375 231.414062 C 219.222656 231.09375 219.414062 230.8125 219.65625 230.566406 C 219.902344 230.324219 220.183594 230.136719 220.503906 230.003906 C 220.820312 229.871094 221.152344 229.804688 221.5 229.804688 C 221.84375 229.804688 222.175781 229.871094 222.496094 230.003906 C 222.816406 230.136719 223.097656 230.324219 223.339844 230.566406 C 223.585938 230.8125 223.773438 231.09375 223.90625 231.414062 C 224.039062 231.730469 224.105469 232.0625 224.105469 232.410156 Z M 224.105469 232.410156 "/><path style=" stroke:none;fill-rule:nonzero;fill:#2a92cc;fill-opacity:1;" d="M 350.957031 348.820312 C 350.957031 355.039062 346.507812 359.976562 341.136719 362.5 C 340.796875 362.660156 340.527344 362.800781 340.320312 362.925781 C 339.207031 363.597656 338.242188 364.421875 337.550781 365.492188 C 337.453125 365.648438 337.339844 365.875 337.207031 366.175781 C 336.808594 367.09375 336.304688 368.035156 335.6875 369 C 333.242188 372.835938 329.390625 375.859375 324.757812 376.386719 C 323.363281 376.542969 321.988281 376.476562 320.625 376.183594 C 315.785156 375.136719 312.015625 371.425781 309.855469 367.101562 C 309.65625 366.703125 309.511719 366.390625 309.414062 366.167969 C 309.289062 365.871094 309.175781 365.648438 309.078125 365.5 C 308.390625 364.429688 307.425781 363.601562 306.300781 362.921875 C 306.078125 362.789062 305.769531 362.628906 305.371094 362.445312 C 304.808594 362.179688 304.199219 361.847656 303.542969 361.453125 C 299.070312 358.738281 295.667969 354.238281 295.667969 348.820312 C 295.667969 343.40625 299.070312 338.902344 303.542969 336.191406 C 304.199219 335.792969 304.808594 335.460938 305.371094 335.199219 C 305.769531 335.011719 306.078125 334.851562 306.300781 334.71875 C 307.425781 334.042969 308.390625 333.214844 309.078125 332.140625 C 309.175781 331.992188 309.289062 331.769531 309.414062 331.472656 C 309.511719 331.25 309.65625 330.941406 309.855469 330.542969 C 312.015625 326.21875 315.785156 322.503906 320.625 321.460938 C 321.988281 321.167969 323.363281 321.097656 324.757812 321.257812 C 329.390625 321.785156 333.242188 324.804688 335.6875 328.640625 C 336.304688 329.605469 336.808594 330.546875 337.207031 331.464844 C 337.339844 331.765625 337.453125 331.996094 337.550781 332.148438 C 338.242188 333.222656 339.207031 334.042969 340.320312 334.714844 C 340.527344 334.839844 340.796875 334.980469 341.136719 335.140625 C 346.507812 337.667969 350.957031 342.601562 350.957031 348.820312 Z M 302.9375 348.738281 C 302.953125 353.503906 304.597656 358.058594 307.632812 361.742188 C 311.464844 366.402344 317.199219 369.128906 323.265625 369.109375 C 329.328125 369.089844 335.046875 366.328125 338.851562 361.648438 C 341.863281 357.945312 343.480469 353.382812 343.46875 348.617188 C 343.453125 343.847656 341.808594 339.296875 338.773438 335.609375 C 334.941406 330.953125 329.203125 328.226562 323.140625 328.246094 C 317.078125 328.261719 311.359375 331.023438 307.550781 335.707031 C 304.539062 339.410156 302.921875 343.972656 302.9375 348.738281 Z M 302.9375 348.738281 "/><path style=" stroke:none;fill-rule:nonzero;fill:#2a92cc;fill-opacity:1;" d="M 323.316406 329.117188 C 323.898438 329.117188 324.460938 329.15625 324.996094 329.234375 C 327.226562 329.558594 329.101562 330.550781 330.628906 332.203125 C 332.179688 333.878906 333.222656 335.996094 333.96875 338.140625 C 333.972656 338.152344 333.984375 338.164062 333.996094 338.167969 C 334.851562 338.464844 335.683594 338.808594 336.484375 339.199219 C 338.054688 339.964844 339.558594 340.972656 340.710938 342.304688 C 342.113281 343.929688 342.875 345.863281 342.996094 348.117188 C 343.035156 348.820312 343.019531 349.488281 342.949219 350.125 C 342.664062 352.703125 341.515625 354.832031 339.507812 356.511719 C 338.484375 357.363281 337.324219 358.0625 336.164062 358.589844 C 335.855469 358.730469 335.613281 358.855469 335.433594 358.96875 C 334.660156 359.457031 333.929688 360.09375 333.476562 360.863281 C 333.402344 360.988281 333.28125 361.234375 333.121094 361.59375 C 332.234375 363.5625 330.929688 365.460938 329.171875 366.738281 C 327.445312 367.988281 325.429688 368.523438 323.3125 368.523438 C 321.195312 368.523438 319.179688 367.988281 317.453125 366.738281 C 315.695312 365.460938 314.390625 363.558594 313.503906 361.589844 C 313.34375 361.230469 313.222656 360.988281 313.148438 360.859375 C 312.695312 360.09375 311.96875 359.457031 311.191406 358.96875 C 311.011719 358.855469 310.769531 358.726562 310.464844 358.589844 C 309.300781 358.058594 308.140625 357.363281 307.121094 356.507812 C 305.109375 354.832031 303.964844 352.699219 303.679688 350.121094 C 303.609375 349.488281 303.59375 348.816406 303.632812 348.113281 C 303.753906 345.863281 304.515625 343.925781 305.917969 342.300781 C 307.070312 340.972656 308.574219 339.964844 310.144531 339.199219 C 310.945312 338.808594 311.777344 338.464844 312.632812 338.164062 C 312.644531 338.160156 312.65625 338.152344 312.660156 338.140625 C 313.40625 335.992188 314.449219 333.875 316 332.199219 C 317.527344 330.546875 319.40625 329.558594 321.632812 329.234375 C 322.167969 329.15625 322.730469 329.117188 323.316406 329.117188 Z M 314.554688 358.675781 C 315.710938 359.695312 316.972656 360.53125 318.375 361.144531 C 321.546875 362.535156 325.09375 362.53125 328.261719 361.140625 C 330.273438 360.261719 332.117188 358.863281 333.519531 357.171875 C 335.984375 354.195312 337.175781 350.5 336.488281 346.65625 C 335.992188 343.902344 334.53125 341.390625 332.566406 339.425781 C 332.457031 339.316406 332.292969 339.164062 332.070312 338.96875 C 330.917969 337.945312 329.652344 337.109375 328.253906 336.496094 C 325.082031 335.105469 321.535156 335.113281 318.363281 336.5 C 316.355469 337.378906 314.507812 338.777344 313.109375 340.46875 C 310.640625 343.449219 309.453125 347.144531 310.140625 350.988281 C 310.632812 353.738281 312.097656 356.25 314.058594 358.21875 C 314.167969 358.324219 314.332031 358.476562 314.554688 358.675781 Z M 314.554688 358.675781 "/><path style=" stroke:none;fill-rule:nonzero;fill:#2a92cc;fill-opacity:1;" d="M 314.917969 348.800781 C 314.902344 348.765625 314.878906 348.683594 314.84375 348.558594 C 314.226562 346.34375 314.148438 344.097656 314.601562 341.8125 C 314.628906 341.660156 314.660156 341.527344 314.691406 341.417969 C 314.859375 340.785156 315.355469 340.324219 315.976562 340.183594 C 318.394531 339.628906 320.835938 339.707031 323.304688 340.417969 C 323.3125 340.421875 323.324219 340.421875 323.332031 340.417969 C 325.472656 339.789062 327.644531 339.65625 329.855469 340.019531 C 330.296875 340.09375 330.621094 340.179688 330.835938 340.285156 C 331.40625 340.566406 331.792969 341.027344 331.992188 341.671875 C 332.042969 341.839844 332.105469 342.175781 332.171875 342.675781 C 332.460938 344.746094 332.308594 346.789062 331.714844 348.800781 C 331.710938 348.8125 331.710938 348.824219 331.714844 348.839844 C 332.351562 351 332.480469 353.1875 332.105469 355.398438 C 331.945312 356.347656 331.269531 357.144531 330.375 357.484375 C 330.097656 357.589844 329.609375 357.675781 328.914062 357.746094 C 327.023438 357.9375 325.164062 357.761719 323.339844 357.222656 C 323.320312 357.21875 323.304688 357.21875 323.285156 357.222656 C 321.171875 357.851562 319.003906 357.984375 316.789062 357.625 C 316.457031 357.570312 316.136719 357.507812 315.855469 357.371094 C 315.363281 357.128906 315 356.761719 314.757812 356.269531 C 314.65625 356.058594 314.570312 355.730469 314.5 355.285156 C 314.164062 353.191406 314.277344 351.128906 314.839844 349.089844 C 314.875 348.960938 314.902344 348.875 314.917969 348.839844 C 314.925781 348.828125 314.925781 348.816406 314.917969 348.800781 Z M 318.121094 343.625 C 318.117188 343.628906 318.089844 343.652344 318.042969 343.695312 C 316.5625 345.0625 315.511719 346.882812 314.929688 348.8125 C 314.929688 348.816406 314.929688 348.816406 314.929688 348.820312 C 314.929688 348.820312 314.929688 348.824219 314.929688 348.828125 C 315.511719 350.757812 316.558594 352.578125 318.042969 353.945312 C 318.089844 353.988281 318.113281 354.011719 318.117188 354.015625 C 318.121094 354.019531 318.144531 354.042969 318.1875 354.089844 C 319.554688 355.574219 321.375 356.621094 323.304688 357.203125 C 323.308594 357.203125 323.3125 357.207031 323.3125 357.207031 C 323.3125 357.207031 323.316406 357.203125 323.320312 357.203125 C 325.25 356.621094 327.070312 355.574219 328.4375 354.09375 C 328.480469 354.046875 328.503906 354.019531 328.507812 354.015625 C 328.511719 354.015625 328.535156 353.992188 328.582031 353.945312 C 330.066406 352.578125 331.113281 350.761719 331.695312 348.832031 C 331.695312 348.828125 331.699219 348.824219 331.699219 348.824219 C 331.699219 348.820312 331.695312 348.820312 331.695312 348.816406 C 331.113281 346.886719 330.066406 345.066406 328.585938 343.695312 C 328.539062 343.652344 328.511719 343.628906 328.511719 343.625 C 328.507812 343.625 328.484375 343.597656 328.441406 343.550781 C 327.070312 342.070312 325.253906 341.019531 323.324219 340.4375 C 323.320312 340.4375 323.316406 340.4375 323.316406 340.4375 C 323.3125 340.4375 323.3125 340.4375 323.308594 340.4375 C 321.375 341.019531 319.558594 342.066406 318.191406 343.550781 C 318.144531 343.597656 318.121094 343.621094 318.121094 343.625 Z M 318.121094 343.625 "/><path style=" stroke:none;fill-rule:nonzero;fill:#2a92cc;fill-opacity:1;" d="M 327.390625 348.820312 C 327.390625 349.089844 327.363281 349.355469 327.3125 349.617188 C 327.257812 349.878906 327.179688 350.132812 327.078125 350.378906 C 326.976562 350.628906 326.851562 350.863281 326.703125 351.085938 C 326.554688 351.308594 326.382812 351.515625 326.195312 351.703125 C 326.007812 351.890625 325.800781 352.0625 325.578125 352.210938 C 325.355469 352.359375 325.121094 352.484375 324.875 352.585938 C 324.625 352.6875 324.371094 352.765625 324.109375 352.820312 C 323.847656 352.871094 323.582031 352.898438 323.3125 352.898438 C 323.046875 352.898438 322.78125 352.871094 322.519531 352.820312 C 322.257812 352.765625 322 352.6875 321.753906 352.585938 C 321.507812 352.484375 321.273438 352.359375 321.050781 352.210938 C 320.828125 352.0625 320.621094 351.890625 320.429688 351.703125 C 320.242188 351.515625 320.074219 351.308594 319.925781 351.085938 C 319.777344 350.863281 319.652344 350.628906 319.546875 350.378906 C 319.445312 350.132812 319.367188 349.878906 319.316406 349.617188 C 319.265625 349.355469 319.238281 349.089844 319.238281 348.820312 C 319.238281 348.554688 319.265625 348.289062 319.316406 348.027344 C 319.367188 347.761719 319.445312 347.507812 319.546875 347.261719 C 319.652344 347.015625 319.777344 346.777344 319.925781 346.558594 C 320.074219 346.335938 320.242188 346.128906 320.429688 345.9375 C 320.621094 345.75 320.828125 345.582031 321.050781 345.433594 C 321.273438 345.285156 321.507812 345.15625 321.753906 345.054688 C 322 344.953125 322.257812 344.875 322.519531 344.824219 C 322.78125 344.769531 323.046875 344.746094 323.3125 344.746094 C 323.582031 344.746094 323.847656 344.769531 324.109375 344.824219 C 324.371094 344.875 324.625 344.953125 324.875 345.054688 C 325.121094 345.15625 325.355469 345.285156 325.578125 345.433594 C 325.800781 345.582031 326.007812 345.75 326.195312 345.9375 C 326.382812 346.128906 326.554688 346.335938 326.703125 346.558594 C 326.851562 346.777344 326.976562 347.015625 327.078125 347.261719 C 327.179688 347.507812 327.257812 347.761719 327.3125 348.027344 C 327.363281 348.289062 327.390625 348.554688 327.390625 348.820312 Z M 327.390625 348.820312 "/><path style=" stroke:none;fill-rule:nonzero;fill:#f27343;fill-opacity:1;" d="M 276.851562 265.734375 C 278.707031 267.589844 279.855469 270.046875 280.121094 272.648438 C 280.304688 274.464844 280.0625 276.242188 279.394531 277.988281 C 279.371094 278.054688 279.289062 278.246094 279.152344 278.558594 C 279.148438 278.566406 279.148438 278.574219 279.15625 278.582031 C 279.753906 279.503906 280.210938 280.496094 280.527344 281.558594 C 280.53125 281.578125 280.535156 281.601562 280.527344 281.621094 C 280.246094 282.832031 279.78125 283.964844 279.136719 285.011719 C 279.132812 285.019531 279.132812 285.03125 279.136719 285.039062 C 280.21875 287.429688 280.464844 290.085938 279.832031 292.621094 C 279.34375 294.585938 278.316406 296.433594 276.867188 297.882812 C 275.417969 299.328125 273.574219 300.359375 271.609375 300.847656 C 269.070312 301.480469 266.414062 301.234375 264.027344 300.148438 C 264.015625 300.144531 264.007812 300.144531 263.996094 300.148438 C 262.949219 300.792969 261.820312 301.257812 260.605469 301.539062 C 260.585938 301.546875 260.5625 301.546875 260.542969 301.539062 C 259.480469 301.222656 258.488281 300.765625 257.570312 300.167969 C 257.558594 300.160156 257.550781 300.160156 257.542969 300.164062 C 257.230469 300.300781 257.042969 300.378906 256.972656 300.40625 C 255.226562 301.074219 253.449219 301.3125 251.636719 301.132812 C 249.03125 300.867188 246.574219 299.714844 244.722656 297.863281 C 242.867188 296.007812 241.71875 293.554688 241.453125 290.949219 C 241.269531 289.136719 241.511719 287.355469 242.179688 285.609375 C 242.203125 285.542969 242.285156 285.351562 242.421875 285.042969 C 242.425781 285.03125 242.425781 285.023438 242.417969 285.015625 C 241.820312 284.09375 241.363281 283.101562 241.046875 282.039062 C 241.042969 282.019531 241.039062 281.996094 241.046875 281.976562 C 241.328125 280.765625 241.792969 279.632812 242.4375 278.585938 C 242.441406 278.578125 242.441406 278.566406 242.4375 278.558594 C 241.355469 276.167969 241.109375 273.515625 241.742188 270.976562 C 242.230469 269.011719 243.257812 267.164062 244.707031 265.714844 C 246.15625 264.269531 248 263.238281 249.964844 262.75 C 252.503906 262.117188 255.160156 262.367188 257.546875 263.449219 C 257.558594 263.453125 257.566406 263.453125 257.578125 263.449219 C 258.625 262.804688 259.753906 262.339844 260.96875 262.058594 C 260.988281 262.050781 261.011719 262.054688 261.03125 262.058594 C 262.09375 262.375 263.085938 262.832031 264.003906 263.429688 C 264.015625 263.4375 264.023438 263.4375 264.03125 263.433594 C 264.34375 263.296875 264.53125 263.21875 264.601562 263.191406 C 266.347656 262.523438 268.125 262.285156 269.9375 262.46875 C 272.542969 262.730469 275 263.882812 276.851562 265.734375 Z M 248.261719 280.332031 C 247.636719 277.398438 247.632812 274.464844 248.25 271.535156 C 248.320312 271.191406 248.394531 270.933594 248.472656 270.765625 C 248.78125 270.089844 249.421875 269.53125 250.148438 269.367188 C 253.203125 268.667969 256.269531 268.648438 259.339844 269.3125 C 259.34375 269.3125 259.347656 269.308594 259.347656 269.308594 C 259.351562 269.304688 259.351562 269.300781 259.347656 269.300781 C 258.503906 268.0625 257.421875 267.136719 256.105469 266.515625 C 252.664062 264.898438 248.492188 265.949219 246.269531 269.027344 C 243.621094 272.695312 244.527344 277.804688 248.253906 280.335938 C 248.257812 280.339844 248.257812 280.339844 248.261719 280.335938 C 248.261719 280.335938 248.261719 280.335938 248.261719 280.332031 Z M 273.527344 280.230469 C 274.691406 279.332031 275.542969 278.214844 276.082031 276.882812 C 277.082031 274.421875 276.78125 271.636719 275.328125 269.445312 C 273.921875 267.328125 271.558594 266.035156 269.066406 265.929688 C 266.300781 265.8125 263.714844 267.09375 262.128906 269.367188 C 262.128906 269.371094 262.128906 269.371094 262.128906 269.375 C 262.128906 269.375 262.132812 269.375 262.132812 269.375 C 264.949219 268.726562 267.777344 268.65625 270.617188 269.160156 C 271.105469 269.25 271.472656 269.324219 271.863281 269.523438 C 272.433594 269.8125 272.871094 270.242188 273.171875 270.804688 C 273.347656 271.128906 273.46875 271.429688 273.535156 271.707031 C 273.589844 271.925781 273.636719 272.179688 273.683594 272.464844 C 274.109375 275.0625 274.054688 277.648438 273.515625 280.222656 C 273.515625 280.226562 273.519531 280.230469 273.519531 280.230469 C 273.523438 280.234375 273.527344 280.234375 273.527344 280.230469 Z M 272.78125 281.035156 C 271.925781 278.617188 270.507812 276.277344 268.617188 274.53125 C 268.511719 274.433594 268.390625 274.3125 268.257812 274.171875 C 266.488281 272.285156 264.183594 270.871094 261.757812 270.015625 C 261.234375 269.835938 260.71875 269.8125 260.210938 269.949219 C 260.074219 269.988281 259.886719 270.050781 259.636719 270.144531 C 257.347656 271.019531 255.222656 272.351562 253.539062 274.128906 C 253.390625 274.285156 253.234375 274.4375 253.078125 274.585938 C 251.359375 276.21875 250.0625 278.257812 249.183594 280.476562 C 248.980469 280.988281 248.863281 281.355469 248.835938 281.574219 C 248.785156 281.972656 248.820312 282.351562 248.949219 282.714844 C 249.808594 285.179688 251.203125 287.46875 253.101562 289.269531 C 253.273438 289.429688 253.421875 289.582031 253.554688 289.722656 C 254.816406 291.054688 256.339844 292.140625 257.984375 292.960938 C 258.667969 293.300781 259.316406 293.578125 259.921875 293.789062 C 260.484375 293.988281 261.050781 294.011719 261.617188 293.859375 C 261.746094 293.824219 261.9375 293.757812 262.191406 293.65625 C 264.449219 292.789062 266.5625 291.464844 268.210938 289.710938 C 268.355469 289.558594 268.507812 289.40625 268.664062 289.261719 C 270.367188 287.65625 271.671875 285.613281 272.539062 283.429688 C 272.652344 283.144531 272.746094 282.917969 272.824219 282.648438 C 272.984375 282.105469 272.96875 281.566406 272.78125 281.035156 Z M 259.1875 294.558594 C 259.042969 294.585938 258.859375 294.617188 258.636719 294.660156 C 256.203125 295.105469 253.75 295.117188 251.277344 294.699219 C 251.011719 294.65625 250.796875 294.613281 250.636719 294.566406 C 249.578125 294.28125 248.738281 293.53125 248.339844 292.511719 C 248.257812 292.308594 248.183594 292.015625 248.117188 291.636719 C 247.617188 288.796875 247.691406 285.972656 248.335938 283.164062 C 248.339844 283.164062 248.335938 283.160156 248.335938 283.160156 C 248.335938 283.160156 248.332031 283.160156 248.332031 283.160156 C 247.546875 283.707031 246.878906 284.375 246.335938 285.15625 C 244.632812 287.601562 244.4375 290.847656 245.839844 293.472656 C 246.296875 294.324219 246.867188 295.054688 247.554688 295.664062 C 248.5 296.496094 249.5625 297.070312 250.742188 297.394531 C 252.980469 298.003906 255.351562 297.625 257.292969 296.34375 C 258.003906 295.875 258.636719 295.285156 259.195312 294.570312 C 259.195312 294.570312 259.195312 294.566406 259.195312 294.5625 C 259.191406 294.558594 259.191406 294.558594 259.1875 294.558594 Z M 273.472656 283.367188 C 273.472656 283.367188 273.472656 283.367188 273.46875 283.367188 C 273.46875 283.371094 273.464844 283.371094 273.464844 283.375 C 273.996094 285.78125 274.105469 288.207031 273.789062 290.65625 C 273.707031 291.304688 273.617188 291.761719 273.527344 292.035156 C 273.140625 293.195312 272.246094 294.109375 271.105469 294.527344 C 270.828125 294.628906 270.40625 294.71875 269.832031 294.800781 C 267.328125 295.144531 264.847656 295.050781 262.390625 294.515625 C 262.386719 294.515625 262.386719 294.515625 262.382812 294.519531 C 262.382812 294.523438 262.382812 294.523438 262.382812 294.527344 C 265.09375 298.273438 270.410156 298.9375 273.953125 296.011719 C 275.203125 294.976562 276.121094 293.550781 276.542969 291.980469 C 277.421875 288.71875 276.191406 285.320312 273.472656 283.367188 Z M 273.472656 283.367188 "/><path style=" stroke:none;fill-rule:nonzero;fill:#f27343;fill-opacity:1;" d="M 264.835938 277.75 C 264.839844 277.75 264.839844 277.753906 264.839844 277.753906 C 265.964844 278.359375 266.933594 279.15625 267.75 280.140625 C 267.757812 280.148438 267.765625 280.148438 267.773438 280.144531 C 268.097656 279.910156 268.441406 279.78125 268.808594 279.757812 C 269.824219 279.691406 270.726562 280.398438 270.871094 281.40625 C 271.113281 283.070312 269.304688 284.242188 267.878906 283.328125 C 267.867188 283.320312 267.859375 283.324219 267.851562 283.332031 C 267.015625 284.375 266.011719 285.210938 264.839844 285.847656 C 264.839844 285.847656 264.839844 285.847656 264.835938 285.851562 C 264.835938 285.851562 264.832031 285.855469 264.832031 285.855469 C 264.199219 287.027344 263.359375 288.03125 262.320312 288.867188 C 262.308594 288.875 262.308594 288.882812 262.316406 288.890625 C 263.230469 290.316406 262.058594 292.125 260.394531 291.886719 C 259.386719 291.738281 258.675781 290.835938 258.742188 289.824219 C 258.765625 289.453125 258.894531 289.109375 259.128906 288.785156 C 259.136719 288.777344 259.136719 288.769531 259.125 288.761719 C 258.140625 287.945312 257.347656 286.976562 256.742188 285.855469 C 256.738281 285.855469 256.738281 285.851562 256.734375 285.851562 C 256.734375 285.847656 256.730469 285.847656 256.730469 285.847656 C 255.609375 285.238281 254.640625 284.445312 253.824219 283.460938 C 253.816406 283.449219 253.808594 283.449219 253.800781 283.457031 C 253.476562 283.691406 253.132812 283.820312 252.761719 283.84375 C 251.75 283.910156 250.847656 283.199219 250.699219 282.191406 C 250.460938 280.527344 252.269531 279.355469 253.695312 280.269531 C 253.703125 280.277344 253.714844 280.277344 253.71875 280.265625 C 254.554688 279.226562 255.558594 278.386719 256.730469 277.753906 C 256.734375 277.753906 256.734375 277.75 256.734375 277.75 C 256.738281 277.746094 256.738281 277.746094 256.738281 277.746094 C 257.375 276.574219 258.210938 275.570312 259.253906 274.734375 C 259.261719 274.726562 259.265625 274.71875 259.257812 274.707031 C 258.34375 273.28125 259.515625 271.472656 261.179688 271.714844 C 262.1875 271.859375 262.894531 272.765625 262.832031 273.777344 C 262.804688 274.144531 262.675781 274.488281 262.445312 274.8125 C 262.4375 274.820312 262.4375 274.832031 262.445312 274.835938 C 263.429688 275.652344 264.226562 276.621094 264.832031 277.746094 C 264.832031 277.746094 264.835938 277.746094 264.835938 277.75 Z M 256.746094 277.757812 C 256.738281 277.765625 256.734375 277.769531 256.734375 277.769531 C 256.074219 279.003906 255.710938 280.394531 255.773438 281.792969 C 255.773438 281.792969 255.773438 281.796875 255.773438 281.800781 C 255.773438 281.800781 255.773438 281.804688 255.773438 281.808594 C 255.710938 283.207031 256.074219 284.59375 256.734375 285.828125 C 256.734375 285.832031 256.738281 285.835938 256.746094 285.839844 C 256.75 285.847656 256.753906 285.851562 256.757812 285.851562 C 257.992188 286.511719 259.382812 286.875 260.777344 286.8125 C 260.78125 286.8125 260.785156 286.8125 260.785156 286.8125 C 260.789062 286.8125 260.792969 286.8125 260.792969 286.8125 C 262.191406 286.875 263.582031 286.511719 264.816406 285.851562 C 264.820312 285.851562 264.824219 285.847656 264.828125 285.839844 C 264.832031 285.835938 264.835938 285.832031 264.839844 285.828125 C 265.5 284.59375 265.863281 283.207031 265.800781 281.808594 C 265.800781 281.804688 265.800781 281.800781 265.800781 281.800781 C 265.800781 281.796875 265.800781 281.792969 265.800781 281.792969 C 265.863281 280.394531 265.5 279.003906 264.839844 277.769531 C 264.835938 277.769531 264.832031 277.765625 264.828125 277.757812 C 264.824219 277.753906 264.820312 277.75 264.816406 277.746094 C 263.582031 277.085938 262.191406 276.722656 260.792969 276.785156 C 260.792969 276.785156 260.789062 276.785156 260.785156 276.785156 C 260.785156 276.785156 260.78125 276.785156 260.777344 276.785156 C 259.382812 276.722656 257.992188 277.085938 256.757812 277.746094 C 256.753906 277.75 256.75 277.753906 256.746094 277.757812 Z M 256.746094 277.757812 "/><path style=" stroke:none;fill-rule:nonzero;fill:#f27343;fill-opacity:1;" d="M 259.8125 284.804688 L 257.78125 282.773438 C 257.652344 282.644531 257.550781 282.496094 257.480469 282.328125 C 257.410156 282.15625 257.375 281.980469 257.375 281.800781 C 257.375 281.617188 257.410156 281.441406 257.480469 281.273438 C 257.550781 281.105469 257.652344 280.953125 257.78125 280.824219 L 259.8125 278.792969 C 259.941406 278.664062 260.089844 278.5625 260.257812 278.496094 C 260.429688 278.425781 260.605469 278.390625 260.785156 278.390625 C 260.96875 278.390625 261.144531 278.425781 261.3125 278.496094 C 261.480469 278.5625 261.632812 278.664062 261.761719 278.792969 L 263.792969 280.824219 C 263.921875 280.953125 264.023438 281.105469 264.09375 281.273438 C 264.160156 281.441406 264.195312 281.617188 264.195312 281.800781 C 264.195312 281.980469 264.160156 282.15625 264.09375 282.328125 C 264.023438 282.496094 263.921875 282.644531 263.792969 282.773438 L 261.761719 284.804688 C 261.632812 284.933594 261.480469 285.035156 261.3125 285.105469 C 261.144531 285.175781 260.96875 285.210938 260.785156 285.210938 C 260.605469 285.210938 260.429688 285.175781 260.257812 285.105469 C 260.089844 285.035156 259.941406 284.933594 259.8125 284.804688 Z M 259.8125 284.804688 "/></g></svg>